<svg xmlns="http://www.w3.org/2000/svg" viewBox="0 0 178.29 55.4"><defs><style>.cls-1{fill:#fff;}</style></defs><title>Asset 1</title><g id="Layer_2" data-name="Layer 2"><g id="Layer_1-2" data-name="Layer 1"><path class="cls-1" d="M45.18,0h5.76V18h2.74l5.81-8.17h7L58.82,20.34l8.35,12.13H60l-6.19-9.2H50.94v9.2H45.18Z"/><path class="cls-1" d="M66.61,21.19a11.78,11.78,0,1,1,23.56,0,11.78,11.78,0,1,1-23.56,0Zm17.75,0c0-3.63-2.5-6.51-5.95-6.51s-6,2.88-6,6.51,2.55,6.56,6,6.56S84.36,24.78,84.36,21.15Z"/><path class="cls-1" d="M100,32.47H94.22V9.86H100v2.46A6.56,6.56,0,0,1,105.5,9.2a5.76,5.76,0,0,1,3.64,1.14l-2.41,5.47a4.91,4.91,0,0,0-3-1c-2.32,0-3.78,1.93-3.78,5Z"/><path class="cls-1" d="M118,32.47H112.2V9.86H118v2.22a7.67,7.67,0,0,1,6.37-2.88c5.24,0,8.59,3.68,8.59,9.59V32.47h-5.76V19.63c0-3.07-1.79-5-4.58-5s-4.62,1.93-4.62,5Z"/><path class="cls-1" d="M136.79,21.19c0-6.61,4.91-12,11.42-12a11.24,11.24,0,0,1,11.38,11.52,10.09,10.09,0,0,1-.14,1.89H142.69A6.32,6.32,0,0,0,149.16,28a7.65,7.65,0,0,0,5.52-2.36l3,3.92a11.63,11.63,0,0,1-8.73,3.54A11.85,11.85,0,0,1,136.79,21.19Zm6-2.22h10.91c-.66-3.21-2.69-4.86-5.38-4.86C145.43,14.11,143.45,16.09,142.79,19Z"/><path class="cls-1" d="M169.13,32.47h-5.76V9.86h5.76v2.46a6.57,6.57,0,0,1,5.52-3.12,5.76,5.76,0,0,1,3.64,1.14l-2.41,5.47a4.9,4.9,0,0,0-3-1c-2.31,0-3.78,1.93-3.78,5Z"/><circle class="cls-1" cx="2.88" cy="2.89" r="2.88"/><rect class="cls-1" y="2.89" width="5.76" height="29.57"/><circle class="cls-1" cx="29.59" cy="29.58" r="2.88"/><path class="cls-1" d="M2.88,29.51"/><circle class="cls-1" cx="22.67" cy="16.11" r="2.25" transform="translate(5.64 38.1) rotate(-87.64)"/><circle class="cls-1" cx="15.48" cy="11.48" r="2.25"/><circle class="cls-1" cx="11.17" cy="21.4" r="2.25"/><circle class="cls-1" cx="27.45" cy="6.39" r="2.25" transform="translate(19.93 33.55) rotate(-87.61)"/><line class="cls-1" x1="27.45" y1="6.39" x2="22.67" y2="16.24"/><rect class="cls-1" x="19.59" y="10.44" width="10.95" height="1.75" transform="translate(3.94 28.92) rotate(-64.12)"/><line class="cls-1" x1="15.48" y1="11.48" x2="11.17" y2="21.4"/><rect class="cls-1" x="7.91" y="15.57" width="10.82" height="1.75" transform="translate(-7.06 22.11) rotate(-66.53)"/><line class="cls-1" x1="22.67" y1="16.24" x2="15.48" y2="11.48"/><rect class="cls-1" x="18.2" y="9.54" width="1.75" height="8.63" transform="translate(-3.01 22.12) rotate(-56.53)"/><rect class="cls-1" y="26.71" width="29.57" height="5.76"/><path class="cls-1" d="M5.12,42a4.25,4.25,0,0,1,3.11,1.36,4.76,4.76,0,0,1,.95,1.55,5.37,5.37,0,0,1,.34,1.93,5.6,5.6,0,0,1-.32,1.91,4.7,4.7,0,0,1-.92,1.56,4.11,4.11,0,0,1-1.41,1,4.26,4.26,0,0,1-1.74.36,3.51,3.51,0,0,1-2.79-1.19v.92H0V38.23H2.33v5a3.72,3.72,0,0,1,1.22-.93A3.62,3.62,0,0,1,5.12,42Zm-.36,2.2a2.18,2.18,0,0,0-1.38.46,2.43,2.43,0,0,0-.82,1.07,3.24,3.24,0,0,0-.23,1.13A2.67,2.67,0,0,0,3,48.69a2.25,2.25,0,0,0,1.73.76A2.18,2.18,0,0,0,6.15,49,2.5,2.5,0,0,0,7,47.93a3.16,3.16,0,0,0,.23-1.12A3.22,3.22,0,0,0,7,45.69a2.47,2.47,0,0,0-.81-1.07A2.17,2.17,0,0,0,4.76,44.16Z"/><path class="cls-1" d="M13.76,42.23v4.95a3.08,3.08,0,0,0,.18,1,1.87,1.87,0,0,0,3.53,0,3.07,3.07,0,0,0,.18-1V42.23H20v5.12a4,4,0,0,1-4.28,4.26,4,4,0,0,1-4.28-4.26V42.23Z"/><path class="cls-1" d="M24.31,44.69a.71.71,0,0,0,.07.29.81.81,0,0,0,.25.3,1.73,1.73,0,0,0,.45.25c.18.07.6.2,1.27.4a8.15,8.15,0,0,1,1.44.54,3.5,3.5,0,0,1,.7.48,2.18,2.18,0,0,1,.42.53,2.58,2.58,0,0,1,.25.61,2.75,2.75,0,0,1,.09.71,2.82,2.82,0,0,1-.16.9,2.45,2.45,0,0,1-.59.92,3.44,3.44,0,0,1-1.18.74,5,5,0,0,1-1.86.31,5.68,5.68,0,0,1-2.24-.42A4.28,4.28,0,0,1,21.6,50.1l1.3-1.49a3.44,3.44,0,0,0,2.68,1.17,1.68,1.68,0,0,0,1-.26.82.82,0,0,0,.35-.7.78.78,0,0,0-.14-.43,1.25,1.25,0,0,0-.54-.4q-.4-.18-1.45-.52a6.93,6.93,0,0,1-1.62-.7,2.63,2.63,0,0,1-.86-.86,2.33,2.33,0,0,1-.3-1.22,2.61,2.61,0,0,1,.15-.83,2.43,2.43,0,0,1,.54-.87,3.27,3.27,0,0,1,1.09-.73,4.33,4.33,0,0,1,1.73-.3,5.53,5.53,0,0,1,2.16.4,3.38,3.38,0,0,1,1.47,1.11l-1.32,1.38a2.82,2.82,0,0,0-2.26-1,1.63,1.63,0,0,0-.93.24A.73.73,0,0,0,24.31,44.69Z"/><path class="cls-1" d="M32.36,41A1.37,1.37,0,0,1,31,39.63a1.33,1.33,0,0,1,.4-1,1.29,1.29,0,0,1,1-.41,1.4,1.4,0,0,1,1.38,1.38,1.31,1.31,0,0,1-.4,1A1.33,1.33,0,0,1,32.36,41Zm1.18,1.24v9.15H31.21V42.23Z"/><path class="cls-1" d="M38.51,46.18v5.2H36.18V42.23h2.33v.9a2.8,2.8,0,0,1,1.09-.86,3.55,3.55,0,0,1,1.49-.3A3.24,3.24,0,0,1,43.62,43a4.07,4.07,0,0,1,.95,2.83v5.54H42.24v-5.2a2.1,2.1,0,0,0-.5-1.47,1.74,1.74,0,0,0-1.35-.55,1.76,1.76,0,0,0-1.37.55A2.1,2.1,0,0,0,38.51,46.18Z"/><path class="cls-1" d="M51.43,51.65a5.06,5.06,0,0,1-1.94-.37,4.75,4.75,0,0,1-1.58-1,4.66,4.66,0,0,1-1-1.56,4.86,4.86,0,0,1-.37-1.86,5.87,5.87,0,0,1,.12-1.07,4.56,4.56,0,0,1,.43-1.23,4.74,4.74,0,0,1,.78-1.12,4.62,4.62,0,0,1,1.06-.84,4,4,0,0,1,1.18-.47A5.19,5.19,0,0,1,51.14,42a4.64,4.64,0,0,1,1.8.35,4.44,4.44,0,0,1,1.48,1,4.49,4.49,0,0,1,1,1.5,4.85,4.85,0,0,1,.34,1.81,3.57,3.57,0,0,1-.06.77H48.91A2.63,2.63,0,0,0,49.79,49a2.56,2.56,0,0,0,1.74.61,3,3,0,0,0,1.23-.26,3.11,3.11,0,0,0,1-.7L55,50.22a3.88,3.88,0,0,1-1.48,1A5.16,5.16,0,0,1,51.43,51.65Zm-.25-7.7a2.05,2.05,0,0,0-1.43.54,2.75,2.75,0,0,0-.8,1.42h4.42a2.56,2.56,0,0,0-.77-1.45A2.05,2.05,0,0,0,51.18,43.95Z"/><path class="cls-1" d="M59.4,44.69a.73.73,0,0,0,.07.29.81.81,0,0,0,.25.3,1.79,1.79,0,0,0,.45.25q.27.1,1.27.4a8.15,8.15,0,0,1,1.44.54,3.43,3.43,0,0,1,.7.48,2.18,2.18,0,0,1,.42.53,2.62,2.62,0,0,1,.25.61,2.69,2.69,0,0,1-.08,1.61,2.43,2.43,0,0,1-.59.92,3.41,3.41,0,0,1-1.18.74,5,5,0,0,1-1.86.31,5.68,5.68,0,0,1-2.24-.42,4.29,4.29,0,0,1-1.61-1.13L58,48.61a3.44,3.44,0,0,0,2.67,1.17,1.67,1.67,0,0,0,1-.26.81.81,0,0,0,.35-.7.79.79,0,0,0-.14-.43,1.25,1.25,0,0,0-.54-.4q-.4-.18-1.45-.52a7,7,0,0,1-1.62-.7,2.63,2.63,0,0,1-.86-.86,2.34,2.34,0,0,1-.3-1.22,2.56,2.56,0,0,1,.15-.83A2.45,2.45,0,0,1,57.8,43a3.27,3.27,0,0,1,1.09-.73,4.33,4.33,0,0,1,1.73-.3,5.53,5.53,0,0,1,2.16.4,3.39,3.39,0,0,1,1.47,1.11l-1.32,1.38a2.81,2.81,0,0,0-2.25-1,1.63,1.63,0,0,0-.93.24A.72.72,0,0,0,59.4,44.69Z"/><path class="cls-1" d="M68.09,44.69a.71.71,0,0,0,.07.29.8.8,0,0,0,.25.3,1.74,1.74,0,0,0,.45.25c.18.07.6.2,1.27.4a8.15,8.15,0,0,1,1.44.54,3.43,3.43,0,0,1,.7.48,2.16,2.16,0,0,1,.42.53,2.54,2.54,0,0,1,.25.61,2.75,2.75,0,0,1,.09.71,2.79,2.79,0,0,1-.16.9,2.44,2.44,0,0,1-.59.92,3.4,3.4,0,0,1-1.18.74,5,5,0,0,1-1.86.31A5.69,5.69,0,0,1,67,51.23a4.28,4.28,0,0,1-1.61-1.13l1.3-1.49a3.44,3.44,0,0,0,2.67,1.17,1.67,1.67,0,0,0,1-.26.82.82,0,0,0,.35-.7.78.78,0,0,0-.14-.43A1.24,1.24,0,0,0,70,48a15.33,15.33,0,0,0-1.45-.52,7,7,0,0,1-1.62-.7,2.63,2.63,0,0,1-.86-.86,2.34,2.34,0,0,1-.3-1.22,2.61,2.61,0,0,1,.15-.83A2.48,2.48,0,0,1,66.5,43a3.27,3.27,0,0,1,1.09-.73,4.33,4.33,0,0,1,1.73-.3,5.53,5.53,0,0,1,2.16.4,3.39,3.39,0,0,1,1.47,1.11l-1.32,1.38a2.81,2.81,0,0,0-2.25-1,1.63,1.63,0,0,0-.93.24A.72.72,0,0,0,68.09,44.69Z"/><path class="cls-1" d="M80.15,41a1.37,1.37,0,0,1-1.36-1.36,1.33,1.33,0,0,1,.4-1,1.29,1.29,0,0,1,1-.41,1.4,1.4,0,0,1,1.38,1.38,1.31,1.31,0,0,1-.4,1A1.33,1.33,0,0,1,80.15,41Zm1.18,1.24v9.15H79V42.23Z"/><path class="cls-1" d="M86.31,46.18v5.2H84V42.23h2.33v.9a2.8,2.8,0,0,1,1.09-.86,3.55,3.55,0,0,1,1.49-.3A3.24,3.24,0,0,1,91.42,43a4.07,4.07,0,0,1,.95,2.83v5.54H90v-5.2a2.1,2.1,0,0,0-.5-1.47,1.74,1.74,0,0,0-1.35-.55,1.76,1.76,0,0,0-1.37.55A2.1,2.1,0,0,0,86.31,46.18Z"/><path class="cls-1" d="M94,44.29V42.23h1.62V39.86h2.33v2.37h2.49v2.06H97.95v3.88q0,1.28,1.05,1.28a1.47,1.47,0,0,0,.59-.13,1.37,1.37,0,0,0,.48-.32l1.05,1.74a3.29,3.29,0,0,1-1.07.66,3.84,3.84,0,0,1-1.43.26,2.88,2.88,0,0,1-2.23-.88,3.58,3.58,0,0,1-.81-2.52v-4Z"/><path class="cls-1" d="M106.56,51.65a5.06,5.06,0,0,1-1.94-.37,4.77,4.77,0,0,1-1.58-1,4.67,4.67,0,0,1-1-1.56,4.85,4.85,0,0,1-.36-1.86,6,6,0,0,1,.11-1.07,4.63,4.63,0,0,1,.43-1.23,4.72,4.72,0,0,1,.78-1.12,4.65,4.65,0,0,1,1.06-.84,4,4,0,0,1,1.19-.47,5.17,5.17,0,0,1,1.05-.12,4.65,4.65,0,0,1,1.81.35,4.44,4.44,0,0,1,2.45,2.49,4.84,4.84,0,0,1,.35,1.81,3.53,3.53,0,0,1-.06.77H104a2.63,2.63,0,0,0,.88,1.59,2.56,2.56,0,0,0,1.74.61,3,3,0,0,0,1.23-.26,3.11,3.11,0,0,0,1-.7l1.21,1.59a3.89,3.89,0,0,1-1.48,1A5.17,5.17,0,0,1,106.56,51.65Zm-.25-7.7a2,2,0,0,0-1.43.54,2.74,2.74,0,0,0-.8,1.42h4.42a2.56,2.56,0,0,0-.77-1.45A2,2,0,0,0,106.32,43.95Z"/><path class="cls-1" d="M112.79,51.38V38.23h2.33V51.38Z"/><path class="cls-1" d="M117.76,51.38V38.23h2.33V51.38Z"/><path class="cls-1" d="M123.88,41a1.37,1.37,0,0,1-1.36-1.36,1.34,1.34,0,0,1,.4-1,1.29,1.29,0,0,1,1-.41,1.4,1.4,0,0,1,1.38,1.38,1.31,1.31,0,0,1-.4,1A1.33,1.33,0,0,1,123.88,41Zm1.18,1.24v9.15h-2.33V42.23Z"/><path class="cls-1" d="M128.94,52.36a4.37,4.37,0,0,0,2.68.9,3.66,3.66,0,0,0,1.15-.2,1.87,1.87,0,0,0,1-.77,2.53,2.53,0,0,0,.38-1.43V50a3.6,3.6,0,0,1-2.79,1.2,4.35,4.35,0,0,1-1.74-.38,3.76,3.76,0,0,1-1.48-1.16,4.56,4.56,0,0,1-.82-1.57,5.78,5.78,0,0,1-.22-1.54,4.88,4.88,0,0,1,.34-1.81,4.55,4.55,0,0,1,.92-1.47,4.15,4.15,0,0,1,1.37-1,4.05,4.05,0,0,1,1.64-.34,3.59,3.59,0,0,1,2.79,1.11v-.9h2.35v8.52a6.16,6.16,0,0,1-.28,1.84,3.63,3.63,0,0,1-.9,1.51,4.19,4.19,0,0,1-1.52,1,5.84,5.84,0,0,1-2,.33,7.63,7.63,0,0,1-2.28-.33,4.78,4.78,0,0,1-1.71-.9ZM131.79,49a2.27,2.27,0,0,0,1.13-.29,2.5,2.5,0,0,0,0-4.32,2.34,2.34,0,0,0-2.45.12,2.2,2.2,0,0,0-.82,1,2.52,2.52,0,0,0,0,2.1,2.19,2.19,0,0,0,.82,1A2.26,2.26,0,0,0,131.79,49Z"/><path class="cls-1" d="M143.43,51.65a5.07,5.07,0,0,1-1.94-.37,4.75,4.75,0,0,1-1.58-1,4.69,4.69,0,0,1-1-1.56,4.87,4.87,0,0,1-.36-1.86,5.78,5.78,0,0,1,.12-1.07,4.6,4.6,0,0,1,.43-1.23,4.77,4.77,0,0,1,.78-1.12,4.65,4.65,0,0,1,1.06-.84,4,4,0,0,1,1.18-.47,5.19,5.19,0,0,1,1.05-.12,4.64,4.64,0,0,1,1.81.35,4.45,4.45,0,0,1,2.46,2.49,4.81,4.81,0,0,1,.34,1.81,3.57,3.57,0,0,1-.06.77h-6.79a2.64,2.64,0,0,0,.88,1.59,2.57,2.57,0,0,0,1.74.61,3,3,0,0,0,1.23-.26,3.11,3.11,0,0,0,1-.7l1.2,1.59a3.88,3.88,0,0,1-1.48,1A5.17,5.17,0,0,1,143.43,51.65Zm-.25-7.7a2,2,0,0,0-1.43.54,2.75,2.75,0,0,0-.8,1.42h4.41a2.56,2.56,0,0,0-.77-1.45A2.05,2.05,0,0,0,143.18,43.95Z"/><path class="cls-1" d="M152,46.18v5.2h-2.33V42.23H152v.9a2.81,2.81,0,0,1,1.09-.86,3.56,3.56,0,0,1,1.49-.3A3.24,3.24,0,0,1,157.11,43a4.07,4.07,0,0,1,.95,2.83v5.54h-2.33v-5.2a2.1,2.1,0,0,0-.51-1.47,1.74,1.74,0,0,0-1.35-.55,1.76,1.76,0,0,0-1.37.55A2.09,2.09,0,0,0,152,46.18Z"/><path class="cls-1" d="M167.05,45a3,3,0,0,0-2.16-.84,2.92,2.92,0,0,0-.86.13,2.26,2.26,0,0,0-.85.5,2.35,2.35,0,0,0-.63.93,3,3,0,0,0-.22,1.08,3.09,3.09,0,0,0,.24,1.13,2.46,2.46,0,0,0,.85,1.07,2.36,2.36,0,0,0,1.45.46,3.05,3.05,0,0,0,2.25-.9l1.19,1.72a4,4,0,0,1-1.5,1,5.29,5.29,0,0,1-2,.38,5.39,5.39,0,0,1-1.08-.12,4.54,4.54,0,0,1-1.22-.46,4.94,4.94,0,0,1-1.19-.93,4.74,4.74,0,0,1-.95-1.47,4.67,4.67,0,0,1-.37-1.85,4.88,4.88,0,0,1,.36-1.86,4.79,4.79,0,0,1,2.56-2.61,4.57,4.57,0,0,1,1.85-.38,5.54,5.54,0,0,1,2.06.37,4.4,4.4,0,0,1,1.55,1Z"/><path class="cls-1" d="M174,51.65a5.07,5.07,0,0,1-1.94-.37,4.77,4.77,0,0,1-1.58-1,4.71,4.71,0,0,1-1-1.56,4.89,4.89,0,0,1-.36-1.86,5.86,5.86,0,0,1,.12-1.07,4.56,4.56,0,0,1,.43-1.23,4.77,4.77,0,0,1,.78-1.12,4.61,4.61,0,0,1,1.06-.84,4,4,0,0,1,1.19-.47,5.17,5.17,0,0,1,1.05-.12,4.64,4.64,0,0,1,1.81.35,4.45,4.45,0,0,1,2.46,2.49,4.83,4.83,0,0,1,.34,1.81,3.48,3.48,0,0,1-.06.77h-6.78a2.64,2.64,0,0,0,.88,1.59,2.56,2.56,0,0,0,1.74.61,3,3,0,0,0,1.23-.26,3.12,3.12,0,0,0,1-.7l1.21,1.59a3.88,3.88,0,0,1-1.48,1A5.18,5.18,0,0,1,174,51.65Zm-.25-7.7a2.05,2.05,0,0,0-1.43.54,2.76,2.76,0,0,0-.8,1.42h4.42a2.57,2.57,0,0,0-.77-1.45A2.05,2.05,0,0,0,173.7,43.95Z"/></g></g></svg>