<svg xmlns="http://www.w3.org/2000/svg" viewBox="0 0 32.47 32.46"><title>logo-chart-only</title><circle cx="2.88" cy="2.88" r="2.88" style="fill:#fff"/><rect y="2.88" width="5.76" height="29.57" style="fill:#fff"/><circle cx="29.59" cy="29.57" r="2.88" style="fill:#fff"/><path d="M2.88,29.5" style="fill:#fff"/><circle cx="22.67" cy="16.1" r="2.25" transform="translate(5.65 38.09) rotate(-87.64)" style="fill:#fff"/><circle cx="15.48" cy="11.47" r="2.25" style="fill:#fff"/><circle cx="11.17" cy="21.39" r="2.25" style="fill:#fff"/><circle cx="27.46" cy="6.38" r="2.25" transform="matrix(0.04, -1, 1, 0.04, 19.94, 33.55)" style="fill:#fff"/><line x1="27.45" y1="6.38" x2="22.67" y2="16.23" style="fill:none"/><rect x="19.59" y="10.42" width="10.95" height="1.75" transform="translate(3.96 28.91) rotate(-64.12)" style="fill:#fff"/><line x1="15.48" y1="11.47" x2="11.17" y2="21.39" style="fill:none"/><rect x="7.92" y="15.56" width="10.82" height="1.75" transform="translate(-7.05 22.11) rotate(-66.53)" style="fill:#fff"/><line x1="22.67" y1="16.23" x2="15.48" y2="11.47" style="fill:none"/><rect x="18.19" y="9.52" width="1.75" height="8.63" transform="translate(-2.99 22.11) rotate(-56.53)" style="fill:#fff"/><rect y="26.7" width="29.57" height="5.76" style="fill:#fff"/></svg>