<svg xmlns="http://www.w3.org/2000/svg" viewBox="0 0 178.29 33.11"><title>Asset 1</title><path d="M45.18,0h5.76V18h2.74l5.81-8.17h7L58.82,20.34l8.35,12.13H60l-6.19-9.2H50.94v9.2H45.18Z" style="fill:#fff"/><path d="M66.61,21.19a11.78,11.78,0,0,1,23.56,0h0a11.78,11.78,0,1,1-23.56,0Zm17.75,0c0-3.63-2.5-6.51-5.95-6.51s-6,2.88-6,6.51,2.55,6.56,6,6.56,5.95-3,5.95-6.6Z" style="fill:#fff"/><path d="M100,32.47H94.22V9.86H100v2.46a6.56,6.56,0,0,1,5.5-3.12,5.76,5.76,0,0,1,3.64,1.14l-2.41,5.47a4.91,4.91,0,0,0-3-1c-2.32,0-3.78,1.93-3.78,5Z" style="fill:#fff"/><path d="M118,32.47h-5.8V9.86H118v2.22a7.67,7.67,0,0,1,6.37-2.88c5.24,0,8.59,3.68,8.59,9.59V32.47H127.2V19.63c0-3.07-1.79-5-4.58-5s-4.62,1.93-4.62,5Z" style="fill:#fff"/><path d="M136.79,21.19c0-6.61,4.91-12,11.42-12a11.24,11.24,0,0,1,11.38,11.1q0,.21,0,.42a10.09,10.09,0,0,1-.14,1.89H142.69a6.32,6.32,0,0,0,6.47,5.4,7.65,7.65,0,0,0,5.52-2.36l3,3.92A11.63,11.63,0,0,1,149,33.1a11.85,11.85,0,0,1-12.16-11.54Q136.79,21.38,136.79,21.19Zm6-2.22H153.7c-.66-3.21-2.69-4.86-5.38-4.86-2.89,0-4.87,2-5.53,4.89Z" style="fill:#fff"/><path d="M169.13,32.47h-5.76V9.86h5.76v2.46a6.57,6.57,0,0,1,5.52-3.12,5.76,5.76,0,0,1,3.64,1.14l-2.41,5.47a4.9,4.9,0,0,0-3-1c-2.31,0-3.78,1.93-3.78,5Z" style="fill:#fff"/><circle cx="2.88" cy="2.89" r="2.88" style="fill:#fff"/><rect y="2.89" width="5.76" height="29.57" style="fill:#fff"/><circle cx="29.59" cy="29.58" r="2.88" style="fill:#fff"/><path d="M2.88,29.51" style="fill:#fff"/><circle cx="22.67" cy="16.11" r="2.25" transform="translate(5.64 38.1) rotate(-87.64)" style="fill:#fff"/><circle cx="15.48" cy="11.48" r="2.25" style="fill:#fff"/><circle cx="11.17" cy="21.4" r="2.25" style="fill:#fff"/><circle cx="27.46" cy="6.39" r="2.25" transform="matrix(0.04, -1, 1, 0.04, 19.93, 33.56)" style="fill:#fff"/><line x1="27.45" y1="6.39" x2="22.67" y2="16.24" style="fill:none"/><rect x="19.59" y="10.43" width="10.95" height="1.75" transform="translate(3.95 28.92) rotate(-64.12)" style="fill:#fff"/><line x1="15.48" y1="11.48" x2="11.17" y2="21.4" style="fill:none"/><rect x="7.92" y="15.57" width="10.82" height="1.75" transform="translate(-7.06 22.12) rotate(-66.53)" style="fill:#fff"/><line x1="22.67" y1="16.24" x2="15.48" y2="11.48" style="fill:none"/><rect x="18.19" y="9.53" width="1.75" height="8.63" transform="translate(-3 22.12) rotate(-56.53)" style="fill:#fff"/><rect y="26.71" width="29.57" height="5.76" style="fill:#fff"/></svg>