<svg xmlns="http://www.w3.org/2000/svg" viewBox="0 0 512 512"><title>notfound</title><path d="M256,512A256.07,256.07,0,0,1,0,256,256.07,256.07,0,0,1,256,0,256.07,256.07,0,0,1,512,256,256.07,256.07,0,0,1,256,512Zm0-490.9A233.36,233.36,0,0,0,89.9,89.9c-91.6,91.6-91.6,240.6,0,332.2a234.9,234.9,0,0,0,332.2,0c91.6-91.6,91.6-240.6,0-332.2A233.36,233.36,0,0,0,256,21.1Z" style="fill:#d8d8d8"/><rect x="245.38" y="10.55" width="21.1" height="490.9" transform="translate(-106.06 255.95) rotate(-45)" style="fill:#d8d8d8"/></svg>