<?xml version="1.0" standalone="no"?>
<!DOCTYPE svg PUBLIC "-//W3C//DTD SVG 1.1//EN" "http://www.w3.org/Graphics/SVG/1.1/DTD/svg11.dtd" >
<svg xmlns="http://www.w3.org/2000/svg" xmlns:xlink="http://www.w3.org/1999/xlink" version="1.1">
<metadata></metadata>
<defs>
<font id="archivosemibold_italic" horiz-adv-x="1212" >
<font-face units-per-em="2048" ascent="1638" descent="-410" />
<missing-glyph horiz-adv-x="569" />
<glyph horiz-adv-x="0" />
<glyph unicode="&#xd;" horiz-adv-x="569" />
<glyph horiz-adv-x="0" />
<glyph horiz-adv-x="0" />
<glyph unicode=" "  horiz-adv-x="569" />
<glyph unicode="&#x09;" horiz-adv-x="569" />
<glyph unicode="&#xa0;" horiz-adv-x="569" />
<glyph unicode="!" horiz-adv-x="643" d="M74 0l45 260h256l-47 -260h-254zM188 385l117 1020h285l-248 -1020h-154z" />
<glyph unicode="&#x22;" horiz-adv-x="886" d="M178 834v270l53 301h271l-53 -301l-95 -270h-176zM586 834v270l53 301h270l-53 -301l-92 -270h-178z" />
<glyph unicode="#" horiz-adv-x="1138" d="M18 346v197h183l57 276h-145v197h188l88 414h193l-88 -414h270l88 414h192l-88 -414h158v-197h-199l-57 -276h162v-197h-203l-76 -371h-194l76 371h-269l-78 -371h-192l76 371h-142zM395 543h269l57 276h-268z" />
<glyph unicode="$" horiz-adv-x="1138" d="M53 418q0 45 15 84h239q-8 -16 -8 -39q0 -57 43 -89t113 -40l51 282q-109 29 -178.5 57.5t-118.5 84t-49 143.5q0 166 130 262.5t331 100.5l38 217h105l-39 -221q156 -16 247 -82t91 -164q0 -27 -5 -52.5t-9 -35.5h-240q4 10 4 30q0 43 -31.5 72t-91.5 37l-45 -248 q113 -29 185.5 -57.5t125 -86t52.5 -149.5q0 -197 -137.5 -291t-346.5 -96l-41 -237h-104l43 239q-182 14 -275.5 89t-93.5 190zM416 950q0 -39 33.5 -63.5t97.5 -42.5l39 223q-84 -8 -127 -41t-43 -76zM559 332q84 8 138.5 41t54.5 92q0 45 -39 73.5t-109 51.5z" />
<glyph unicode="%" horiz-adv-x="1820" d="M150 950q0 57 12 125q31 182 122 268.5t246 86.5q152 0 229 -62.5t77 -202.5q0 -57 -9 -112q-31 -186 -122 -274.5t-246 -88.5q-152 0 -230.5 61.5t-78.5 198.5zM174 0l1276 1405h201l-1278 -1405h-199zM346 971q0 -66 25.5 -98.5t85.5 -32.5q75 0 114 52t58 148 q12 61 12 109q0 66 -26.5 98.5t-86.5 32.5q-74 0 -112.5 -51t-57.5 -146q-12 -63 -12 -112zM979 236q0 51 14 133q31 180 122 263t243 83q154 0 230.5 -62.5t76.5 -201.5q0 -74 -12 -127q-33 -180 -122 -264.5t-243 -84.5q-153 0 -231 60.5t-78 200.5zM1176 256 q0 -66 25.5 -98.5t84.5 -32.5q76 0 115 52t57 149q12 61 12 108q0 66 -26.5 98.5t-85.5 32.5q-76 0 -115 -52t-57 -148q-10 -63 -10 -109z" />
<glyph unicode="&#x26;" horiz-adv-x="1439" d="M47 319q0 162 97.5 266.5t244.5 135.5l2 8q-92 43 -141 105.5t-49 156.5q0 137 76.5 236.5t210 151t298.5 51.5q227 0 364.5 -88.5t137.5 -235.5q0 -33 -14 -113h-246q6 47 6 72q0 162 -248 162q-152 0 -246 -64.5t-94 -183.5q0 -78 61.5 -122t154.5 -44h135l-35 -201 h-129q-137 0 -231.5 -56t-94.5 -198q0 -180 260 -180q158 0 247 58.5t110 169.5l71 407h432l-32 -201h-189l-37 -200q-37 -207 -188.5 -322t-405.5 -115q-245 0 -386.5 90.5t-141.5 253.5z" />
<glyph unicode="'" horiz-adv-x="454" d="M178 834v270l53 301h271l-53 -301l-95 -270h-176z" />
<glyph unicode="(" horiz-adv-x="681" d="M88 369q0 313 138.5 610t387.5 528h166q-209 -258 -335 -565t-126 -604q0 -176 37 -348t103 -312h-160q-104 148 -157.5 324t-53.5 367z" />
<glyph unicode=")" horiz-adv-x="681" d="M-141 -322q207 261 332.5 570t125.5 604q0 176 -36.5 346t-102.5 309h160q104 -147 157.5 -323t53.5 -367q0 -311 -139.5 -608t-386.5 -531h-164z" />
<glyph unicode="*" horiz-adv-x="796" d="M123 979l248 94l-213 96l108 144l170 -152l8 244h170l-77 -242l223 150l59 -144l-246 -96l211 -94l-108 -145l-170 151l-8 -244h-170l78 244l-224 -151z" />
<glyph unicode="+" horiz-adv-x="1196" d="M88 422l37 201h381l74 424h204l-73 -424h381l-37 -201h-381l-76 -422h-205l76 422h-381z" />
<glyph unicode="," horiz-adv-x="569" d="M-8 -303l153 303h-100l47 260h254l-41 -237l-180 -326h-133z" />
<glyph unicode="-" horiz-adv-x="681" d="M51 438l39 230h514l-39 -230h-514z" />
<glyph unicode="." horiz-adv-x="569" d="M45 0l47 260h254l-47 -260h-254z" />
<glyph unicode="/" horiz-adv-x="569" d="M-139 -100l671 1605h177l-672 -1605h-176z" />
<glyph unicode="0" horiz-adv-x="1138" d="M59 399q0 125 31 303q45 279 126 437.5t191.5 224.5t264.5 66q209 0 316.5 -96.5t107.5 -332.5q0 -123 -31 -299q-47 -276 -128 -436t-191.5 -225.5t-262.5 -65.5q-209 0 -316.5 95.5t-107.5 328.5zM305 397q0 -113 40 -167t132 -54q98 0 158.5 52.5t97.5 153.5t70 273 q45 254 45 353q0 113 -40 167t-132 54q-96 0 -157.5 -52.5t-98.5 -153.5t-68 -273q-47 -254 -47 -353z" />
<glyph unicode="1" horiz-adv-x="1138" d="M57 0l35 201h342l158 893h-344l26 151q96 10 239.5 55.5t258.5 104.5h119l-211 -1204h313l-37 -201h-899z" />
<glyph unicode="2" horiz-adv-x="1138" d="M-33 0l13 70q18 113 88.5 208t163 167.5t235.5 168.5q137 92 216 154.5t132 140.5t53 168q0 61 -45 104.5t-139 43.5q-119 0 -185.5 -55.5t-88.5 -163.5l-17 -84h-243q18 264 172.5 386t375.5 122q225 0 323.5 -98.5t98.5 -248.5q0 -147 -75.5 -266t-180 -202 t-266.5 -185q-145 -94 -199 -139q-45 -39 -65 -68h647l-39 -223h-975z" />
<glyph unicode="3" horiz-adv-x="1138" d="M18 313q0 57 13 115h248q-10 -59 -11 -88q0 -80 55.5 -122t157.5 -42q125 0 207 68.5t82 204.5q0 166 -227 165h-119l35 201h125q109 0 188.5 68.5t79.5 193.5q0 76 -49 114t-133 38q-106 0 -175 -55.5t-81 -147.5l-4 -33h-250l8 43q16 119 88 208t181.5 137.5 t238.5 48.5q201 0 317.5 -86.5t116.5 -243.5q0 -256 -289 -371l-2 -8q94 -33 148.5 -105.5t54.5 -183.5q0 -137 -70.5 -240.5t-192.5 -160t-267 -56.5q-232 0 -353 90.5t-121 247.5z" />
<glyph unicode="4" horiz-adv-x="1138" d="M-18 315l32 203q301 385 523 912h274q-70 -168 -180.5 -356.5t-219 -341t-167.5 -216.5h389l61 350q96 141 193 355h117l-125 -705h176l-35 -201h-174l-58 -315h-245l57 315h-618z" />
<glyph unicode="5" horiz-adv-x="1138" d="M23 340q0 49 8 96h254q-6 -33 -6 -63q0 -92 52 -144.5t142 -52.5q78 0 146.5 38t110.5 117t42 193q0 94 -49 143.5t-135 49.5q-143 0 -250 -121l-225 31l192 778h809l-39 -223h-594l-86 -351q121 82 273 82q166 0 263 -91t97 -271q0 -176 -72.5 -306t-196.5 -200 t-278 -70q-215 0 -336.5 96.5t-121.5 268.5z" />
<glyph unicode="6" horiz-adv-x="1138" d="M51 416q0 109 25 252q47 283 131 450.5t200.5 239.5t276.5 72q203 0 302 -89.5t99 -240.5q0 -47 -10 -109h-246q6 43 7 76q0 162 -160 162q-100 0 -162.5 -53.5t-99.5 -148.5t-66 -249q141 123 309 123q190 0 284.5 -97t94.5 -267q0 -166 -71.5 -294t-193.5 -198 t-265 -70q-223 0 -339 102.5t-116 338.5zM299 377q0 -92 49 -146.5t146 -54.5q131 0 207.5 96.5t76.5 235.5q0 92 -46 144.5t-142 52.5q-131 0 -211 -93.5t-80 -234.5z" />
<glyph unicode="7" horiz-adv-x="1138" d="M156 0q57 319 248.5 626.5t443.5 555.5h-686l39 223h1005l-28 -160q-266 -266 -460 -549.5t-253 -593.5l-16 -102h-293z" />
<glyph unicode="8" horiz-adv-x="1138" d="M10 307q0 143 75 251t218 163q-70 41 -105.5 106.5t-35.5 147.5q0 121 63.5 225.5t179 167t267.5 62.5q209 0 317.5 -93.5t108.5 -242.5q0 -119 -65.5 -218.5t-188.5 -154.5q176 -82 176 -277q0 -129 -61.5 -235.5t-183.5 -170t-298 -63.5q-237 0 -352 90.5t-115 241.5z M268 344q0 -80 53.5 -125t155.5 -45q121 0 205 72.5t84 199.5q0 84 -53.5 128t-157.5 44q-129 0 -208 -73.5t-79 -200.5zM410 973q0 -76 46 -116t134 -40q110 0 183 67.5t73 188.5q0 76 -47 117t-135 41q-113 0 -183.5 -69.5t-70.5 -188.5z" />
<glyph unicode="9" horiz-adv-x="1138" d="M57 305q0 47 11 109h247q-8 -57 -8 -76q0 -162 160 -162q100 0 162.5 53.5t99.5 148.5t66 249q-141 -123 -310 -123q-190 0 -284.5 97t-94.5 267q0 166 72 294t194 198t265 70q223 0 339 -102.5t116 -338.5q0 -106 -25 -252q-45 -283 -129 -450.5t-202 -239.5t-277 -72 q-203 0 -302.5 89.5t-99.5 240.5zM367 897q0 -92 45 -144.5t141 -52.5q131 0 211 93.5t80 234.5q0 92 -49.5 146.5t-145.5 54.5q-129 0 -205.5 -96.5t-76.5 -235.5z" />
<glyph unicode=":" horiz-adv-x="643" d="M78 0l45 260h256l-45 -260h-256zM223 817l45 260h256l-45 -260h-256z" />
<glyph unicode=";" horiz-adv-x="643" d="M23 -303l155 303h-102l47 260h256l-41 -237l-182 -326h-133zM221 817l47 260h256l-47 -260h-256z" />
<glyph unicode="&#x3c;" horiz-adv-x="1196" d="M80 408l45 245l1040 404l-39 -230l-831 -303l723 -305l-37 -213z" />
<glyph unicode="=" horiz-adv-x="1196" d="M49 203l35 198h967l-35 -198h-967zM125 637l35 201h966l-34 -201h-967z" />
<glyph unicode="&#x3e;" horiz-adv-x="1196" d="M14 6l39 230l834 303l-725 303l39 215l899 -404l-43 -245z" />
<glyph unicode="?" d="M150 940q2 143 71.5 254t194.5 173.5t284 62.5q209 0 324 -85t115 -243q0 -104 -40 -180t-95.5 -125t-147.5 -113q-98 -70 -145 -115t-58 -110l-12 -68h-229l16 98q14 86 54 151t88 106.5t122 95.5q92 68 133 113.5t41 117.5q0 139 -184 139q-102 0 -165.5 -46 t-90.5 -108.5t-27 -117.5h-249zM338 0l45 260h256l-45 -260h-256z" />
<glyph unicode="@" horiz-adv-x="2025" d="M76 420q0 512 272.5 761t781.5 249q261 0 442 -79t274 -225.5t93 -349.5q0 -176 -61 -344t-193.5 -277.5t-332.5 -109.5q-84 0 -144.5 33t-60.5 106v21h-10q-49 -78 -129 -120t-168 -42q-147 0 -232.5 97.5t-85.5 279.5q0 162 52.5 310.5t154.5 242.5t244 94 q100 0 165.5 -34t106.5 -101h12l56 112h188l-100 -552q-39 -205 -39 -213q0 -27 17.5 -39.5t58.5 -12.5q102 0 179 78t119 204t42 267q0 238 -168 374t-480 136q-424 0 -656 -213t-232 -639q0 -285 150.5 -444.5t506.5 -159.5q96 0 179 8t132.5 17.5t61.5 11.5l-23 -152 q-188 -29 -350 -28q-440 0 -631.5 194.5t-191.5 538.5zM756 432q0 -96 40 -145t124 -49q96 0 160.5 75.5t93 179t28.5 185.5q0 201 -170 201q-98 0 -159.5 -69t-89 -171t-27.5 -207z" />
<glyph unicode="A" horiz-adv-x="1439" d="M-100 0l792 1405h330l301 -1405h-270l-62 305h-647l-168 -305h-276zM467 526h481l-71 367q-14 70 -39 231q-6 25 -7.5 37.5t-3.5 18.5h-10l-26 -52q-84 -162 -123 -233z" />
<glyph unicode="B" horiz-adv-x="1439" d="M25 0l247 1405h658q207 0 323.5 -81t116.5 -239q0 -127 -84 -224t-209 -124v-8q96 -31 155.5 -109.5t59.5 -193.5q0 -141 -69.5 -237.5t-184 -142.5t-252.5 -46h-761zM328 223h450q109 0 178.5 54.5t69.5 162.5q0 82 -49 126t-148 44h-434zM434 829h428q111 0 172.5 58.5 t61.5 144.5q0 76 -46 113t-122 37h-432z" />
<glyph unicode="C" horiz-adv-x="1478" d="M72 520q0 233 76.5 430t226.5 320q96 78 223 119t274 41q256 0 410 -110t154 -319q0 -47 -11 -114h-268q6 37 6 71q0 123 -77.5 186.5t-215.5 63.5q-205 0 -332.5 -121.5t-170.5 -336.5q-27 -131 -27 -220q0 -170 81 -251.5t247 -81.5q172 0 288.5 82.5t145.5 234.5h258 q-45 -264 -235.5 -401.5t-458.5 -137.5q-594 0 -594 545z" />
<glyph unicode="D" horiz-adv-x="1478" d="M25 0l247 1405h533q293 0 449.5 -137.5t156.5 -417.5q0 -190 -57.5 -353t-167.5 -280q-102 -104 -244.5 -160.5t-314.5 -56.5h-602zM326 223h286q203 0 337 116t171 327q20 115 21 178q0 168 -89 253t-259 85h-299z" />
<glyph unicode="E" horiz-adv-x="1366" d="M25 0l247 1405h1096l-39 -223h-835l-62 -353h746l-39 -223h-746l-67 -383h848l-41 -223h-1108z" />
<glyph unicode="F" horiz-adv-x="1251" d="M25 0l247 1405h1010l-39 -223h-749l-68 -381h674l-39 -223h-672l-102 -578h-262z" />
<glyph unicode="G" horiz-adv-x="1593" d="M72 524q0 213 66.5 394.5t195.5 302.5q106 102 251.5 155.5t323.5 53.5q266 0 434 -105.5t168 -306.5q0 -49 -8 -92h-270q4 16 4 47q0 113 -89 174t-230 61q-225 0 -366.5 -118.5t-184.5 -337.5q-25 -131 -25 -220q0 -172 85 -253.5t255 -81.5q129 0 236.5 43t174 119.5 t78.5 172.5v3h-450l39 217h713l-134 -752h-184v162q-106 -94 -224 -140.5t-269 -46.5q-287 0 -438.5 136.5t-151.5 412.5z" />
<glyph unicode="H" horiz-adv-x="1478" d="M25 0l247 1405h263l-103 -574h666l100 574h262l-248 -1405h-262l109 606h-666l-106 -606h-262z" />
<glyph unicode="I" horiz-adv-x="569" d="M35 0l248 1405h260l-248 -1405h-260z" />
<glyph unicode="J" horiz-adv-x="1099" d="M-8 291q0 78 22 172h260q-20 -76 -20 -123q0 -74 37 -108.5t119 -34.5q98 0 158.5 51t76.5 151l178 1006h264l-178 -1006q-39 -213 -163.5 -318.5t-329.5 -105.5q-207 0 -315.5 80t-108.5 236z" />
<glyph unicode="K" horiz-adv-x="1439" d="M25 0l247 1405h263l-125 -700l782 700h344l-643 -571l405 -834h-292l-314 657l-338 -270l-67 -387h-262z" />
<glyph unicode="L" d="M25 0l247 1405h263l-209 -1178h757l-41 -227h-1017z" />
<glyph unicode="M" horiz-adv-x="1705" d="M25 0l247 1405h387l101 -838q6 -57 9 -153.5t3 -126.5h10q10 33 46 132t59 148l395 838h406l-248 -1405h-262l161 907q10 59 26.5 134t23.5 104h-13q-35 -90 -67 -158l-461 -987h-250l-109 987l-4 53l-8 105h-10q-4 -29 -13.5 -103.5t-19.5 -134.5l-160 -907h-249z" />
<glyph unicode="N" horiz-adv-x="1478" d="M25 0l247 1405h250l453 -860q16 -31 31.5 -65t23.5 -52l10 2q14 104 19 121l149 854h252l-248 -1405h-245l-451 862q-20 37 -37.5 76t-21.5 47h-11l-8 -49l-12 -80l-150 -856h-251z" />
<glyph unicode="O" horiz-adv-x="1593" d="M72 526q0 100 14 187q53 340 263 528.5t544 188.5q301 0 467 -140.5t166 -406.5q0 -78 -15 -183q-51 -342 -263 -534q-210 -190 -541 -189h-7h-8q-294 1 -456 139q-164 140 -164 410zM340 541q0 -164 92 -253t266 -89q224 0 360 126t177 363q20 111 20 180q0 162 -93 251 t-267 89q-223 0 -358.5 -126t-176.5 -363q-20 -125 -20 -178z" />
<glyph unicode="P" horiz-adv-x="1366" d="M25 0l247 1405h588q477 0 477 -383q0 -160 -68.5 -277.5t-194.5 -180t-292 -62.5h-407l-88 -502h-262zM414 725h366q129 0 209 70.5t80 197.5q0 188 -209 189h-366z" />
<glyph unicode="Q" horiz-adv-x="1593" d="M72 520q0 225 74.5 413.5t215.5 309.5q100 90 234.5 138.5t294.5 48.5q305 0 470 -137.5t165 -409.5q0 -301 -133 -528.5t-371 -321.5l260 -299h-319l-209 246q-25 -4 -52 -5q-303 0 -466.5 136.5t-163.5 408.5zM342 543q0 -172 88 -259t258 -87q213 0 352.5 117.5 t186.5 330.5q28 131 28 211v6q0 172 -89 259t-261 87q-213 0 -353 -120.5t-185 -337.5q-25 -129 -25 -207z" />
<glyph unicode="R" horiz-adv-x="1478" d="M25 0l247 1405h668q233 0 350 -99.5t117 -277.5q0 -168 -91 -284.5t-237 -163.5l197 -580h-279l-172 543h-442l-96 -543h-262zM420 764h459q119 0 189.5 66.5t70.5 179.5q0 82 -51.5 127t-149.5 45h-444z" />
<glyph unicode="S" horiz-adv-x="1366" d="M35 334q0 55 16 117h264q-12 -49 -12 -74q0 -86 78 -133t217 -47q178 0 267 54t89 148q0 57 -42 96.5t-105.5 64t-171.5 56.5q-145 43 -235.5 82t-154 112t-63.5 187q0 141 79 238.5t211 146t292 48.5q242 0 389 -83t147 -247q0 -43 -10 -103h-258q6 29 6 52 q0 76 -69.5 117.5t-190.5 41.5q-150 0 -237.5 -46t-87.5 -128q0 -72 74.5 -111.5t230.5 -84.5q150 -43 243 -83t160.5 -115t67.5 -191q0 -164 -86 -270.5t-223.5 -155t-298.5 -48.5q-261 0 -423.5 91.5t-162.5 267.5z" />
<glyph unicode="T" horiz-adv-x="1251" d="M131 1180l41 225h1163l-39 -225h-452l-207 -1180h-262l209 1180h-453z" />
<glyph unicode="U" horiz-adv-x="1478" d="M115 408q0 61 12 129l152 868h262l-154 -873q-10 -51 -10 -88q0 -121 71.5 -184t210.5 -63q158 0 259.5 84t130.5 245l155 879h262l-155 -885q-98 -545 -652 -545q-262 0 -403 111t-141 322z" />
<glyph unicode="V" horiz-adv-x="1366" d="M150 1405h268l151 -862q8 -41 15.5 -87t13.5 -85l12 -78h11l32 65q18 37 43 86.5t49 94.5l455 866h281l-762 -1405h-305z" />
<glyph unicode="W" horiz-adv-x="1933" d="M139 1405h250l76 -909q4 -35 6 -107t2 -96h10q8 25 32 99.5t36 103.5l371 909h331l54 -909q4 -57 4.5 -119t0.5 -84h9q8 23 32.5 93.5t41.5 109.5l389 909h264l-631 -1405h-311l-57 926q-4 66 -5.5 126t-1.5 83h-8q-6 -23 -29.5 -95.5t-39.5 -113.5l-390 -926h-311z" />
<glyph unicode="X" horiz-adv-x="1366" d="M-119 0l654 745l-363 660h297l242 -459h10l395 459h320l-596 -678l397 -727h-297l-274 522h-13l-452 -522h-320z" />
<glyph unicode="Y" horiz-adv-x="1366" d="M137 1405h273l284 -600h11l485 600h291l-686 -834l-101 -571h-262l100 571z" />
<glyph unicode="Z" horiz-adv-x="1251" d="M-78 0l23 125l921 1057h-684l39 223h1092l-23 -127l-921 -1055h755l-41 -223h-1161z" />
<glyph unicode="[" horiz-adv-x="643" d="M-29 -330l320 1835h422l-29 -174h-211l-264 -1487h211l-29 -174h-420z" />
<glyph unicode="\" horiz-adv-x="569" d="M150 1505h176l104 -1605h-180z" />
<glyph unicode="]" horiz-adv-x="643" d="M-111 -330l29 174h209l264 1487h-211l29 174h422l-322 -1835h-420z" />
<glyph unicode="^" horiz-adv-x="960" d="M39 602l459 803h219l180 -803h-205l-117 586l-321 -586h-215z" />
<glyph unicode="_" horiz-adv-x="1138" d="M-152 -303l27 170h1139l-29 -170h-1137z" />
<glyph unicode="`" horiz-adv-x="681" d="M176 1475l2 6h240l119 -271h-187z" />
<glyph unicode="a" horiz-adv-x="1185" d="M37 389q0 178 57.5 342t169 267.5t266.5 103.5q111 0 183.5 -37t117.5 -113h13l63 125h203q-27 -150 -48.5 -269.5t-37.5 -213.5q-63 -342 -63 -363q0 -55 59 -55h67l-30 -168q-61 -33 -156 -33q-80 0 -128 47.5t-48 129.5h-10q-55 -84 -143.5 -130.5t-186.5 -46.5 q-162 0 -255 106.5t-93 307.5zM293 403q0 -109 43 -163t135 -54q109 0 178.5 80t101 192.5t31.5 215.5q0 223 -188 223q-106 0 -174 -76t-97.5 -188.5t-29.5 -229.5z" />
<glyph unicode="b" d="M27 0l260 1481h245l-92 -529h13q117 150 317 150q168 0 264 -103.5t96 -308.5q0 -180 -57 -344t-175 -267.5t-288 -103.5q-114 0 -198 42t-123 126h-15l-45 -143h-202zM354 412q0 -231 199 -232q115 0 187.5 76t104.5 188.5t32 231.5q0 111 -48.5 163t-150.5 52 q-111 0 -183.5 -76t-106.5 -186.5t-34 -216.5z" />
<glyph unicode="c" horiz-adv-x="1099" d="M37 387q0 190 58.5 352t185.5 262.5t321 100.5q209 0 321.5 -88t112.5 -250q0 -43 -6 -90h-250q4 37 4 55q0 174 -176 174q-238 0 -301 -338q-16 -96 -16 -162q0 -117 49 -173t154 -56q106 0 169.5 62.5t81.5 166.5h238q-33 -205 -157 -316.5t-328 -111.5 q-234 0 -347.5 100.5t-113.5 311.5z" />
<glyph unicode="d" d="M39 401q0 174 58.5 336t173 263.5t274.5 101.5q117 0 193.5 -38t125.5 -112h13l92 529h245l-260 -1481h-198v143h-13q-61 -80 -145 -124t-178 -44q-184 0 -282.5 104.5t-98.5 321.5zM295 410q0 -115 48 -169.5t151 -54.5q110 0 183 72t106.5 183.5t33.5 232.5 q0 223 -205 223q-168 0 -242.5 -148.5t-74.5 -338.5z" />
<glyph unicode="e" horiz-adv-x="1138" d="M37 389q0 193 60.5 354.5t190.5 260t330 98.5q438 0 439 -391q0 -82 -17 -158l-12 -74h-735q-6 -33 -6 -88q0 -113 54 -167t171 -54q104 0 171 51t85 156h242q-31 -199 -163 -300.5t-327 -101.5q-244 0 -363.5 101.5t-119.5 312.5zM328 653h477q6 37 6 72q0 94 -49 138 t-137 44q-227 0 -297 -254z" />
<glyph unicode="f" horiz-adv-x="643" d="M-203 -342l31 170h104q90 0 107 92l168 957h-156l37 200h156l22 140q23 123 94.5 201.5t212.5 78.5q47 0 97.5 -9t83.5 -22l-31 -170h-105q-90 0 -106 -92l-23 -127h197l-37 -200h-196l-170 -969q-20 -123 -92 -202t-216 -79q-45 0 -96 9.5t-82 21.5z" />
<glyph unicode="g" d="M-4 -51h240q6 -63 54 -92t140 -29q244 0 299 293l10 57h-12q-121 -147 -319 -147q-164 0 -263.5 98t-99.5 295q0 176 59.5 331.5t176 251t280.5 95.5q113 0 196 -42t124 -126h14l45 143h203l-168 -948q-45 -254 -178 -378t-373 -124q-197 0 -311.5 77t-116.5 224v21z M299 436q0 -100 47 -147t152 -47q110 0 182 66.5t105.5 168t33.5 207.5q0 207 -198 207q-168 0 -245 -136.5t-77 -318.5z" />
<glyph unicode="h" d="M33 0l260 1481h246l-93 -527h13q61 66 149 107t183 41q141 0 226 -66.5t85 -208.5q0 -55 -19 -161l-118 -666h-246l115 651q12 74 12 101q0 74 -38 105.5t-108 31.5q-117 0 -205.5 -82t-113.5 -227l-102 -580h-246z" />
<glyph unicode="i" horiz-adv-x="530" d="M27 0l190 1077h246l-191 -1077h-245zM246 1245l41 236h245l-40 -236h-246z" />
<glyph unicode="j" horiz-adv-x="530" d="M-223 -342l28 168h101q90 0 106 92l205 1159h246l-207 -1175q-49 -274 -297 -275q-45 0 -98.5 9.5t-83.5 21.5zM246 1245l41 236h245l-40 -236h-246z" />
<glyph unicode="k" horiz-adv-x="1099" d="M27 0l260 1481h245l-151 -867l473 463h289l-434 -424l264 -653h-266l-175 481l-202 -159l-58 -322h-245z" />
<glyph unicode="l" horiz-adv-x="530" d="M27 0l260 1481h245l-260 -1481h-245z" />
<glyph unicode="m" horiz-adv-x="1781" d="M33 0l190 1077h199v-145h14q141 170 330 170q102 0 171 -42t93 -128h14q68 78 156 124t186 46q287 0 287 -271q0 -57 -16 -143l-123 -688h-246l117 664q12 70 12 92q0 133 -135 133q-96 0 -172 -82t-98 -211l-105 -596h-245l116 664q10 57 10 92q0 133 -133 133 q-96 0 -172.5 -82t-99.5 -211l-104 -596h-246z" />
<glyph unicode="n" d="M33 0l190 1077h199v-145h14q61 74 156.5 122t198.5 48q141 0 226 -66.5t85 -208.5q0 -55 -19 -161l-118 -666h-246l115 651q12 74 12 101q0 74 -38 105.5t-108 31.5q-117 0 -205.5 -82t-113.5 -227l-102 -580h-246z" />
<glyph unicode="o" d="M47 416q0 90 14 168q41 254 185.5 386t398.5 132q139 0 245.5 -54.5t166 -154.5t61.5 -229q0 -84 -12 -170q-86 -518 -588 -519q-137 0 -243.5 55.5t-166 155t-61.5 230.5zM289 410q2 -109 65.5 -170.5t180.5 -61.5q147 0 228 86t105 273q10 59 11 131q-2 111 -68 172 t-184 61q-145 0 -225 -87t-105 -273q-8 -63 -8 -131z" />
<glyph unicode="p" d="M-41 -354l252 1431h199v-143h14q61 80 145 124t179 44q184 0 282 -104.5t98 -321.5q0 -174 -59 -336t-174 -263.5t-274 -101.5q-115 0 -193 38t-127 112h-12l-84 -479h-246zM350 403q0 -223 203 -223q168 0 243.5 148.5t75.5 339.5q0 115 -48 169t-150 54 q-111 0 -183.5 -71.5t-106.5 -183.5t-34 -233z" />
<glyph unicode="q" d="M39 387q0 180 57.5 344t175 267.5t287.5 103.5q115 0 199 -42t123 -126h14l45 143h203l-252 -1431h-246l84 479h-12q-117 -150 -318 -150q-168 0 -264 103.5t-96 308.5zM293 401q0 -111 48 -163t151 -52q110 0 183 76t106.5 186.5t33.5 217.5q0 231 -199 231 q-115 0 -187.5 -76t-104 -188.5t-31.5 -231.5z" />
<glyph unicode="r" horiz-adv-x="757" d="M33 0l190 1077h199l-4 -170h14q49 90 110.5 142.5t157.5 52.5q41 0 74 -8.5t33 -10.5l-39 -231h-78q-262 0 -315 -299l-96 -553h-246z" />
<glyph unicode="s" horiz-adv-x="1099" d="M12 256q0 29 6.5 53.5t8.5 30.5h239q-8 -18 -8 -39q0 -70 59.5 -101.5t151.5 -31.5q98 0 170 34t72 101q0 59 -57.5 88t-182.5 64q-111 29 -181.5 57.5t-120.5 83.5t-50 143q0 170 135 266.5t344 96.5q193 0 308.5 -67.5t115.5 -182.5q0 -27 -5 -52.5t-9 -35.5h-240 q4 12 4 31q0 53 -45 82.5t-133 29.5q-106 0 -162.5 -34.5t-56.5 -84.5q0 -51 52 -75.5t171 -55.5q115 -29 188.5 -56.5t127 -85.5t53.5 -153q0 -199 -142.5 -293t-357.5 -94q-221 0 -338 77t-117 204z" />
<glyph unicode="t" horiz-adv-x="643" d="M63 877l35 200h129l54 301h262l-70 -301h186l-36 -200h-185l-100 -574q-10 -41 -10 -63q0 -63 73 -64h99l-29 -168q-33 -12 -79 -22.5t-81 -10.5q-125 0 -180 55.5t-55 145.5q0 39 24 168l93 533h-130z" />
<glyph unicode="u" d="M72 250q0 45 9 99t11 63l119 665h246l-115 -651q-12 -74 -12 -100q0 -74 38 -106t107 -32q117 0 206 82t114 228l102 579h246l-191 -1077h-198v145h-15q-61 -74 -156.5 -122t-197.5 -48q-141 0 -227 67t-86 208z" />
<glyph unicode="v" horiz-adv-x="1099" d="M98 1077h248l88 -489q12 -59 26.5 -175t18.5 -153h10q14 37 62.5 148.5t83.5 179.5l260 489h258l-590 -1077h-256z" />
<glyph unicode="w" horiz-adv-x="1554" d="M88 1077h244l45 -499q6 -76 10 -166t6 -125h8q12 35 45 123t64 165l209 502h266l39 -504q6 -80 9 -167t5 -119h11q10 31 47 128t63 158l219 504h246l-512 -1077h-258l-37 559q-4 55 -5 131t-1 101h-10q-8 -23 -35 -99t-51 -131l-236 -561h-260z" />
<glyph unicode="x" horiz-adv-x="1099" d="M-104 0l493 559l-278 518h272l170 -340h12l285 340h285l-467 -526l297 -551h-275l-184 369h-12l-314 -369h-284z" />
<glyph unicode="y" horiz-adv-x="1099" d="M-66 -350l31 170h111q80 0 141.5 42t110.5 138l-230 1077h244l111 -518q12 -59 27.5 -162.5t19.5 -136.5h10q12 31 54 131.5t77 167.5l256 518h256l-530 -1022q-106 -203 -225 -315.5t-285 -112.5q-88 0 -131 11.5t-48 11.5z" />
<glyph unicode="z" horiz-adv-x="1024" d="M-51 0l20 115l664 762h-498l37 200h872l-20 -112l-668 -764h557l-34 -201h-930z" />
<glyph unicode="{" horiz-adv-x="757" d="M39 498l35 184q76 0 135 29.5t72 93.5l71 397q23 127 78 191.5t145.5 88t239.5 23.5l-24 -143q-80 0 -142.5 -29.5t-77.5 -103.5q-10 -57 -55 -256l-33 -152q-25 -117 -82 -169t-190 -52l-2 -20q106 0 152.5 -42t46.5 -126q0 -45 -39 -301q-25 -180 -25 -187 q0 -106 174 -106l-24 -144q-185 0 -275 47.5t-90 182.5q0 59 49 309q31 158 31 182q0 53 -49 78t-121 25z" />
<glyph unicode="|" horiz-adv-x="559" d="M184 -354v1835h191v-1835h-191z" />
<glyph unicode="}" horiz-adv-x="757" d="M-100 -326l24 144q82 0 144.5 29.5t76.5 103.5q8 49 58 270l28 137q18 80 46 126t81.5 71t145.5 25l4 20q-106 0 -153.5 43t-47.5 125q0 45 39 301q27 168 27 186q0 106 -174 107l22 143q186 0 276.5 -47t90.5 -182q0 -59 -49 -309q-33 -150 -33 -183q0 -53 49 -77.5 t121 -24.5l-33 -184q-78 0 -137.5 -30t-71.5 -93l-69 -398q-23 -125 -78.5 -190.5t-146.5 -89t-240 -23.5z" />
<glyph unicode="~" horiz-adv-x="1196" d="M49 416l39 225q0 4 45 43t117 71.5t160 32.5q51 0 96 -15t108 -46q61 -31 108.5 -46t100.5 -15q78 0 149.5 32.5t122 71.5t50.5 43l-39 -223q0 -4 -45 -44t-117 -73t-160 -33q-51 0 -96 15.5t-108 46.5q-59 31 -107.5 47t-101.5 16q-78 0 -149.5 -32.5t-122 -72.5 t-50.5 -44z" />
<glyph unicode="&#xa2;" horiz-adv-x="1138" d="M82 549q0 186 57.5 347t181 262.5t312.5 105.5l39 217h104l-39 -224q166 -16 254 -102t88 -227q0 -43 -6 -92h-248q2 20 2 55q0 147 -127 170l-127 -723q90 12 144.5 72.5t70.5 154.5h238q-33 -203 -155.5 -314.5t-331.5 -113.5l-43 -237h-105l43 243q-178 23 -265 122.5 t-87 283.5zM334 567q0 -98 33.5 -153.5t103.5 -71.5l127 717q-195 -33 -248 -340q-16 -90 -16 -152z" />
<glyph unicode="&#xa3;" horiz-adv-x="1138" d="M-33 0l35 207h135l70 387h-164l33 201h164l41 227q74 408 473 408q195 0 301 -75t106 -227q0 -61 -12 -122h-244q8 59 8 77q0 72 -41 109t-116 37q-92 0 -149.5 -47t-74.5 -131l-45 -256h326l-33 -201h-329l-95 -387h641l-36 -207h-994z" />
<glyph unicode="&#xa5;" horiz-adv-x="1138" d="M-10 309l24 156h394l26 143h-393l27 154h329l-35 84l-38 90l-197 469h268l140 -385q20 -49 35.5 -100.5t21.5 -67.5h10q55 86 113 166l274 387h268l-366 -487l-53 -68q-59 -76 -68 -88h324l-27 -154h-387l-27 -143h387l-26 -156h-387l-54 -309h-245l53 309h-391z" />
<glyph unicode="&#xa8;" horiz-adv-x="681" d="M4 1255l39 226h219l-39 -226h-219zM416 1255l41 226h221l-41 -226h-221z" />
<glyph unicode="&#xa9;" horiz-adv-x="1509" d="M27 702q0 197 98 364t265 265.5t364 98.5t363.5 -98.5t265 -265.5t98.5 -364t-98.5 -363.5t-265.5 -265t-363 -98.5q-197 0 -364 98.5t-265 265.5t-98 363zM147 702q0 -166 81 -306t220.5 -222t305.5 -82t305 82t220 222.5t81 305.5q0 166 -81 306.5t-220 222.5t-305 82 t-305.5 -82t-220.5 -222.5t-81 -306.5zM389 700q0 221 88 325.5t277 104.5q170 0 247.5 -83.5t77.5 -249.5h-151q0 109 -39 158t-135 49q-111 0 -161 -71t-50 -233t49 -232.5t162 -70.5q96 0 139 52.5t43 154.5h143q0 -145 -79.5 -239.5t-245.5 -94.5q-189 0 -277 104.5 t-88 325.5z" />
<glyph unicode="&#xab;" horiz-adv-x="1138" d="M119 258zM119 668l346 409h201l-308 -409l162 -410h-182zM568 668l346 409h201l-308 -409l162 -410h-182z" />
<glyph unicode="&#xad;" horiz-adv-x="681" d="M51 438l39 230h514l-39 -230h-514z" />
<glyph unicode="&#xae;" horiz-adv-x="1509" d="M27 702q0 197 98 364t265 265.5t364 98.5t363.5 -98.5t265 -265.5t98.5 -364t-98.5 -363.5t-265.5 -265t-363 -98.5q-197 0 -364 98.5t-265 265.5t-98 363zM147 702q0 -166 81 -306t220.5 -222t305.5 -82t305 82t220 222.5t81 305.5q0 166 -81 306.5t-220 222.5t-305 82 t-305.5 -82t-220.5 -222.5t-81 -306.5zM453 283v843h393q127 0 194.5 -69.5t67.5 -186.5q0 -84 -36 -145t-107 -94l178 -348h-164l-162 321h-211v-321h-153zM606 735h219q57 0 92 36t35 99t-32.5 96t-94.5 33h-219v-264z" />
<glyph unicode="&#xb4;" horiz-adv-x="681" d="M123 1210l213 271h256l2 -6l-264 -265h-207z" />
<glyph unicode="&#xb8;" horiz-adv-x="681" d="M63 -356l19 100h190q47 0 72 13.5t25 45.5q0 20 -17.5 29.5t-58.5 9.5h-90l61 181h158l-31 -93q78 -4 126 -35.5t48 -93.5q0 -96 -89 -135t-202 -39q-117 1 -211 17z" />
<glyph unicode="&#xbb;" horiz-adv-x="1138" d="M18 258l310 410l-164 409h182l221 -409l-348 -410h-201zM18 258zM450 258l310 410l-164 409h182l221 -409l-348 -410h-201z" />
<glyph unicode="&#x100;" horiz-adv-x="1439" d="M-100 0l792 1405h330l301 -1405h-270l-62 305h-647l-168 -305h-276zM0 0zM467 526h481l-71 367q-14 70 -39 231q-6 25 -7.5 37.5t-3.5 18.5h-10l-26 -52q-84 -162 -123 -233zM575 1561l31 168h625l-31 -168h-625z" />
<glyph unicode="&#x101;" horiz-adv-x="1185" d="M37 0zM37 389q0 178 57.5 342t169 267.5t266.5 103.5q111 0 183.5 -37t117.5 -113h13l63 125h203q-27 -150 -48.5 -269.5t-37.5 -213.5q-63 -342 -63 -363q0 -55 59 -55h67l-30 -168q-61 -33 -156 -33q-80 0 -128 47.5t-48 129.5h-10q-55 -84 -143.5 -130.5t-186.5 -46.5 q-162 0 -255 106.5t-93 307.5zM293 403q0 -109 43 -163t135 -54q109 0 178.5 80t101 192.5t31.5 215.5q0 223 -188 223q-106 0 -174 -76t-97.5 -188.5t-29.5 -229.5zM321 1264l31 168h625l-31 -168h-625z" />
<glyph unicode="&#x102;" horiz-adv-x="1439" d="M-100 0l792 1405h330l301 -1405h-270l-62 305h-647l-168 -305h-276zM0 0zM467 526h481l-71 367q-14 70 -39 231q-6 25 -7.5 37.5t-3.5 18.5h-10l-26 -52q-84 -162 -123 -233zM580 1729q0 33 4 49h164q0 -43 29.5 -73t103.5 -30q72 0 119 32t59 71h164q-12 -55 -42 -107.5 t-79 -91.5q-92 -68 -225 -68q-158 0 -227.5 61.5t-69.5 156.5z" />
<glyph unicode="&#x103;" horiz-adv-x="1185" d="M37 0zM37 389q0 178 57.5 342t169 267.5t266.5 103.5q111 0 183.5 -37t117.5 -113h13l63 125h203q-27 -150 -48.5 -269.5t-37.5 -213.5q-63 -342 -63 -363q0 -55 59 -55h67l-30 -168q-61 -33 -156 -33q-80 0 -128 47.5t-48 129.5h-10q-55 -84 -143.5 -130.5t-186.5 -46.5 q-162 0 -255 106.5t-93 307.5zM293 403q0 -109 43 -163t135 -54q109 0 178.5 80t101 192.5t31.5 215.5q0 223 -188 223q-106 0 -174 -76t-97.5 -188.5t-29.5 -229.5zM326 1432q0 33 4 49h164q0 -43 29.5 -73t103.5 -30q72 0 119 32t59 71h164q-12 -55 -42 -107.5t-79 -91.5 q-92 -68 -225 -68q-158 0 -227.5 61.5t-69.5 156.5z" />
<glyph unicode="&#x104;" horiz-adv-x="1439" d="M-100 0l792 1405h330l301 -1405h-94q-39 -31 -66.5 -72t-27.5 -82q0 -80 92 -79h55l-20 -111q-80 -29 -156 -29q-78 0 -130 37t-52 119q0 119 129 217l-62 305h-647l-168 -305h-276zM467 526h481l-71 367q-14 70 -39 231q-6 25 -7.5 37.5t-3.5 18.5h-10l-26 -52 q-84 -162 -123 -233z" />
<glyph unicode="&#x105;" horiz-adv-x="1185" d="M37 389q0 178 57.5 342t169 267.5t266.5 103.5q111 0 183.5 -37t117.5 -113h13l63 125h203q-92 -508 -117 -637q-37 -207 -37 -209q0 -28 16.5 -41.5t43.5 -13.5h67l-28 -168q-182 -76 -183 -170q0 -72 86 -71h54l-19 -111q-82 -29 -143 -29q-78 0 -132 37t-54 119 q0 123 159 207q-49 14 -75.5 57t-26.5 105h-10q-55 -84 -142.5 -130.5t-183.5 -46.5q-162 0 -255 106.5t-93 307.5zM293 403q0 -109 43 -163t135 -54q107 0 177.5 84t102 198t31.5 206q0 223 -188 223q-106 0 -174 -76t-97.5 -188.5t-29.5 -229.5z" />
<glyph unicode="&#x106;" horiz-adv-x="1478" d="M72 0zM72 520q0 233 76.5 430t226.5 320q96 78 223 119t274 41q256 0 410 -110t154 -319q0 -47 -11 -114h-268q6 37 6 71q0 123 -77.5 186.5t-215.5 63.5q-205 0 -332.5 -121.5t-170.5 -336.5q-27 -131 -27 -220q0 -170 81 -251.5t247 -81.5q172 0 288.5 82.5 t145.5 234.5h258q-45 -264 -235.5 -401.5t-458.5 -137.5q-594 0 -594 545zM791 1507l213 271h256l2 -6l-264 -265h-207z" />
<glyph unicode="&#x107;" horiz-adv-x="1099" d="M37 0zM37 387q0 190 58.5 352t185.5 262.5t321 100.5q209 0 321.5 -88t112.5 -250q0 -43 -6 -90h-250q4 37 4 55q0 174 -176 174q-238 0 -301 -338q-16 -96 -16 -162q0 -117 49 -173t154 -56q106 0 169.5 62.5t81.5 166.5h238q-33 -205 -157 -316.5t-328 -111.5 q-234 0 -347.5 100.5t-113.5 311.5zM537 1210l213 271h256l2 -6l-264 -265h-207z" />
<glyph unicode="&#x108;" horiz-adv-x="1478" d="M72 0zM72 520q0 233 76.5 430t226.5 320q96 78 223 119t274 41q256 0 410 -110t154 -319q0 -47 -11 -114h-268q6 37 6 71q0 123 -77.5 186.5t-215.5 63.5q-205 0 -332.5 -121.5t-170.5 -336.5q-27 -131 -27 -220q0 -170 81 -251.5t247 -81.5q172 0 288.5 82.5 t145.5 234.5h258q-45 -264 -235.5 -401.5t-458.5 -137.5q-594 0 -594 545zM555 1501l264 277h221l168 -277h-203l-90 148l-133 -148h-227z" />
<glyph unicode="&#x109;" horiz-adv-x="1099" d="M37 0zM37 387q0 190 58.5 352t185.5 262.5t321 100.5q209 0 321.5 -88t112.5 -250q0 -43 -6 -90h-250q4 37 4 55q0 174 -176 174q-238 0 -301 -338q-16 -96 -16 -162q0 -117 49 -173t154 -56q106 0 169.5 62.5t81.5 166.5h238q-33 -205 -157 -316.5t-328 -111.5 q-234 0 -347.5 100.5t-113.5 311.5zM301 1204l264 277h221l168 -277h-203l-90 148l-133 -148h-227z" />
<glyph unicode="&#x10a;" horiz-adv-x="1478" d="M72 0zM72 520q0 233 76.5 430t226.5 320q96 78 223 119t274 41q256 0 410 -110t154 -319q0 -47 -11 -114h-268q6 37 6 71q0 123 -77.5 186.5t-215.5 63.5q-205 0 -332.5 -121.5t-170.5 -336.5q-27 -131 -27 -220q0 -170 81 -251.5t247 -81.5q172 0 288.5 82.5 t145.5 234.5h258q-45 -264 -235.5 -401.5t-458.5 -137.5q-594 0 -594 545zM779 1538l43 242h241l-43 -242h-241z" />
<glyph unicode="&#x10b;" horiz-adv-x="1099" d="M37 0zM37 387q0 190 58.5 352t185.5 262.5t321 100.5q209 0 321.5 -88t112.5 -250q0 -43 -6 -90h-250q4 37 4 55q0 174 -176 174q-238 0 -301 -338q-16 -96 -16 -162q0 -117 49 -173t154 -56q106 0 169.5 62.5t81.5 166.5h238q-33 -205 -157 -316.5t-328 -111.5 q-234 0 -347.5 100.5t-113.5 311.5zM525 1241l43 242h241l-43 -242h-241z" />
<glyph unicode="&#x10c;" horiz-adv-x="1478" d="M72 0zM72 520q0 233 76.5 430t226.5 320q96 78 223 119t274 41q256 0 410 -110t154 -319q0 -47 -11 -114h-268q6 37 6 71q0 123 -77.5 186.5t-215.5 63.5q-205 0 -332.5 -121.5t-170.5 -336.5q-27 -131 -27 -220q0 -170 81 -251.5t247 -81.5q172 0 288.5 82.5 t145.5 234.5h258q-45 -264 -235.5 -401.5t-458.5 -137.5q-594 0 -594 545zM617 1778h203l92 -148l133 148h225l-264 -277h-221z" />
<glyph unicode="&#x10d;" horiz-adv-x="1099" d="M37 0zM37 387q0 190 58.5 352t185.5 262.5t321 100.5q209 0 321.5 -88t112.5 -250q0 -43 -6 -90h-250q4 37 4 55q0 174 -176 174q-238 0 -301 -338q-16 -96 -16 -162q0 -117 49 -173t154 -56q106 0 169.5 62.5t81.5 166.5h238q-33 -205 -157 -316.5t-328 -111.5 q-234 0 -347.5 100.5t-113.5 311.5zM363 1481h203l92 -148l133 148h225l-264 -277h-221z" />
<glyph unicode="&#x10e;" horiz-adv-x="1478" d="M25 0l247 1405h533q293 0 449.5 -137.5t156.5 -417.5q0 -190 -57.5 -353t-167.5 -280q-102 -104 -244.5 -160.5t-314.5 -56.5h-602zM25 0zM326 223h286q203 0 337 116t171 327q20 115 21 178q0 168 -89 253t-259 85h-299zM543 1778h203l92 -148l133 148h225l-264 -277 h-221z" />
<glyph unicode="&#x10f;" horiz-adv-x="1404" d="M39 401q0 174 58.5 336t173 263.5t274.5 101.5q117 0 193.5 -38t125.5 -112h13l92 529h245l-260 -1481h-198v143h-13q-61 -80 -145 -124t-178 -44q-184 0 -282.5 104.5t-98.5 321.5zM295 410q0 -115 48 -169.5t151 -54.5q110 0 183 72t106.5 183.5t33.5 232.5 q0 223 -205 223q-168 0 -242.5 -148.5t-74.5 -338.5zM1237 940l139 229h-96l39 236h246l-37 -213l-162 -252h-129z" />
<glyph unicode="&#x110;" horiz-adv-x="1478" d="M4 0zM4 647l27 160h135l106 598h533q293 0 449.5 -137.5t156.5 -417.5q0 -190 -57.5 -353t-167.5 -280q-102 -104 -244.5 -160.5t-314.5 -56.5h-602l114 647h-135zM326 223h286q203 0 337 116t171 327q21 115 21 178q0 168 -89 253t-259 85h-299l-66 -375h309l-28 -160 h-310z" />
<glyph unicode="&#x111;" d="M39 401q0 174 58.5 336t173 263.5t274.5 101.5q117 0 193.5 -38t125.5 -112h13l45 256h-304l25 140h303l23 133h245l-24 -133h129l-25 -140h-127l-213 -1208h-198v143h-13q-61 -80 -145 -124t-178 -44q-184 0 -282.5 104.5t-98.5 321.5zM295 410q0 -115 48 -169.5 t151 -54.5q110 0 183 72t106.5 183.5t33.5 232.5q0 223 -205 223q-168 0 -242.5 -148.5t-74.5 -338.5z" />
<glyph unicode="&#x112;" horiz-adv-x="1366" d="M25 0l247 1405h1096l-39 -223h-835l-62 -353h746l-39 -223h-746l-67 -383h848l-41 -223h-1108zM25 0zM545 1561l31 168h625l-31 -168h-625z" />
<glyph unicode="&#x113;" horiz-adv-x="1138" d="M37 0zM37 389q0 193 60.5 354.5t190.5 260t330 98.5q438 0 439 -391q0 -82 -17 -158l-12 -74h-735q-6 -33 -6 -88q0 -113 54 -167t171 -54q104 0 171 51t85 156h242q-31 -199 -163 -300.5t-327 -101.5q-244 0 -363.5 101.5t-119.5 312.5zM328 653h477q6 37 6 72 q0 94 -49 138t-137 44q-227 0 -297 -254zM350 1264l31 168h625l-31 -168h-625z" />
<glyph unicode="&#x114;" horiz-adv-x="1366" d="M25 0l247 1405h1096l-39 -223h-835l-62 -353h746l-39 -223h-746l-67 -383h848l-41 -223h-1108zM25 0zM549 1729q0 33 4 49h164q0 -43 29.5 -73t103.5 -30q72 0 119 32t59 71h164q-12 -55 -42 -107.5t-79 -91.5q-92 -68 -225 -68q-158 0 -227.5 61.5t-69.5 156.5z" />
<glyph unicode="&#x115;" horiz-adv-x="1138" d="M37 0zM37 389q0 193 60.5 354.5t190.5 260t330 98.5q438 0 439 -391q0 -82 -17 -158l-12 -74h-735q-6 -33 -6 -88q0 -113 54 -167t171 -54q104 0 171 51t85 156h242q-31 -199 -163 -300.5t-327 -101.5q-244 0 -363.5 101.5t-119.5 312.5zM328 653h477q6 37 6 72 q0 94 -49 138t-137 44q-227 0 -297 -254zM354 1432q0 33 4 49h164q0 -43 29.5 -73t103.5 -30q72 0 119 32t59 71h164q-12 -55 -42 -107.5t-79 -91.5q-92 -68 -225 -68q-158 0 -227.5 61.5t-69.5 156.5z" />
<glyph unicode="&#x116;" horiz-adv-x="1366" d="M25 0l247 1405h1096l-39 -223h-835l-62 -353h746l-39 -223h-746l-67 -383h848l-41 -223h-1108zM25 0zM729 1538l43 242h241l-43 -242h-241z" />
<glyph unicode="&#x117;" horiz-adv-x="1138" d="M37 0zM37 389q0 193 60.5 354.5t190.5 260t330 98.5q438 0 439 -391q0 -82 -17 -158l-12 -74h-735q-6 -33 -6 -88q0 -113 54 -167t171 -54q104 0 171 51t85 156h242q-31 -199 -163 -300.5t-327 -101.5q-244 0 -363.5 101.5t-119.5 312.5zM328 653h477q6 37 6 72 q0 94 -49 138t-137 44q-227 0 -297 -254zM535 1241l43 242h241l-43 -242h-241z" />
<glyph unicode="&#x118;" horiz-adv-x="1366" d="M25 0l247 1405h1096l-39 -223h-835l-62 -353h746l-39 -223h-746l-67 -383h848l-41 -223q-72 -27 -127.5 -74t-55.5 -94q0 -29 23.5 -47t64.5 -18h54l-19 -111q-82 -29 -145 -29q-76 0 -131.5 35t-55.5 109q0 141 172 229h-888z" />
<glyph unicode="&#x119;" horiz-adv-x="1138" d="M37 389q0 193 60.5 354.5t190.5 260t330 98.5q438 0 439 -391q0 -66 -17 -158l-12 -74h-735q-6 -33 -6 -88q0 -113 54 -167t171 -54q104 0 171 51t85 156h242q-14 -88 -47 -153.5t-86 -119.5q-115 -115 -115 -241q0 -39 26.5 -67.5t69.5 -28.5h43l-18 -111 q-82 -29 -146 -29q-80 0 -133 39t-53 125q0 100 84 195q-49 -10 -115 -11q-244 0 -363.5 101.5t-119.5 312.5zM328 653h477q6 37 6 72q0 94 -49 138t-137 44q-227 0 -297 -254z" />
<glyph unicode="&#x11a;" horiz-adv-x="1366" d="M25 0l247 1405h1096l-39 -223h-835l-62 -353h746l-39 -223h-746l-67 -383h848l-41 -223h-1108zM25 0zM567 1778h203l92 -148l133 148h225l-264 -277h-221z" />
<glyph unicode="&#x11b;" horiz-adv-x="1138" d="M37 0zM37 389q0 193 60.5 354.5t190.5 260t330 98.5q438 0 439 -391q0 -82 -17 -158l-12 -74h-735q-6 -33 -6 -88q0 -113 54 -167t171 -54q104 0 171 51t85 156h242q-31 -199 -163 -300.5t-327 -101.5q-244 0 -363.5 101.5t-119.5 312.5zM328 653h477q6 37 6 72 q0 94 -49 138t-137 44q-227 0 -297 -254zM373 1481h203l92 -148l133 148h225l-264 -277h-221z" />
<glyph unicode="&#x11c;" horiz-adv-x="1593" d="M72 0zM72 524q0 213 66.5 394.5t195.5 302.5q106 102 251.5 155.5t323.5 53.5q266 0 434 -105.5t168 -306.5q0 -49 -8 -92h-270q4 16 4 47q0 113 -89 174t-230 61q-225 0 -366.5 -118.5t-184.5 -337.5q-25 -131 -25 -220q0 -172 85 -253.5t255 -81.5q129 0 236.5 43 t174 119.5t78.5 172.5v3h-450l39 217h713l-134 -752h-184v162q-106 -94 -224 -140.5t-269 -46.5q-287 0 -438.5 136.5t-151.5 412.5zM578 1501l264 277h221l168 -277h-203l-90 148l-133 -148h-227z" />
<glyph unicode="&#x11d;" d="M-4 -51h240q6 -63 54 -92t140 -29q244 0 299 293l10 57h-12q-121 -147 -319 -147q-164 0 -263.5 98t-99.5 295q0 176 59.5 331.5t176 251t280.5 95.5q113 0 196 -42t124 -126h14l45 143h203l-168 -948q-45 -254 -178 -378t-373 -124q-197 0 -311.5 77t-116.5 224v21zM0 0 zM299 436q0 -100 47 -147t152 -47q110 0 182 66.5t105.5 168t33.5 207.5q0 207 -198 207q-168 0 -245 -136.5t-77 -318.5zM312 1204l264 277h221l168 -277h-203l-90 148l-133 -148h-227z" />
<glyph unicode="&#x11e;" horiz-adv-x="1593" d="M72 0zM72 524q0 213 66.5 394.5t195.5 302.5q106 102 251.5 155.5t323.5 53.5q266 0 434 -105.5t168 -306.5q0 -49 -8 -92h-270q4 16 4 47q0 113 -89 174t-230 61q-225 0 -366.5 -118.5t-184.5 -337.5q-25 -131 -25 -220q0 -172 85 -253.5t255 -81.5q129 0 236.5 43 t174 119.5t78.5 172.5v3h-450l39 217h713l-134 -752h-184v162q-106 -94 -224 -140.5t-269 -46.5q-287 0 -438.5 136.5t-151.5 412.5zM621 1729q0 33 4 49h164q0 -43 29.5 -73t103.5 -30q72 0 119 32t59 71h164q-12 -55 -42 -107.5t-79 -91.5q-92 -68 -225 -68 q-158 0 -227.5 61.5t-69.5 156.5z" />
<glyph unicode="&#x11f;" d="M-4 -51h240q6 -63 54 -92t140 -29q244 0 299 293l10 57h-12q-121 -147 -319 -147q-164 0 -263.5 98t-99.5 295q0 176 59.5 331.5t176 251t280.5 95.5q113 0 196 -42t124 -126h14l45 143h203l-168 -948q-45 -254 -178 -378t-373 -124q-197 0 -311.5 77t-116.5 224v21zM0 0 zM299 436q0 -100 47 -147t152 -47q110 0 182 66.5t105.5 168t33.5 207.5q0 207 -198 207q-168 0 -245 -136.5t-77 -318.5zM354 1432q0 33 4 49h164q0 -43 29.5 -73t103.5 -30q72 0 119 32t59 71h164q-12 -55 -42 -107.5t-79 -91.5q-92 -68 -225 -68q-158 0 -227.5 61.5 t-69.5 156.5z" />
<glyph unicode="&#x120;" horiz-adv-x="1593" d="M72 0zM72 524q0 213 66.5 394.5t195.5 302.5q106 102 251.5 155.5t323.5 53.5q266 0 434 -105.5t168 -306.5q0 -49 -8 -92h-270q4 16 4 47q0 113 -89 174t-230 61q-225 0 -366.5 -118.5t-184.5 -337.5q-25 -131 -25 -220q0 -172 85 -253.5t255 -81.5q129 0 236.5 43 t174 119.5t78.5 172.5v3h-450l39 217h713l-134 -752h-184v162q-106 -94 -224 -140.5t-269 -46.5q-287 0 -438.5 136.5t-151.5 412.5zM801 1538l43 242h241l-43 -242h-241z" />
<glyph unicode="&#x121;" d="M-4 -51h240q6 -63 54 -92t140 -29q244 0 299 293l10 57h-12q-121 -147 -319 -147q-164 0 -263.5 98t-99.5 295q0 176 59.5 331.5t176 251t280.5 95.5q113 0 196 -42t124 -126h14l45 143h203l-168 -948q-45 -254 -178 -378t-373 -124q-197 0 -311.5 77t-116.5 224v21zM0 0 zM299 436q0 -100 47 -147t152 -47q110 0 182 66.5t105.5 168t33.5 207.5q0 207 -198 207q-168 0 -245 -136.5t-77 -318.5zM535 1241l43 242h241l-43 -242h-241z" />
<glyph unicode="&#x122;" horiz-adv-x="1593" d="M72 0zM72 524q0 213 66.5 394.5t195.5 302.5q106 102 251.5 155.5t323.5 53.5q266 0 434 -105.5t168 -306.5q0 -49 -8 -92h-270q4 16 4 47q0 113 -89 174t-230 61q-225 0 -366.5 -118.5t-184.5 -337.5q-25 -131 -25 -220q0 -172 85 -253.5t255 -81.5q129 0 236.5 43 t174 119.5t78.5 172.5v3h-450l39 217h713l-134 -752h-184v162q-106 -94 -224 -140.5t-269 -46.5q-287 0 -438.5 136.5t-151.5 412.5zM497 -471l125 180h-94l35 197h248l-31 -176l-152 -201h-131z" />
<glyph unicode="&#x123;" d="M-4 -51h240q6 -63 54 -92t140 -29q244 0 299 293l10 57h-12q-121 -147 -319 -147q-164 0 -263.5 98t-99.5 295q0 176 59.5 331.5t176 251t280.5 95.5q113 0 196 -42t124 -126h14l45 143h203l-168 -948q-45 -254 -178 -378t-373 -124q-197 0 -311.5 77t-116.5 224v21z M299 436q0 -100 47 -147t152 -47q110 0 182 66.5t105.5 168t33.5 207.5q0 207 -198 207q-168 0 -245 -136.5t-77 -318.5zM539 1214l30 175l158 208h129l-129 -186h94l-35 -197h-247z" />
<glyph unicode="&#x124;" horiz-adv-x="1478" d="M25 0l247 1405h263l-103 -574h666l100 574h262l-248 -1405h-262l109 606h-666l-106 -606h-262zM25 0zM543 1501l264 277h221l168 -277h-203l-90 148l-133 -148h-227z" />
<glyph unicode="&#x125;" d="M33 0l260 1481h246l-93 -527h13q61 66 149 107t183 41q141 0 226 -66.5t85 -208.5q0 -55 -19 -161l-118 -666h-246l115 651q12 74 12 101q0 74 -38 105.5t-108 31.5q-117 0 -205.5 -82t-113.5 -227l-102 -580h-246zM33 0zM84 1532l264 277h221l168 -277h-203l-90 148 l-133 -148h-227z" />
<glyph unicode="&#x126;" horiz-adv-x="1478" d="M25 0l186 1053h-131l31 172h129l32 180h263l-33 -180h663l33 180h262l-33 -180h129l-28 -172h-131l-185 -1053h-262l109 606h-666l-106 -606h-262zM432 831h666l39 222h-666z" />
<glyph unicode="&#x127;" d="M33 0l211 1208h-125l24 140h125l25 133h246l-25 -133h305l-24 -140h-306l-43 -254h13q61 66 149 107t183 41q141 0 226 -66.5t85 -208.5q0 -55 -19 -161l-118 -666h-246l115 651q12 74 12 101q0 74 -38 105.5t-108 31.5q-117 0 -205.5 -82t-113.5 -227l-102 -580h-246z " />
<glyph unicode="&#x128;" horiz-adv-x="569" d="M35 0l248 1405h260l-248 -1405h-260zM35 0zM99 1540q16 103 73.5 170.5t149.5 67.5q59 0 145 -37q82 -35 133 -35q57 0 80 72h139q-18 -104 -75.5 -171t-151.5 -67q-37 0 -69.5 9.5t-73.5 27.5q-41 16 -71 25.5t-62 9.5q-57 0 -80 -72h-137z" />
<glyph unicode="&#x129;" horiz-adv-x="569" d="M10 1243q17 103 74 170.5t149 67.5q59 0 146 -37q82 -35 133 -35q57 0 80 72h139q-18 -104 -75.5 -171t-151.5 -67q-37 0 -69 9.5t-77 27.5q-41 16 -70.5 25.5t-62.5 9.5q-55 0 -78 -72h-137zM43 0l190 1077h246l-190 -1077h-246z" />
<glyph unicode="&#x12a;" horiz-adv-x="569" d="M35 0l248 1405h260l-248 -1405h-260zM35 0zM129 1561l31 168h625l-31 -168h-625z" />
<glyph unicode="&#x12b;" horiz-adv-x="569" d="M43 0l190 1077h246l-190 -1077h-246zM63 1309l29 168h625l-29 -168h-625z" />
<glyph unicode="&#x12c;" horiz-adv-x="569" d="M35 0l248 1405h260l-248 -1405h-260zM35 0zM133 1729q0 33 4 49h164q0 -43 29.5 -73t103.5 -30q72 0 119 32t59 71h164q-12 -55 -42 -107.5t-79 -91.5q-92 -68 -225 -68q-158 0 -227.5 61.5t-69.5 156.5z" />
<glyph unicode="&#x12d;" horiz-adv-x="569" d="M43 0l190 1077h246l-190 -1077h-246zM43 0zM82 1432q0 33 4 49h164q0 -43 29.5 -73t103.5 -30q72 0 119 32t59 71h164q-12 -55 -42 -107.5t-79 -91.5q-92 -68 -225 -68q-158 0 -227.5 61.5t-69.5 156.5z" />
<glyph unicode="&#x12e;" horiz-adv-x="569" d="M-63 -233q0 74 38.5 129t102.5 104h-43l248 1405h260l-248 -1405h-53q-37 -31 -67 -77t-30 -93q0 -80 86 -80h56l-21 -110q-82 -29 -145 -29q-78 0 -131 38t-53 118z" />
<glyph unicode="&#x12f;" horiz-adv-x="569" d="M-96 -233q0 74 39 129t102 104h-2l190 1077h246l-190 -1077h-80q-37 -31 -66.5 -77t-29.5 -93q0 -80 86 -80h55l-21 -110q-82 -29 -145 -29q-78 0 -131 38t-53 118zM262 1241l43 242h242l-43 -242h-242z" />
<glyph unicode="&#x130;" horiz-adv-x="569" d="M35 0l248 1405h260l-248 -1405h-260zM35 0zM314 1538l43 242h241l-43 -242h-241z" />
<glyph unicode="&#x131;" horiz-adv-x="569" d="M43 0l190 1077h246l-190 -1077h-246z" />
<glyph unicode="&#x132;" horiz-adv-x="1669" d="M35 0l248 1405h260l-248 -1405h-260zM35 0zM561 291q0 78 22 172h260q-20 -76 -20 -123q0 -74 37 -108.5t119 -34.5q98 0 158.5 51t76.5 151l178 1006h264l-178 -1006q-39 -213 -163.5 -318.5t-329.5 -105.5q-207 0 -315.5 80t-108.5 236z" />
<glyph unicode="&#x133;" horiz-adv-x="1060" d="M27 0l190 1077h246l-191 -1077h-245zM27 0zM246 1245l41 236h245l-40 -236h-246zM307 -342l28 168h101q90 0 106 92l205 1159h246l-207 -1175q-49 -274 -297 -275q-45 0 -98.5 9.5t-83.5 21.5zM776 1245l41 236h245l-40 -236h-246z" />
<glyph unicode="&#x134;" horiz-adv-x="1099" d="M-8 291q0 78 22 172h260q-20 -76 -20 -123q0 -74 37 -108.5t119 -34.5q98 0 158.5 51t76.5 151l178 1006h264l-178 -1006q-39 -213 -163.5 -318.5t-329.5 -105.5q-207 0 -315.5 80t-108.5 236zM0 0zM633 1501l264 277h221l168 -277h-203l-90 148l-133 -148h-227z" />
<glyph unicode="&#x135;" horiz-adv-x="530" d="M-223 -342l28 168h101q90 0 106 92l205 1159h246l-207 -1175q-49 -274 -297 -275q-45 0 -98.5 9.5t-83.5 21.5zM8 1204l264 277h224l168 -277h-205l-90 148l-133 -148h-228z" />
<glyph unicode="&#x136;" horiz-adv-x="1439" d="M25 0l247 1405h263l-125 -700l782 700h344l-643 -571l405 -834h-292l-314 657l-338 -270l-67 -387h-262zM25 0zM422 -471l125 180h-94l35 197h248l-31 -176l-152 -201h-131z" />
<glyph unicode="&#x137;" horiz-adv-x="1099" d="M27 0l260 1481h245l-151 -867l473 463h289l-434 -424l264 -653h-266l-175 481l-202 -159l-58 -322h-245zM27 0zM286 -471l125 180h-94l35 197h248l-31 -176l-152 -201h-131z" />
<glyph unicode="&#x138;" horiz-adv-x="1099" d="M27 0l188 1077h246l-80 -463l473 463h289l-434 -424l264 -653h-266l-175 481l-202 -159l-58 -322h-245z" />
<glyph unicode="&#x139;" d="M25 0l247 1405h263l-209 -1178h757l-41 -227h-1017zM25 0zM316 1507l213 271h256l2 -6l-264 -265h-207z" />
<glyph unicode="&#x13a;" horiz-adv-x="530" d="M27 0l260 1481h245l-260 -1481h-245zM27 0zM326 1538l213 271h256l2 -6l-264 -265h-207z" />
<glyph unicode="&#x13b;" d="M25 0l247 1405h263l-209 -1178h757l-41 -227h-1017zM25 0zM329 -471l125 180h-94l35 197h248l-31 -176l-152 -201h-131z" />
<glyph unicode="&#x13c;" horiz-adv-x="530" d="M-56 -471l125 180h-94l35 197h248l-31 -176l-152 -201h-131zM0 0zM27 0l260 1481h245l-260 -1481h-245z" />
<glyph unicode="&#x13d;" d="M25 0l247 1405h263l-209 -1178h757l-41 -227h-1017zM696 940l138 229h-95l41 236h244l-37 -213l-162 -252h-129z" />
<glyph unicode="&#x13e;" horiz-adv-x="722" d="M27 0l260 1481h245l-260 -1481h-245zM553 940l137 229h-94l41 236h246l-37 -213l-164 -252h-129z" />
<glyph unicode="&#x13f;" d="M25 0l247 1405h263l-209 -1178h757l-41 -227h-1017zM25 0zM678 817l47 260h254l-47 -260h-254z" />
<glyph unicode="&#x140;" horiz-adv-x="694" d="M27 0l260 1481h245l-260 -1481h-245zM27 0zM479 602l47 260h254l-47 -260h-254z" />
<glyph unicode="&#x141;" d="M-29 424l35 194l156 93l123 694h262l-92 -520l344 202l-35 -194l-344 -203l-82 -463h745l-41 -227h-1005l90 518z" />
<glyph unicode="&#x142;" horiz-adv-x="530" d="M-35 432l33 191l160 104l131 754h246l-101 -578l160 105l-35 -191l-160 -104l-125 -713h-245l94 535z" />
<glyph unicode="&#x143;" horiz-adv-x="1478" d="M25 0l247 1405h250l453 -860q16 -31 31.5 -65t23.5 -52l10 2q14 104 19 121l149 854h252l-248 -1405h-245l-451 862q-20 37 -37.5 76t-21.5 47h-11l-8 -49l-12 -80l-150 -856h-251zM25 0zM811 1507l213 271h256l2 -6l-264 -265h-207z" />
<glyph unicode="&#x144;" d="M33 0l190 1077h199v-145h14q61 74 156.5 122t198.5 48q141 0 226 -66.5t85 -208.5q0 -55 -19 -161l-118 -666h-246l115 651q12 74 12 101q0 74 -38 105.5t-108 31.5q-117 0 -205.5 -82t-113.5 -227l-102 -580h-246zM33 0zM619 1210l213 271h256l2 -6l-264 -265h-207z" />
<glyph unicode="&#x145;" horiz-adv-x="1478" d="M25 0l247 1405h250l453 -860q16 -31 31.5 -65t23.5 -52l10 2q14 104 19 121l149 854h252l-248 -1405h-245l-451 862q-20 37 -37.5 76t-21.5 47h-11l-8 -49l-12 -80l-150 -856h-251zM25 0zM440 -471l125 180h-94l35 197h248l-31 -176l-152 -201h-131z" />
<glyph unicode="&#x146;" d="M33 0l190 1077h199v-145h14q61 74 156.5 122t198.5 48q141 0 226 -66.5t85 -208.5q0 -55 -19 -161l-118 -666h-246l115 651q12 74 12 101q0 74 -38 105.5t-108 31.5q-117 0 -205.5 -82t-113.5 -227l-102 -580h-246zM33 0zM307 -471l125 180h-94l35 197h248l-31 -176 l-152 -201h-131z" />
<glyph unicode="&#x147;" horiz-adv-x="1478" d="M25 0l247 1405h250l453 -860q16 -31 31.5 -65t23.5 -52l10 2q14 104 19 121l149 854h252l-248 -1405h-245l-451 862q-20 37 -37.5 76t-21.5 47h-11l-8 -49l-12 -80l-150 -856h-251zM25 0zM637 1778h203l92 -148l133 148h225l-264 -277h-221z" />
<glyph unicode="&#x148;" d="M33 0l190 1077h199v-145h14q61 74 156.5 122t198.5 48q141 0 226 -66.5t85 -208.5q0 -55 -19 -161l-118 -666h-246l115 651q12 74 12 101q0 74 -38 105.5t-108 31.5q-117 0 -205.5 -82t-113.5 -227l-102 -580h-246zM33 0zM445 1481h203l92 -148l133 148h225l-264 -277 h-221z" />
<glyph unicode="&#x149;" horiz-adv-x="1376" d="M51 940l133 229h-92l41 236h244l-37 -213l-162 -252h-127zM197 0l190 1077h199v-145h14q61 74 156.5 122t197.5 48q141 0 226.5 -66.5t85.5 -208.5q0 -55 -19 -161l-119 -666h-245l114 651q12 74 13 101q0 74 -38 105.5t-108 31.5q-117 0 -206 -82t-113 -227l-103 -580 h-245z" />
<glyph unicode="&#x14a;" horiz-adv-x="1478" d="M25 0l247 1405h250l453 -860q16 -31 31.5 -65t23.5 -52l10 2q14 104 19 121l149 854h252l-264 -1503q-49 -274 -297 -275q-45 0 -98 9.5t-84 21.5l28 168h97q88 0 104 92l17 88l-451 862q-18 31 -35.5 70t-23.5 51h-11q0 -35 -14 -131l-152 -858h-251z" />
<glyph unicode="&#x14b;" d="M33 0l190 1077h199v-145h14q61 74 156.5 122t198.5 48q141 0 226 -66.5t85 -208.5q0 -55 -19 -161l-135 -764q-49 -274 -295 -275q-47 0 -100 9.5t-84 21.5l29 168h100q90 0 107 92l129 733q12 74 12 101q0 74 -38 105.5t-108 31.5q-117 0 -205.5 -82t-113.5 -227 l-102 -580h-246z" />
<glyph unicode="&#x14c;" horiz-adv-x="1593" d="M72 0zM72 526q0 100 14 187q53 340 263 528.5t544 188.5q301 0 467 -140.5t166 -406.5q0 -78 -15 -183q-51 -342 -263 -533.5t-548 -189.5q-301 -2 -464.5 138.5t-163.5 410.5zM340 541q0 -164 92 -253t266 -89q224 0 360 126t177 363q20 111 20 180q0 162 -93 251 t-267 89q-223 0 -358.5 -126t-176.5 -363q-20 -125 -20 -178zM596 1561l31 168h625l-31 -168h-625z" />
<glyph unicode="&#x14d;" d="M47 0zM47 416q0 90 14 168q41 254 185.5 386t398.5 132q139 0 245.5 -54.5t166 -154.5t61.5 -229q0 -84 -12 -170q-86 -518 -588 -519q-137 0 -243.5 55.5t-166 155t-61.5 230.5zM289 410q2 -109 65.5 -170.5t180.5 -61.5q147 0 228 86t105 273q10 59 11 131 q-2 111 -68 172t-184 61q-145 0 -225 -87t-105 -273q-8 -63 -8 -131zM364 1264l31 168h625l-31 -168h-625z" />
<glyph unicode="&#x14e;" horiz-adv-x="1593" d="M72 0zM72 526q0 100 14 187q53 340 263 528.5t544 188.5q301 0 467 -140.5t166 -406.5q0 -78 -15 -183q-51 -342 -263 -533.5t-548 -189.5q-301 -2 -464.5 138.5t-163.5 410.5zM340 541q0 -164 92 -253t266 -89q224 0 360 126t177 363q20 111 20 180q0 162 -93 251 t-267 89q-223 0 -358.5 -126t-176.5 -363q-20 -125 -20 -178zM600 1729q0 33 4 49h164q0 -43 29.5 -73t103.5 -30q72 0 119 32t59 71h164q-12 -55 -42 -107.5t-79 -91.5q-92 -68 -225 -68q-158 0 -227.5 61.5t-69.5 156.5z" />
<glyph unicode="&#x14f;" d="M47 0zM47 416q0 90 14 168q41 254 185.5 386t398.5 132q139 0 245.5 -54.5t166 -154.5t61.5 -229q0 -84 -12 -170q-86 -518 -588 -519q-137 0 -243.5 55.5t-166 155t-61.5 230.5zM289 410q2 -109 65.5 -170.5t180.5 -61.5q147 0 228 86t105 273q10 59 11 131 q-2 111 -68 172t-184 61q-145 0 -225 -87t-105 -273q-8 -63 -8 -131zM369 1432q0 33 4 49h164q0 -43 29.5 -73t103.5 -30q72 0 119 32t59 71h164q-12 -55 -42 -107.5t-79 -91.5q-92 -68 -225 -68q-158 0 -227.5 61.5t-69.5 156.5z" />
<glyph unicode="&#x150;" horiz-adv-x="1593" d="M72 0zM72 526q0 100 14 187q53 340 263 528.5t544 188.5q301 0 467 -140.5t166 -406.5q0 -78 -15 -183q-51 -342 -263 -533.5t-548 -189.5q-301 -2 -464.5 138.5t-163.5 410.5zM340 541q0 -164 92 -253t266 -89q224 0 360 126t177 363q20 111 20 180q0 162 -93 251 t-267 89q-223 0 -358.5 -126t-176.5 -363q-20 -125 -20 -178zM627 1507l195 271h256l2 -6l-252 -265h-201zM967 1507l197 271h254l2 -6l-250 -265h-203z" />
<glyph unicode="&#x151;" d="M47 0zM47 416q0 90 14 168q41 254 185.5 386t398.5 132q139 0 245.5 -54.5t166 -154.5t61.5 -229q0 -84 -12 -170q-86 -518 -588 -519q-137 0 -243.5 55.5t-166 155t-61.5 230.5zM289 410q2 -109 65.5 -170.5t180.5 -61.5q147 0 228 86t105 273q10 59 11 131 q-2 111 -68 172t-184 61q-145 0 -225 -87t-105 -273q-8 -63 -8 -131zM395 1210l195 271h256l2 -6l-252 -265h-201zM735 1210l197 271h254l2 -6l-250 -265h-203z" />
<glyph unicode="&#x152;" horiz-adv-x="2048" d="M68 473q0 98 22 229q59 354 231.5 541t426.5 187q246 0 370 -152l23 127h905l-39 -221h-645l-62 -355h547l-39 -221h-546l-70 -387h659l-39 -221h-919l20 125q-162 -150 -374 -150q-228 0 -349.5 126t-121.5 372zM338 498q0 -154 64.5 -227.5t199.5 -73.5 q156 0 261.5 119.5t154.5 385.5q18 115 18 199q0 162 -64.5 234.5t-187.5 72.5q-174 0 -275 -121.5t-149 -384.5q-23 -123 -22 -204z" />
<glyph unicode="&#x153;" horiz-adv-x="1933" d="M39 387q0 188 57.5 350t188.5 263.5t336 101.5q291 0 405 -168q152 168 393 168q438 0 439 -391q0 -82 -17 -158l-12 -74h-735q-6 -33 -7 -88q0 -113 54.5 -167t171.5 -54q104 0 170.5 51t85.5 156h241q-31 -199 -162.5 -300.5t-326.5 -101.5q-150 0 -251 40t-159 126 q-143 -166 -381 -166q-245 0 -368 101.5t-123 310.5zM295 406q0 -117 54 -173.5t169 -56.5q267 0 324 336q16 92 16 158q0 117 -55 174t-172 57q-139 0 -214 -88t-108 -254q-14 -78 -14 -153zM1128 653h478q6 37 6 72q0 94 -49.5 138t-137.5 44q-227 0 -297 -254z" />
<glyph unicode="&#x154;" horiz-adv-x="1478" d="M25 0l247 1405h668q233 0 350 -99.5t117 -277.5q0 -168 -91 -284.5t-237 -163.5l197 -580h-279l-172 543h-442l-96 -543h-262zM25 0zM420 764h459q119 0 189.5 66.5t70.5 179.5q0 82 -51.5 127t-149.5 45h-444zM717 1507l213 271h256l2 -6l-264 -265h-207z" />
<glyph unicode="&#x155;" horiz-adv-x="757" d="M33 0l190 1077h199l-4 -170h14q49 90 110.5 142.5t157.5 52.5q41 0 74 -8.5t33 -10.5l-39 -231h-78q-262 0 -315 -299l-96 -553h-246zM33 0zM391 1210l213 271h256l2 -6l-264 -265h-207z" />
<glyph unicode="&#x156;" horiz-adv-x="1478" d="M25 0l247 1405h668q233 0 350 -99.5t117 -277.5q0 -168 -91 -284.5t-237 -163.5l197 -580h-279l-172 543h-442l-96 -543h-262zM25 0zM420 764h459q119 0 189.5 66.5t70.5 179.5q0 82 -51.5 127t-149.5 45h-444zM440 -471l125 180h-94l35 197h248l-31 -176l-152 -201h-131 z" />
<glyph unicode="&#x157;" horiz-adv-x="757" d="M-49 -471l125 180h-94l35 197h248l-31 -176l-152 -201h-131zM0 0zM33 0l190 1077h199l-4 -170h14q49 90 110.5 142.5t157.5 52.5q41 0 74 -8.5t33 -10.5l-39 -231h-78q-262 0 -315 -299l-96 -553h-246z" />
<glyph unicode="&#x158;" horiz-adv-x="1478" d="M25 0l247 1405h668q233 0 350 -99.5t117 -277.5q0 -168 -91 -284.5t-237 -163.5l197 -580h-279l-172 543h-442l-96 -543h-262zM25 0zM420 764h459q119 0 189.5 66.5t70.5 179.5q0 82 -51.5 127t-149.5 45h-444zM543 1778h203l92 -148l133 148h225l-264 -277h-221z" />
<glyph unicode="&#x159;" horiz-adv-x="757" d="M33 0l190 1077h199l-4 -170h14q49 90 110.5 142.5t157.5 52.5q41 0 74 -8.5t33 -10.5l-39 -231h-78q-262 0 -315 -299l-96 -553h-246zM33 0zM217 1481h203l92 -148l133 148h225l-264 -277h-221z" />
<glyph unicode="&#x15a;" horiz-adv-x="1366" d="M35 0zM35 334q0 55 16 117h264q-12 -49 -12 -74q0 -86 78 -133t217 -47q178 0 267 54t89 148q0 57 -42 96.5t-105.5 64t-171.5 56.5q-145 43 -235.5 82t-154 112t-63.5 187q0 141 79 238.5t211 146t292 48.5q242 0 389 -83t147 -247q0 -43 -10 -103h-258q6 29 6 52 q0 76 -69.5 117.5t-190.5 41.5q-150 0 -237.5 -46t-87.5 -128q0 -72 74.5 -111.5t230.5 -84.5q150 -43 243 -83t160.5 -115t67.5 -191q0 -164 -86 -270.5t-223.5 -155t-298.5 -48.5q-261 0 -423.5 91.5t-162.5 267.5zM735 1507l213 271h256l2 -6l-264 -265h-207z" />
<glyph unicode="&#x15b;" horiz-adv-x="1099" d="M12 0zM12 256q0 29 6.5 53.5t8.5 30.5h239q-8 -18 -8 -39q0 -70 59.5 -101.5t151.5 -31.5q98 0 170 34t72 101q0 59 -57.5 88t-182.5 64q-111 29 -181.5 57.5t-120.5 83.5t-50 143q0 170 135 266.5t344 96.5q193 0 308.5 -67.5t115.5 -182.5q0 -27 -5 -52.5t-9 -35.5 h-240q4 12 4 31q0 53 -45 82.5t-133 29.5q-106 0 -162.5 -34.5t-56.5 -84.5q0 -51 52 -75.5t171 -55.5q115 -29 188.5 -56.5t127 -85.5t53.5 -153q0 -199 -142.5 -293t-357.5 -94q-221 0 -338 77t-117 204zM533 1210l213 271h256l2 -6l-264 -265h-207z" />
<glyph unicode="&#x15c;" horiz-adv-x="1366" d="M35 0zM35 334q0 55 16 117h264q-12 -49 -12 -74q0 -86 78 -133t217 -47q178 0 267 54t89 148q0 57 -42 96.5t-105.5 64t-171.5 56.5q-145 43 -235.5 82t-154 112t-63.5 187q0 141 79 238.5t211 146t292 48.5q242 0 389 -83t147 -247q0 -43 -10 -103h-258q6 29 6 52 q0 76 -69.5 117.5t-190.5 41.5q-150 0 -237.5 -46t-87.5 -128q0 -72 74.5 -111.5t230.5 -84.5q150 -43 243 -83t160.5 -115t67.5 -191q0 -164 -86 -270.5t-223.5 -155t-298.5 -48.5q-261 0 -423.5 91.5t-162.5 267.5zM500 1501l264 277h221l168 -277h-203l-90 148l-133 -148 h-227z" />
<glyph unicode="&#x15d;" horiz-adv-x="1099" d="M12 0zM12 256q0 29 6.5 53.5t8.5 30.5h239q-8 -18 -8 -39q0 -70 59.5 -101.5t151.5 -31.5q98 0 170 34t72 101q0 59 -57.5 88t-182.5 64q-111 29 -181.5 57.5t-120.5 83.5t-50 143q0 170 135 266.5t344 96.5q193 0 308.5 -67.5t115.5 -182.5q0 -27 -5 -52.5t-9 -35.5 h-240q4 12 4 31q0 53 -45 82.5t-133 29.5q-106 0 -162.5 -34.5t-56.5 -84.5q0 -51 52 -75.5t171 -55.5q115 -29 188.5 -56.5t127 -85.5t53.5 -153q0 -199 -142.5 -293t-357.5 -94q-221 0 -338 77t-117 204zM297 1204l264 277h221l168 -277h-203l-90 148l-133 -148h-227z" />
<glyph unicode="&#x15e;" horiz-adv-x="1366" d="M35 334q0 55 16 117h264q-12 -49 -12 -74q0 -86 78 -133t217 -47q178 0 267 54t89 148q0 57 -42 96.5t-105.5 64t-171.5 56.5q-145 43 -235.5 82t-154 112t-63.5 187q0 141 79 238.5t211 146t292 48.5q242 0 389 -83t147 -247q0 -43 -10 -103h-258q6 29 6 52 q0 76 -69.5 117.5t-190.5 41.5q-150 0 -237.5 -46t-87.5 -128q0 -72 74.5 -111.5t230.5 -84.5q150 -43 243 -83t160.5 -115t67.5 -191q0 -223 -154.5 -339t-386.5 -130l-16 -50q78 -4 126 -35.5t48 -93.5q0 -96 -89 -135t-202 -39q-117 1 -211 17l18 100h191q47 0 71.5 13.5 t24.5 45.5q0 20 -17.5 29.5t-58.5 9.5h-90l47 138q-225 14 -360 104t-135 250z" />
<glyph unicode="&#x15f;" horiz-adv-x="1099" d="M12 256q0 29 6.5 53.5t8.5 30.5h239q-8 -18 -8 -39q0 -70 59.5 -101.5t151.5 -31.5q98 0 170 34t72 101q0 59 -57.5 88t-182.5 64q-111 29 -181.5 57.5t-120.5 83.5t-50 143q0 170 135 266.5t344 96.5q193 0 308.5 -67.5t115.5 -182.5q0 -27 -5 -52.5t-9 -35.5h-240 q4 12 4 31q0 53 -45 82.5t-133 29.5q-106 0 -162.5 -34.5t-56.5 -84.5q0 -51 52 -75.5t171 -55.5q115 -29 188.5 -56.5t127 -85.5t53.5 -153q0 -186 -125 -279t-320 -106l-16 -47q78 -4 126 -35.5t48 -93.5q0 -96 -89 -135t-202 -39q-117 0 -211 17l19 100h190 q47 0 71.5 13.5t24.5 45.5q0 20 -17 29.5t-58 9.5h-91l48 138q-172 18 -262.5 91.5t-90.5 184.5z" />
<glyph unicode="&#x160;" horiz-adv-x="1366" d="M35 0zM35 334q0 55 16 117h264q-12 -49 -12 -74q0 -86 78 -133t217 -47q178 0 267 54t89 148q0 57 -42 96.5t-105.5 64t-171.5 56.5q-145 43 -235.5 82t-154 112t-63.5 187q0 141 79 238.5t211 146t292 48.5q242 0 389 -83t147 -247q0 -43 -10 -103h-258q6 29 6 52 q0 76 -69.5 117.5t-190.5 41.5q-150 0 -237.5 -46t-87.5 -128q0 -72 74.5 -111.5t230.5 -84.5q150 -43 243 -83t160.5 -115t67.5 -191q0 -164 -86 -270.5t-223.5 -155t-298.5 -48.5q-261 0 -423.5 91.5t-162.5 267.5zM561 1778h203l92 -148l133 148h225l-264 -277h-221z" />
<glyph unicode="&#x161;" horiz-adv-x="1099" d="M12 0zM12 256q0 29 6.5 53.5t8.5 30.5h239q-8 -18 -8 -39q0 -70 59.5 -101.5t151.5 -31.5q98 0 170 34t72 101q0 59 -57.5 88t-182.5 64q-111 29 -181.5 57.5t-120.5 83.5t-50 143q0 170 135 266.5t344 96.5q193 0 308.5 -67.5t115.5 -182.5q0 -27 -5 -52.5t-9 -35.5 h-240q4 12 4 31q0 53 -45 82.5t-133 29.5q-106 0 -162.5 -34.5t-56.5 -84.5q0 -51 52 -75.5t171 -55.5q115 -29 188.5 -56.5t127 -85.5t53.5 -153q0 -199 -142.5 -293t-357.5 -94q-221 0 -338 77t-117 204zM359 1481h203l92 -148l133 148h225l-264 -277h-221z" />
<glyph unicode="&#x162;" horiz-adv-x="1251" d="M131 1180l41 225h1163l-39 -225h-452l-207 -1180h-55l-23 -70q78 -4 126 -35.5t48 -93.5q0 -96 -89 -135t-202 -39q-117 0 -211 17l19 100h190q47 0 72 13.5t25 45.5q0 20 -17.5 29.5t-58.5 9.5h-90l53 158h-49l209 1180h-453z" />
<glyph unicode="&#x163;" horiz-adv-x="643" d="M-49 -356l18 100h191q47 0 71.5 13.5t24.5 45.5q0 20 -17.5 29.5t-58.5 9.5h-90l60 174q-74 51 -74 160q0 39 24 168l93 533h-130l35 200h129l54 301h262l-70 -301h186l-36 -200h-185l-100 -574q-10 -41 -10 -63q0 -63 73 -64h99l-29 -168q-33 -12 -79 -22.5t-81 -10.5 h-18l-14 -45q78 -4 126 -35.5t48 -93.5q0 -96 -89.5 -135t-201.5 -39q-117 0 -211 17z" />
<glyph unicode="&#x164;" horiz-adv-x="1251" d="M131 0zM131 1180l41 225h1163l-39 -225h-452l-207 -1180h-262l209 1180h-453zM483 1778h203l92 -148l133 148h225l-264 -277h-221z" />
<glyph unicode="&#x165;" horiz-adv-x="907" d="M63 877l35 200h129l54 301h262l-70 -301h186l-36 -200h-185l-100 -574q-10 -41 -10 -63q0 -63 73 -64h99l-29 -168q-33 -12 -79 -22.5t-81 -10.5q-125 0 -180 55.5t-55 145.5q0 39 24 168l93 533h-130zM727 965l137 231h-96l41 236h246l-37 -213l-164 -254h-127z" />
<glyph unicode="&#x166;" horiz-adv-x="1251" d="M131 1180l41 225h1163l-39 -225h-452l-45 -267h192l-30 -172h-193l-131 -741h-262l131 741h-195l31 172h195l47 267h-453z" />
<glyph unicode="&#x167;" horiz-adv-x="643" d="M2 526l23 140h131l37 211h-130l35 200h129l54 301h262l-70 -301h186l-36 -200h-185l-37 -211h185l-25 -140h-184l-39 -223q-10 -41 -10 -63q0 -63 73 -64h99l-29 -168q-33 -12 -79 -22.5t-81 -10.5q-125 0 -180 55.5t-55 145.5q0 39 24 168l31 182h-129z" />
<glyph unicode="&#x168;" horiz-adv-x="1478" d="M115 0zM115 408q0 61 12 129l152 868h262l-154 -873q-10 -51 -10 -88q0 -121 71.5 -184t210.5 -63q158 0 259.5 84t130.5 245l155 879h262l-155 -885q-98 -545 -652 -545q-262 0 -403 111t-141 322zM572 1540q16 103 73.5 170.5t149.5 67.5q59 0 145 -37q82 -35 133 -35 q57 0 80 72h139q-18 -104 -75.5 -171t-151.5 -67q-37 0 -69.5 9.5t-73.5 27.5q-41 16 -71 25.5t-62 9.5q-57 0 -80 -72h-137z" />
<glyph unicode="&#x169;" d="M72 0zM72 250q0 45 9 99t11 63l119 665h246l-115 -651q-12 -74 -12 -100q0 -74 38 -106t107 -32q117 0 206 82t114 228l102 579h246l-191 -1077h-198v145h-15q-61 -74 -156.5 -122t-197.5 -48q-141 0 -227 67t-86 208zM369 1243q16 103 73.5 170.5t149.5 67.5 q59 0 145 -37q82 -35 133 -35q57 0 80 72h139q-18 -104 -75.5 -171t-151.5 -67q-37 0 -69.5 9.5t-73.5 27.5q-41 16 -71 25.5t-62 9.5q-57 0 -80 -72h-137z" />
<glyph unicode="&#x16a;" horiz-adv-x="1478" d="M115 0zM115 408q0 61 12 129l152 868h262l-154 -873q-10 -51 -10 -88q0 -121 71.5 -184t210.5 -63q158 0 259.5 84t130.5 245l155 879h262l-155 -885q-98 -545 -652 -545q-262 0 -403 111t-141 322zM602 1561l31 168h625l-31 -168h-625z" />
<glyph unicode="&#x16b;" d="M72 0zM72 250q0 45 9 99t11 63l119 665h246l-115 -651q-12 -74 -12 -100q0 -74 38 -106t107 -32q117 0 206 82t114 228l102 579h246l-191 -1077h-198v145h-15q-61 -74 -156.5 -122t-197.5 -48q-141 0 -227 67t-86 208zM399 1264l31 168h625l-31 -168h-625z" />
<glyph unicode="&#x16c;" horiz-adv-x="1478" d="M115 0zM115 408q0 61 12 129l152 868h262l-154 -873q-10 -51 -10 -88q0 -121 71.5 -184t210.5 -63q158 0 259.5 84t130.5 245l155 879h262l-155 -885q-98 -545 -652 -545q-262 0 -403 111t-141 322zM606 1729q0 33 4 49h164q0 -43 29.5 -73t103.5 -30q72 0 119 32t59 71 h164q-12 -55 -42 -107.5t-79 -91.5q-92 -68 -225 -68q-158 0 -227.5 61.5t-69.5 156.5z" />
<glyph unicode="&#x16d;" d="M72 0zM72 250q0 45 9 99t11 63l119 665h246l-115 -651q-12 -74 -12 -100q0 -74 38 -106t107 -32q117 0 206 82t114 228l102 579h246l-191 -1077h-198v145h-15q-61 -74 -156.5 -122t-197.5 -48q-141 0 -227 67t-86 208zM403 1432q0 33 4 49h164q0 -43 29.5 -73t103.5 -30 q72 0 119 32t59 71h164q-12 -55 -42 -107.5t-79 -91.5q-92 -68 -225 -68q-158 0 -227.5 61.5t-69.5 156.5z" />
<glyph unicode="&#x16e;" horiz-adv-x="1478" d="M115 0zM115 408q0 61 12 129l152 868h262l-154 -873q-10 -51 -10 -88q0 -121 71.5 -184t210.5 -63q158 0 259.5 84t130.5 245l155 879h262l-155 -885q-98 -545 -652 -545q-262 0 -403 111t-141 322zM717 1612q0 100 64.5 168.5t167.5 68.5q84 0 132 -48t48 -124 q0 -100 -64.5 -167.5t-167.5 -67.5q-81 0 -130.5 48t-49.5 122zM828 1626q0 -33 21.5 -54.5t58.5 -21.5q47 0 79.5 33t32.5 80q0 35 -22.5 56.5t-59.5 21.5q-49 0 -79.5 -34t-30.5 -81z" />
<glyph unicode="&#x16f;" d="M72 0zM72 250q0 45 9 99t11 63l119 665h246l-115 -651q-12 -74 -12 -100q0 -74 38 -106t107 -32q117 0 206 82t114 228l102 579h246l-191 -1077h-198v145h-15q-61 -74 -156.5 -122t-197.5 -48q-141 0 -227 67t-86 208zM514 1315q0 100 64.5 168.5t167.5 68.5 q84 0 132 -48t48 -124q0 -100 -64.5 -167.5t-167.5 -67.5q-81 0 -130.5 48t-49.5 122zM625 1329q0 -33 21.5 -54.5t58.5 -21.5q47 0 79.5 33t32.5 80q0 35 -22.5 56.5t-59.5 21.5q-49 0 -79.5 -34t-30.5 -81z" />
<glyph unicode="&#x170;" horiz-adv-x="1478" d="M115 0zM115 408q0 61 12 129l152 868h262l-154 -873q-10 -51 -10 -88q0 -121 71.5 -184t210.5 -63q158 0 259.5 84t130.5 245l155 879h262l-155 -885q-98 -545 -652 -545q-262 0 -403 111t-141 322zM633 1507l195 271h256l2 -6l-252 -265h-201zM973 1507l197 271h254 l2 -6l-250 -265h-203z" />
<glyph unicode="&#x171;" d="M72 0zM72 250q0 45 9 99t11 63l119 665h246l-115 -651q-12 -74 -12 -100q0 -74 38 -106t107 -32q117 0 206 82t114 228l102 579h246l-191 -1077h-198v145h-15q-61 -74 -156.5 -122t-197.5 -48q-141 0 -227 67t-86 208zM430 1210l195 271h256l2 -6l-252 -265h-201z M770 1210l197 271h254l2 -6l-250 -265h-203z" />
<glyph unicode="&#x172;" horiz-adv-x="1478" d="M115 408q0 61 12 129l152 868h262l-154 -873q-10 -51 -10 -88q0 -121 71.5 -184t210.5 -63q158 0 259.5 84t130.5 245l155 879h262l-155 -885q-82 -459 -490 -528q-70 -74 -69 -146q0 -80 86 -79h55l-21 -111q-82 -29 -145 -29q-78 0 -131 38t-53 118q0 104 92 192 q-252 6 -386 115t-134 318z" />
<glyph unicode="&#x173;" d="M72 250q0 45 9 99t11 63l119 665h246l-115 -651q-12 -55 -12 -100q0 -74 38 -106t107 -32q117 0 206 82t114 228l102 579h246l-191 -1077q-86 -39 -133 -77t-47 -89q0 -31 21.5 -49t66.5 -18h51l-18 -111q-82 -29 -145 -29q-78 0 -131.5 37t-53.5 117q0 135 191 221v143 h-15q-61 -74 -156.5 -122t-197.5 -48q-141 0 -227 67t-86 208z" />
<glyph unicode="&#x174;" horiz-adv-x="1933" d="M139 0zM139 1405h250l76 -909q4 -35 6 -107t2 -96h10q8 25 32 99.5t36 103.5l371 909h331l54 -909q4 -57 4 -119v-84h10q8 23 32.5 93.5t41.5 109.5l389 909h264l-631 -1405h-311l-57 926q-4 66 -5.5 126t-1.5 83h-8q-6 -23 -29.5 -95.5t-39.5 -113.5l-390 -926h-311z M791 1501l264 277h221l168 -277h-203l-90 148l-133 -148h-227z" />
<glyph unicode="&#x175;" horiz-adv-x="1554" d="M88 0zM88 1077h244l45 -499q6 -76 10 -166t6 -125h8q12 35 45 123t64 165l209 502h266l39 -504q6 -80 9 -167t5 -119h11q10 31 47 128t63 158l219 504h246l-512 -1077h-258l-37 559q-4 55 -5 131t-1 101h-10q-8 -23 -35 -99t-51 -131l-236 -561h-260zM537 1204l264 277 h221l168 -277h-203l-90 148l-133 -148h-227z" />
<glyph unicode="&#x176;" horiz-adv-x="1366" d="M137 0zM137 1405h273l284 -600h11l485 600h291l-686 -834l-101 -571h-262l100 571zM506 1501l264 277h221l168 -277h-203l-90 148l-133 -148h-227z" />
<glyph unicode="&#x177;" horiz-adv-x="1099" d="M-66 -350l31 170h111q80 0 141.5 42t110.5 138l-230 1077h244l111 -518q12 -59 27.5 -162.5t19.5 -136.5h10q12 31 54 131.5t77 167.5l256 518h256l-530 -1022q-106 -203 -225 -315.5t-285 -112.5q-88 0 -131 11.5t-48 11.5zM0 0zM303 1204l264 277h221l168 -277h-203 l-90 148l-133 -148h-227z" />
<glyph unicode="&#x178;" horiz-adv-x="1366" d="M137 0zM137 1405h273l284 -600h11l485 600h291l-686 -834l-101 -571h-262l100 571zM539 1552l39 226h219l-39 -226h-219zM951 1552l41 226h221l-41 -226h-221z" />
<glyph unicode="&#x179;" horiz-adv-x="1251" d="M-78 0l23 125l921 1057h-684l39 223h1092l-23 -127l-921 -1055h755l-41 -223h-1161zM0 0zM658 1507l213 271h256l2 -6l-264 -265h-207z" />
<glyph unicode="&#x17a;" horiz-adv-x="1024" d="M-51 0l20 115l664 762h-498l37 200h872l-20 -112l-668 -764h557l-34 -201h-930zM0 0zM524 1210l213 271h256l2 -6l-264 -265h-207z" />
<glyph unicode="&#x17b;" horiz-adv-x="1251" d="M-78 0l23 125l921 1057h-684l39 223h1092l-23 -127l-921 -1055h755l-41 -223h-1161zM0 0zM645 1538l43 242h241l-43 -242h-241z" />
<glyph unicode="&#x17c;" horiz-adv-x="1024" d="M-51 0l20 115l664 762h-498l37 200h872l-20 -112l-668 -764h557l-34 -201h-930zM0 0zM512 1241l43 242h241l-43 -242h-241z" />
<glyph unicode="&#x17d;" horiz-adv-x="1251" d="M-78 0l23 125l921 1057h-684l39 223h1092l-23 -127l-921 -1055h755l-41 -223h-1161zM0 0zM483 1778h203l92 -148l133 148h225l-264 -277h-221z" />
<glyph unicode="&#x17e;" horiz-adv-x="1024" d="M-51 0l20 115l664 762h-498l37 200h872l-20 -112l-668 -764h557l-34 -201h-930zM0 0zM350 1481h203l92 -148l133 148h225l-264 -277h-221z" />
<glyph unicode="&#x17f;" horiz-adv-x="569" d="M-203 -342l31 170h104q90 0 107 92l168 957h-156l37 200h156l22 140q23 123 94.5 201.5t212.5 78.5q47 0 97.5 -9t83.5 -22l-31 -170h-105q-90 0 -106 -92l-229 -1296q-49 -281 -308 -281q-45 0 -96 9.5t-82 21.5z" />
<glyph unicode="&#x2c6;" horiz-adv-x="681" d="M-10 1204l264 277h221l168 -277h-203l-90 148l-133 -148h-227z" />
<glyph unicode="&#x2da;" horiz-adv-x="681" d="M137 1315q0 100 64.5 168.5t167.5 68.5q84 0 132 -48t48 -124q0 -100 -64.5 -167.5t-167.5 -67.5q-81 0 -130.5 48t-49.5 122zM248 1329q0 -33 21.5 -54.5t58.5 -21.5q47 0 79.5 33t32.5 80q0 35 -22.5 56.5t-59.5 21.5q-49 0 -79.5 -34t-30.5 -81z" />
<glyph unicode="&#x2dc;" horiz-adv-x="681" d="M-18 1243q16 103 73.5 170.5t149.5 67.5q59 0 145 -37q82 -35 133 -35q57 0 80 72h139q-18 -104 -75.5 -171t-151.5 -67q-37 0 -69.5 9.5t-73.5 27.5q-41 16 -71 25.5t-62 9.5q-57 0 -80 -72h-137z" />
<glyph unicode="&#x1e0c;" horiz-adv-x="1478" d="M25 0l247 1405h533q293 0 449.5 -137.5t156.5 -417.5q0 -190 -57.5 -353t-167.5 -280q-102 -104 -244.5 -160.5t-314.5 -56.5h-602zM25 0zM326 223h286q203 0 337 116t171 327q20 115 21 178q0 168 -89 253t-259 85h-299zM461 -354l43 241h242l-43 -241h-242z" />
<glyph unicode="&#x1e0d;" d="M39 0zM39 401q0 174 58.5 336t173 263.5t274.5 101.5q117 0 193.5 -38t125.5 -112h13l92 529h245l-260 -1481h-198v143h-13q-61 -80 -145 -124t-178 -44q-184 0 -282.5 104.5t-98.5 321.5zM295 410q0 -115 48 -169.5t151 -54.5q110 0 183 72t106.5 183.5t33.5 232.5 q0 223 -205 223q-168 0 -242.5 -148.5t-74.5 -338.5zM328 -354l43 241h242l-43 -241h-242z" />
<glyph unicode="&#x1e24;" horiz-adv-x="1478" d="M25 0l247 1405h263l-103 -574h666l100 574h262l-248 -1405h-262l109 606h-666l-106 -606h-262zM25 0zM461 -354l43 241h242l-43 -241h-242z" />
<glyph unicode="&#x1e25;" d="M33 0l260 1481h246l-93 -527h13q61 66 149 107t183 41q141 0 226 -66.5t85 -208.5q0 -55 -19 -161l-118 -666h-246l115 651q12 74 12 101q0 74 -38 105.5t-108 31.5q-117 0 -205.5 -82t-113.5 -227l-102 -580h-246zM33 0zM328 -354l43 241h242l-43 -241h-242z" />
<glyph unicode="&#x1e44;" horiz-adv-x="1478" d="M25 0l247 1405h250l453 -860q16 -31 31.5 -65t23.5 -52l10 2q14 104 19 121l149 854h252l-248 -1405h-245l-451 862q-20 37 -37.5 76t-21.5 47h-11l-8 -49l-12 -80l-150 -856h-251zM25 0zM799 1538l43 242h241l-43 -242h-241z" />
<glyph unicode="&#x1e45;" d="M33 0l190 1077h199v-145h14q61 74 156.5 122t198.5 48q141 0 226 -66.5t85 -208.5q0 -55 -19 -161l-118 -666h-246l115 651q12 74 12 101q0 74 -38 105.5t-108 31.5q-117 0 -205.5 -82t-113.5 -227l-102 -580h-246zM33 0zM607 1241l43 242h241l-43 -242h-241z" />
<glyph unicode="&#x1e5a;" horiz-adv-x="1478" d="M25 0l247 1405h668q233 0 350 -99.5t117 -277.5q0 -168 -91 -284.5t-237 -163.5l197 -580h-279l-172 543h-442l-96 -543h-262zM25 0zM420 764h459q119 0 189.5 66.5t70.5 179.5q0 82 -51.5 127t-149.5 45h-444zM461 -354l43 241h242l-43 -241h-242z" />
<glyph unicode="&#x1e5b;" horiz-adv-x="757" d="M-29 -354l43 241h242l-43 -241h-242zM0 0zM33 0l190 1077h199l-4 -170h14q49 90 110.5 142.5t157.5 52.5q41 0 74 -8.5t33 -10.5l-39 -231h-78q-262 0 -315 -299l-96 -553h-246z" />
<glyph unicode="&#x1e62;" horiz-adv-x="1366" d="M35 0zM35 334q0 55 16 117h264q-12 -49 -12 -74q0 -86 78 -133t217 -47q178 0 267 54t89 148q0 57 -42 96.5t-105.5 64t-171.5 56.5q-145 43 -235.5 82t-154 112t-63.5 187q0 141 79 238.5t211 146t292 48.5q242 0 389 -83t147 -247q0 -43 -10 -103h-258q6 29 6 52 q0 76 -69.5 117.5t-190.5 41.5q-150 0 -237.5 -46t-87.5 -128q0 -72 74.5 -111.5t230.5 -84.5q150 -43 243 -83t160.5 -115t67.5 -191q0 -164 -86 -270.5t-223.5 -155t-298.5 -48.5q-261 0 -423.5 91.5t-162.5 267.5zM405 -354l43 241h242l-43 -241h-242z" />
<glyph unicode="&#x1e63;" horiz-adv-x="1099" d="M12 0zM12 256q0 29 6.5 53.5t8.5 30.5h239q-8 -18 -8 -39q0 -70 59.5 -101.5t151.5 -31.5q98 0 170 34t72 101q0 59 -57.5 88t-182.5 64q-111 29 -181.5 57.5t-120.5 83.5t-50 143q0 170 135 266.5t344 96.5q193 0 308.5 -67.5t115.5 -182.5q0 -27 -5 -52.5t-9 -35.5 h-240q4 12 4 31q0 53 -45 82.5t-133 29.5q-106 0 -162.5 -34.5t-56.5 -84.5q0 -51 52 -75.5t171 -55.5q115 -29 188.5 -56.5t127 -85.5t53.5 -153q0 -199 -142.5 -293t-357.5 -94q-221 0 -338 77t-117 204zM270 -354l43 241h242l-43 -241h-242z" />
<glyph unicode="&#x1e6c;" horiz-adv-x="1251" d="M131 0zM131 1180l41 225h1163l-39 -225h-452l-207 -1180h-262l209 1180h-453zM324 -354l43 241h242l-43 -241h-242z" />
<glyph unicode="&#x1e6d;" horiz-adv-x="643" d="M43 0zM43 -354l43 241h242l-43 -241h-242zM63 877l35 200h129l54 301h262l-70 -301h186l-36 -200h-185l-100 -574q-10 -41 -10 -63q0 -63 73 -64h99l-29 -168q-33 -12 -79 -22.5t-81 -10.5q-125 0 -180 55.5t-55 145.5q0 39 24 168l93 533h-130z" />
<glyph unicode="&#x1e80;" horiz-adv-x="1933" d="M139 0zM139 1405h250l76 -909q4 -35 6 -107t2 -96h10q8 25 32 99.5t36 103.5l371 909h331l54 -909q4 -57 4 -119v-84h10q8 23 32.5 93.5t41.5 109.5l389 909h264l-631 -1405h-311l-57 926q-4 66 -5.5 126t-1.5 83h-8q-6 -23 -29.5 -95.5t-39.5 -113.5l-390 -926h-311z M864 1772l2 6h240l119 -271h-187z" />
<glyph unicode="&#x1e81;" horiz-adv-x="1554" d="M88 0zM88 1077h244l45 -499q6 -76 10 -166t6 -125h8q12 35 45 123t64 165l209 502h266l39 -504q6 -80 9 -167t5 -119h11q10 31 47 128t63 158l219 504h246l-512 -1077h-258l-37 559q-4 55 -5 131t-1 101h-10q-8 -23 -35 -99t-51 -131l-236 -561h-260zM610 1475l2 6h240 l119 -271h-187z" />
<glyph unicode="&#x1e82;" horiz-adv-x="1933" d="M139 0zM139 1405h250l76 -909q4 -35 6 -107t2 -96h10q8 25 32 99.5t36 103.5l371 909h331l54 -909q4 -57 4 -119v-84h10q8 23 32.5 93.5t41.5 109.5l389 909h264l-631 -1405h-311l-57 926q-4 66 -5.5 126t-1.5 83h-8q-6 -23 -29.5 -95.5t-39.5 -113.5l-390 -926h-311z M1026 1507l213 271h256l2 -6l-264 -265h-207z" />
<glyph unicode="&#x1e83;" horiz-adv-x="1554" d="M88 0zM88 1077h244l45 -499q6 -76 10 -166t6 -125h8q12 35 45 123t64 165l209 502h266l39 -504q6 -80 9 -167t5 -119h11q10 31 47 128t63 158l219 504h246l-512 -1077h-258l-37 559q-4 55 -5 131t-1 101h-10q-8 -23 -35 -99t-51 -131l-236 -561h-260zM772 1210l213 271 h256l2 -6l-264 -265h-207z" />
<glyph unicode="&#x1e84;" horiz-adv-x="1933" d="M139 0zM139 1405h250l76 -909q4 -35 6 -107t2 -96h10q8 25 32 99.5t36 103.5l371 909h331l54 -909q4 -57 4 -119v-84h10q8 23 32.5 93.5t41.5 109.5l389 909h264l-631 -1405h-311l-57 926q-4 66 -5.5 126t-1.5 83h-8q-6 -23 -29.5 -95.5t-39.5 -113.5l-390 -926h-311z M823 1552l39 226h219l-39 -226h-219zM1235 1552l41 226h221l-41 -226h-221z" />
<glyph unicode="&#x1e85;" horiz-adv-x="1554" d="M88 0zM88 1077h244l45 -499q6 -76 10 -166t6 -125h8q12 35 45 123t64 165l209 502h266l39 -504q6 -80 9 -167t5 -119h11q10 31 47 128t63 158l219 504h246l-512 -1077h-258l-37 559q-4 55 -5 131t-1 101h-10q-8 -23 -35 -99t-51 -131l-236 -561h-260zM569 1255l39 226 h219l-39 -226h-219zM981 1255l41 226h221l-41 -226h-221z" />
<glyph unicode="&#x1e92;" horiz-adv-x="1251" d="M-78 0l23 125l921 1057h-684l39 223h1092l-23 -127l-921 -1055h755l-41 -223h-1161zM0 0zM348 -354l43 241h242l-43 -241h-242z" />
<glyph unicode="&#x1e93;" horiz-adv-x="1024" d="M-51 0l20 115l664 762h-498l37 200h872l-20 -112l-668 -764h557l-34 -201h-930zM0 0zM233 -354l43 241h242l-43 -241h-242z" />
<glyph unicode="&#x1e9e;" horiz-adv-x="1634" d="M25 0l145 821q51 297 255 453t519 156q166 0 292 -44.5t194.5 -127t68.5 -191.5q0 -113 -71.5 -212t-174.5 -136v-8q96 -29 149.5 -96.5t53.5 -168.5q0 -133 -66.5 -234t-183 -156.5t-264.5 -55.5h-465l43 225h438q68 0 120 31t81 80t29 100q0 68 -55.5 107t-157.5 39 h-393l39 227h389q59 0 109 31.5t78 82t28 103.5q0 86 -76 134t-225 48q-428 0 -494 -401l-143 -807h-262z" />
<glyph unicode="&#x1ea0;" horiz-adv-x="1439" d="M-100 0l792 1405h330l301 -1405h-270l-62 305h-647l-168 -305h-276zM0 0zM442 -354l43 241h242l-43 -241h-242zM467 526h481l-71 367q-14 70 -39 231q-6 25 -7.5 37.5t-3.5 18.5h-10l-26 -52q-84 -162 -123 -233z" />
<glyph unicode="&#x1ea1;" horiz-adv-x="1185" d="M37 0zM37 389q0 178 57.5 342t169 267.5t266.5 103.5q111 0 183.5 -37t117.5 -113h13l63 125h203q-27 -150 -48.5 -269.5t-37.5 -213.5q-63 -342 -63 -363q0 -55 59 -55h67l-30 -168q-61 -33 -156 -33q-80 0 -128 47.5t-48 129.5h-10q-55 -84 -143.5 -130.5t-186.5 -46.5 q-162 0 -255 106.5t-93 307.5zM244 -354l43 241h242l-43 -241h-242zM293 403q0 -109 43 -163t135 -54q109 0 178.5 80t101 192.5t31.5 215.5q0 223 -188 223q-106 0 -174 -76t-97.5 -188.5t-29.5 -229.5z" />
<glyph unicode="&#x1ea2;" horiz-adv-x="1439" d="M-100 0l792 1405h330l301 -1405h-270l-62 305h-647l-168 -305h-276zM0 0zM467 526h481l-71 367q-14 70 -39 231q-6 25 -7.5 37.5t-3.5 18.5h-10l-26 -52q-84 -162 -123 -233zM749 1700l14 86q78 16 166 16q80 0 140.5 -23.5t60.5 -80.5q0 -63 -51 -97t-125 -40l-10 -54 h-131l20 115h29q37 0 53 11.5t16 35.5q0 18 -15 24.5t-48 6.5h-119z" />
<glyph unicode="&#x1ea3;" horiz-adv-x="1185" d="M37 0zM37 389q0 178 57.5 342t169 267.5t266.5 103.5q111 0 183.5 -37t117.5 -113h13l63 125h203q-27 -150 -48.5 -269.5t-37.5 -213.5q-63 -342 -63 -363q0 -55 59 -55h67l-30 -168q-61 -33 -156 -33q-80 0 -128 47.5t-48 129.5h-10q-55 -84 -143.5 -130.5t-186.5 -46.5 q-162 0 -255 106.5t-93 307.5zM293 403q0 -109 43 -163t135 -54q109 0 178.5 80t101 192.5t31.5 215.5q0 223 -188 223q-106 0 -174 -76t-97.5 -188.5t-29.5 -229.5zM496 1403l14 86q78 16 166 16q80 0 140.5 -23.5t60.5 -80.5q0 -63 -51 -97t-125 -40l-10 -54h-131l20 115 h29q37 0 53 11.5t16 35.5q0 18 -15 24.5t-48 6.5h-119z" />
<glyph unicode="&#x1ea4;" horiz-adv-x="1439" d="M-100 0l792 1405h330l301 -1405h-270l-62 305h-647l-168 -305h-276zM0 0zM467 526h481l-71 367q-14 70 -39 231q-6 25 -7.5 37.5t-3.5 18.5h-10l-26 -52q-84 -162 -123 -233zM537 1501l264 277h221l168 -277h-203l-90 148l-133 -148h-227zM1094 1702l213 271h256l2 -6 l-264 -265h-207z" />
<glyph unicode="&#x1ea5;" horiz-adv-x="1185" d="M37 0zM37 389q0 178 57.5 342t169 267.5t266.5 103.5q111 0 183.5 -37t117.5 -113h13l63 125h203q-27 -150 -48.5 -269.5t-37.5 -213.5q-63 -342 -63 -363q0 -55 59 -55h67l-30 -168q-61 -33 -156 -33q-80 0 -128 47.5t-48 129.5h-10q-55 -84 -143.5 -130.5t-186.5 -46.5 q-162 0 -255 106.5t-93 307.5zM283 1204l264 277h221l168 -277h-203l-90 148l-133 -148h-227zM293 403q0 -109 43 -163t135 -54q109 0 178.5 80t101 192.5t31.5 215.5q0 223 -188 223q-106 0 -174 -76t-97.5 -188.5t-29.5 -229.5zM840 1405l213 271h256l2 -6l-264 -265h-207 z" />
<glyph unicode="&#x1ea6;" horiz-adv-x="1439" d="M-100 0l792 1405h330l301 -1405h-270l-62 305h-647l-168 -305h-276zM0 0zM467 526h481l-71 367q-14 70 -39 231q-6 25 -7.5 37.5t-3.5 18.5h-10l-26 -52q-84 -162 -123 -233zM537 1501l264 277h221l168 -277h-203l-90 148l-133 -148h-227zM1012 1967l2 6h240l119 -271 h-187z" />
<glyph unicode="&#x1ea7;" horiz-adv-x="1185" d="M37 0zM37 389q0 178 57.5 342t169 267.5t266.5 103.5q111 0 183.5 -37t117.5 -113h13l63 125h203q-27 -150 -48.5 -269.5t-37.5 -213.5q-63 -342 -63 -363q0 -55 59 -55h67l-30 -168q-61 -33 -156 -33q-80 0 -128 47.5t-48 129.5h-10q-55 -84 -143.5 -130.5t-186.5 -46.5 q-162 0 -255 106.5t-93 307.5zM283 1204l264 277h221l168 -277h-203l-90 148l-133 -148h-227zM293 403q0 -109 43 -163t135 -54q109 0 178.5 80t101 192.5t31.5 215.5q0 223 -188 223q-106 0 -174 -76t-97.5 -188.5t-29.5 -229.5zM758 1670l2 6h240l119 -271h-187z" />
<glyph unicode="&#x1ea8;" horiz-adv-x="1439" d="M-100 0l792 1405h330l301 -1405h-270l-62 305h-647l-168 -305h-276zM0 0zM467 526h481l-71 367q-14 70 -39 231q-6 25 -7.5 37.5t-3.5 18.5h-10l-26 -52q-84 -162 -123 -233zM537 1501l264 277h221l168 -277h-203l-90 148l-133 -148h-227zM1069 1895l14 86q78 16 166 16 q80 0 140.5 -23.5t60.5 -80.5q0 -63 -51 -97t-125 -40l-10 -54h-131l20 115h29q37 0 53 11.5t16 35.5q0 18 -15 24.5t-48 6.5h-119z" />
<glyph unicode="&#x1ea9;" horiz-adv-x="1185" d="M37 0zM37 389q0 178 57.5 342t169 267.5t266.5 103.5q111 0 183.5 -37t117.5 -113h13l63 125h203q-27 -150 -48.5 -269.5t-37.5 -213.5q-63 -342 -63 -363q0 -55 59 -55h67l-30 -168q-61 -33 -156 -33q-80 0 -128 47.5t-48 129.5h-10q-55 -84 -143.5 -130.5t-186.5 -46.5 q-162 0 -255 106.5t-93 307.5zM283 1204l264 277h221l168 -277h-203l-90 148l-133 -148h-227zM293 403q0 -109 43 -163t135 -54q109 0 178.5 80t101 192.5t31.5 215.5q0 223 -188 223q-106 0 -174 -76t-97.5 -188.5t-29.5 -229.5zM815 1598l14 86q78 16 166 16 q80 0 140.5 -23.5t60.5 -80.5q0 -63 -51 -97t-125 -40l-10 -54h-131l20 115h29q37 0 53 11.5t16 35.5q0 18 -15 24.5t-48 6.5h-119z" />
<glyph unicode="&#x1eaa;" horiz-adv-x="1439" d="M-100 0l792 1405h330l301 -1405h-270l-62 305h-647l-168 -305h-276zM0 0zM467 526h481l-71 367q-14 70 -39 231q-6 25 -7.5 37.5t-3.5 18.5h-10l-26 -52q-84 -162 -123 -233zM537 1501l264 277h221l168 -277h-203l-90 148l-133 -148h-227zM592 1868q16 103 73.5 170.5 t149.5 67.5q59 0 145 -37q82 -35 133 -35q57 0 80 72h139q-18 -104 -75.5 -171t-151.5 -67q-37 0 -69.5 9.5t-73.5 27.5q-41 16 -71 25.5t-62 9.5q-57 0 -80 -72h-137z" />
<glyph unicode="&#x1eab;" horiz-adv-x="1185" d="M37 0zM37 389q0 178 57.5 342t169 267.5t266.5 103.5q111 0 183.5 -37t117.5 -113h13l63 125h203q-27 -150 -48.5 -269.5t-37.5 -213.5q-63 -342 -63 -363q0 -55 59 -55h67l-30 -168q-61 -33 -156 -33q-80 0 -128 47.5t-48 129.5h-10q-55 -84 -143.5 -130.5t-186.5 -46.5 q-162 0 -255 106.5t-93 307.5zM283 1204l264 277h221l168 -277h-203l-90 148l-133 -148h-227zM293 403q0 -109 43 -163t135 -54q109 0 178.5 80t101 192.5t31.5 215.5q0 223 -188 223q-106 0 -174 -76t-97.5 -188.5t-29.5 -229.5zM338 1571q16 103 73.5 170.5t149.5 67.5 q59 0 145 -37q82 -35 133 -35q57 0 80 72h139q-18 -104 -75.5 -171t-151.5 -67q-37 0 -69.5 9.5t-73.5 27.5q-41 16 -71 25.5t-62 9.5q-57 0 -80 -72h-137z" />
<glyph unicode="&#x1eac;" horiz-adv-x="1439" d="M-100 0l792 1405h330l301 -1405h-270l-62 305h-647l-168 -305h-276zM0 0zM442 -354l43 241h242l-43 -241h-242zM467 526h481l-71 367q-14 70 -39 231q-6 25 -7.5 37.5t-3.5 18.5h-10l-26 -52q-84 -162 -123 -233zM537 1501l264 277h221l168 -277h-203l-90 148l-133 -148 h-227z" />
<glyph unicode="&#x1ead;" horiz-adv-x="1185" d="M37 0zM37 389q0 178 57.5 342t169 267.5t266.5 103.5q111 0 183.5 -37t117.5 -113h13l63 125h203q-27 -150 -48.5 -269.5t-37.5 -213.5q-63 -342 -63 -363q0 -55 59 -55h67l-30 -168q-61 -33 -156 -33q-80 0 -128 47.5t-48 129.5h-10q-55 -84 -143.5 -130.5t-186.5 -46.5 q-162 0 -255 106.5t-93 307.5zM244 -354l43 241h242l-43 -241h-242zM283 1204l264 277h221l168 -277h-203l-90 148l-133 -148h-227zM293 403q0 -109 43 -163t135 -54q109 0 178.5 80t101 192.5t31.5 215.5q0 223 -188 223q-106 0 -174 -76t-97.5 -188.5t-29.5 -229.5z" />
<glyph unicode="&#x1eae;" horiz-adv-x="1439" d="M-100 0l792 1405h330l301 -1405h-270l-62 305h-647l-168 -305h-276zM0 0zM467 526h481l-71 367q-14 70 -39 231q-6 25 -7.5 37.5t-3.5 18.5h-10l-26 -52q-84 -162 -123 -233zM580 1729q0 33 4 49h164q0 -43 29.5 -73t103.5 -30q72 0 119 32t59 71h164q-12 -55 -42 -107.5 t-79 -91.5q-92 -68 -225 -68q-158 0 -227.5 61.5t-69.5 156.5zM785 1777l213 271h256l2 -6l-264 -265h-207z" />
<glyph unicode="&#x1eaf;" horiz-adv-x="1185" d="M37 0zM37 389q0 178 57.5 342t169 267.5t266.5 103.5q111 0 183.5 -37t117.5 -113h13l63 125h203q-27 -150 -48.5 -269.5t-37.5 -213.5q-63 -342 -63 -363q0 -55 59 -55h67l-30 -168q-61 -33 -156 -33q-80 0 -128 47.5t-48 129.5h-10q-55 -84 -143.5 -130.5t-186.5 -46.5 q-162 0 -255 106.5t-93 307.5zM293 403q0 -109 43 -163t135 -54q109 0 178.5 80t101 192.5t31.5 215.5q0 223 -188 223q-106 0 -174 -76t-97.5 -188.5t-29.5 -229.5zM326 1432q0 33 4 49h164q0 -43 29.5 -73t103.5 -30q72 0 119 32t59 71h164q-12 -55 -42 -107.5t-79 -91.5 q-92 -68 -225 -68q-158 0 -227.5 61.5t-69.5 156.5zM531 1480l213 271h256l2 -6l-264 -265h-207z" />
<glyph unicode="&#x1eb0;" horiz-adv-x="1439" d="M-100 0l792 1405h330l301 -1405h-270l-62 305h-647l-168 -305h-276zM0 0zM467 526h481l-71 367q-14 70 -39 231q-6 25 -7.5 37.5t-3.5 18.5h-10l-26 -52q-84 -162 -123 -233zM580 1729q0 33 4 49h164q0 -43 29.5 -73t103.5 -30q72 0 119 32t59 71h164q-12 -55 -42 -107.5 t-79 -91.5q-92 -68 -225 -68q-158 0 -227.5 61.5t-69.5 156.5zM655 2042l2 6h240l119 -271h-187z" />
<glyph unicode="&#x1eb1;" horiz-adv-x="1185" d="M37 0zM37 389q0 178 57.5 342t169 267.5t266.5 103.5q111 0 183.5 -37t117.5 -113h13l63 125h203q-27 -150 -48.5 -269.5t-37.5 -213.5q-63 -342 -63 -363q0 -55 59 -55h67l-30 -168q-61 -33 -156 -33q-80 0 -128 47.5t-48 129.5h-10q-55 -84 -143.5 -130.5t-186.5 -46.5 q-162 0 -255 106.5t-93 307.5zM293 403q0 -109 43 -163t135 -54q109 0 178.5 80t101 192.5t31.5 215.5q0 223 -188 223q-106 0 -174 -76t-97.5 -188.5t-29.5 -229.5zM326 1432q0 33 4 49h164q0 -43 29.5 -73t103.5 -30q72 0 119 32t59 71h164q-12 -55 -42 -107.5t-79 -91.5 q-92 -68 -225 -68q-158 0 -227.5 61.5t-69.5 156.5zM428 1745l2 6h240l119 -271h-187z" />
<glyph unicode="&#x1eb2;" horiz-adv-x="1439" d="M-100 0l792 1405h330l301 -1405h-270l-62 305h-647l-168 -305h-276zM0 0zM467 526h481l-71 367q-14 70 -39 231q-6 25 -7.5 37.5t-3.5 18.5h-10l-26 -52q-84 -162 -123 -233zM580 1729q0 33 4 49h164q0 -43 29.5 -73t103.5 -30q72 0 119 32t59 71h164q-12 -55 -42 -107.5 t-79 -91.5q-92 -68 -225 -68q-158 0 -227.5 61.5t-69.5 156.5zM760 1970l14 86q78 16 166 16q80 0 140.5 -23.5t60.5 -80.5q0 -63 -51 -97t-125 -40l-10 -54h-131l20 115h29q37 0 53 11.5t16 35.5q0 18 -15 24.5t-48 6.5h-119z" />
<glyph unicode="&#x1eb3;" horiz-adv-x="1185" d="M37 0zM37 389q0 178 57.5 342t169 267.5t266.5 103.5q111 0 183.5 -37t117.5 -113h13l63 125h203q-27 -150 -48.5 -269.5t-37.5 -213.5q-63 -342 -63 -363q0 -55 59 -55h67l-30 -168q-61 -33 -156 -33q-80 0 -128 47.5t-48 129.5h-10q-55 -84 -143.5 -130.5t-186.5 -46.5 q-162 0 -255 106.5t-93 307.5zM293 403q0 -109 43 -163t135 -54q109 0 178.5 80t101 192.5t31.5 215.5q0 223 -188 223q-106 0 -174 -76t-97.5 -188.5t-29.5 -229.5zM326 1432q0 33 4 49h164q0 -43 29.5 -73t103.5 -30q72 0 119 32t59 71h164q-12 -55 -42 -107.5t-79 -91.5 q-92 -68 -225 -68q-158 0 -227.5 61.5t-69.5 156.5zM506 1673l14 86q78 16 166 16q80 0 140.5 -23.5t60.5 -80.5q0 -63 -51 -97t-125 -40l-10 -54h-131l20 115h29q37 0 53 11.5t16 35.5q0 18 -15 24.5t-48 6.5h-119z" />
<glyph unicode="&#x1eb4;" horiz-adv-x="1439" d="M-100 0l792 1405h330l301 -1405h-270l-62 305h-647l-168 -305h-276zM0 0zM467 526h481l-71 367q-14 70 -39 231q-6 25 -7.5 37.5t-3.5 18.5h-10l-26 -52q-84 -162 -123 -233zM574 1868q16 103 73.5 170.5t149.5 67.5q59 0 145 -37q82 -35 133 -35q57 0 80 72h139 q-18 -104 -75.5 -171t-151.5 -67q-37 0 -69.5 9.5t-73.5 27.5q-41 16 -71 25.5t-62 9.5q-57 0 -80 -72h-137zM580 1729q0 33 4 49h164q0 -43 29.5 -73t103.5 -30q72 0 119 32t59 71h164q-12 -55 -42 -107.5t-79 -91.5q-92 -68 -225 -68q-158 0 -227.5 61.5t-69.5 156.5z" />
<glyph unicode="&#x1eb5;" horiz-adv-x="1185" d="M37 0zM37 389q0 178 57.5 342t169 267.5t266.5 103.5q111 0 183.5 -37t117.5 -113h13l63 125h203q-27 -150 -48.5 -269.5t-37.5 -213.5q-63 -342 -63 -363q0 -55 59 -55h67l-30 -168q-61 -33 -156 -33q-80 0 -128 47.5t-48 129.5h-10q-55 -84 -143.5 -130.5t-186.5 -46.5 q-162 0 -255 106.5t-93 307.5zM293 403q0 -109 43 -163t135 -54q109 0 178.5 80t101 192.5t31.5 215.5q0 223 -188 223q-106 0 -174 -76t-97.5 -188.5t-29.5 -229.5zM320 1571q16 103 73.5 170.5t149.5 67.5q59 0 145 -37q82 -35 133 -35q57 0 80 72h139 q-18 -104 -75.5 -171t-151.5 -67q-37 0 -69.5 9.5t-73.5 27.5q-41 16 -71 25.5t-62 9.5q-57 0 -80 -72h-137zM326 1432q0 33 4 49h164q0 -43 29.5 -73t103.5 -30q72 0 119 32t59 71h164q-12 -55 -42 -107.5t-79 -91.5q-92 -68 -225 -68q-158 0 -227.5 61.5t-69.5 156.5z" />
<glyph unicode="&#x1eb6;" horiz-adv-x="1439" d="M-100 0l792 1405h330l301 -1405h-270l-62 305h-647l-168 -305h-276zM0 0zM442 -354l43 241h242l-43 -241h-242zM467 526h481l-71 367q-14 70 -39 231q-6 25 -7.5 37.5t-3.5 18.5h-10l-26 -52q-84 -162 -123 -233zM580 1729q0 33 4 49h164q0 -43 29.5 -73t103.5 -30 q72 0 119 32t59 71h164q-12 -55 -42 -107.5t-79 -91.5q-92 -68 -225 -68q-158 0 -227.5 61.5t-69.5 156.5z" />
<glyph unicode="&#x1eb7;" horiz-adv-x="1185" d="M37 0zM37 389q0 178 57.5 342t169 267.5t266.5 103.5q111 0 183.5 -37t117.5 -113h13l63 125h203q-27 -150 -48.5 -269.5t-37.5 -213.5q-63 -342 -63 -363q0 -55 59 -55h67l-30 -168q-61 -33 -156 -33q-80 0 -128 47.5t-48 129.5h-10q-55 -84 -143.5 -130.5t-186.5 -46.5 q-162 0 -255 106.5t-93 307.5zM244 -354l43 241h242l-43 -241h-242zM293 403q0 -109 43 -163t135 -54q109 0 178.5 80t101 192.5t31.5 215.5q0 223 -188 223q-106 0 -174 -76t-97.5 -188.5t-29.5 -229.5zM326 1432q0 33 4 49h164q0 -43 29.5 -73t103.5 -30q72 0 119 32 t59 71h164q-12 -55 -42 -107.5t-79 -91.5q-92 -68 -225 -68q-158 0 -227.5 61.5t-69.5 156.5z" />
<glyph unicode="&#x1eb8;" horiz-adv-x="1366" d="M25 0l247 1405h1096l-39 -223h-835l-62 -353h746l-39 -223h-746l-67 -383h848l-41 -223h-1108zM25 0zM405 -354l43 241h242l-43 -241h-242z" />
<glyph unicode="&#x1eb9;" horiz-adv-x="1138" d="M37 0zM37 389q0 193 60.5 354.5t190.5 260t330 98.5q438 0 439 -391q0 -82 -17 -158l-12 -74h-735q-6 -33 -6 -88q0 -113 54 -167t171 -54q104 0 171 51t85 156h242q-31 -199 -163 -300.5t-327 -101.5q-244 0 -363.5 101.5t-119.5 312.5zM291 -354l43 241h242l-43 -241 h-242zM328 653h477q6 37 6 72q0 94 -49 138t-137 44q-227 0 -297 -254z" />
<glyph unicode="&#x1eba;" horiz-adv-x="1366" d="M25 0l247 1405h1096l-39 -223h-835l-62 -353h746l-39 -223h-746l-67 -383h848l-41 -223h-1108zM25 0zM719 1700l14 86q78 16 166 16q80 0 140.5 -23.5t60.5 -80.5q0 -63 -51 -97t-125 -40l-10 -54h-131l20 115h29q37 0 53 11.5t16 35.5q0 18 -15 24.5t-48 6.5h-119z" />
<glyph unicode="&#x1ebb;" horiz-adv-x="1138" d="M37 0zM37 389q0 193 60.5 354.5t190.5 260t330 98.5q438 0 439 -391q0 -82 -17 -158l-12 -74h-735q-6 -33 -6 -88q0 -113 54 -167t171 -54q104 0 171 51t85 156h242q-31 -199 -163 -300.5t-327 -101.5q-244 0 -363.5 101.5t-119.5 312.5zM328 653h477q6 37 6 72 q0 94 -49 138t-137 44q-227 0 -297 -254zM524 1403l14 86q78 16 166 16q80 0 140.5 -23.5t60.5 -80.5q0 -63 -51 -97t-125 -40l-10 -54h-131l20 115h29q37 0 53 11.5t16 35.5q0 18 -15 24.5t-48 6.5h-119z" />
<glyph unicode="&#x1ebc;" horiz-adv-x="1366" d="M25 0l247 1405h1096l-39 -223h-835l-62 -353h746l-39 -223h-746l-67 -383h848l-41 -223h-1108zM25 0zM514 1540q16 103 73.5 170.5t149.5 67.5q59 0 145 -37q82 -35 133 -35q57 0 80 72h139q-18 -104 -75.5 -171t-151.5 -67q-37 0 -69.5 9.5t-73.5 27.5q-41 16 -71 25.5 t-62 9.5q-57 0 -80 -72h-137z" />
<glyph unicode="&#x1ebd;" horiz-adv-x="1138" d="M37 0zM37 389q0 193 60.5 354.5t190.5 260t330 98.5q438 0 439 -391q0 -82 -17 -158l-12 -74h-735q-6 -33 -6 -88q0 -113 54 -167t171 -54q104 0 171 51t85 156h242q-31 -199 -163 -300.5t-327 -101.5q-244 0 -363.5 101.5t-119.5 312.5zM320 1243q16 103 73.5 170.5 t149.5 67.5q59 0 145 -37q82 -35 133 -35q57 0 80 72h139q-18 -104 -75.5 -171t-151.5 -67q-37 0 -69.5 9.5t-73.5 27.5q-41 16 -71 25.5t-62 9.5q-57 0 -80 -72h-137zM328 653h477q6 37 6 72q0 94 -49 138t-137 44q-227 0 -297 -254z" />
<glyph unicode="&#x1ebe;" horiz-adv-x="1366" d="M25 0l247 1405h1096l-39 -223h-835l-62 -353h746l-39 -223h-746l-67 -383h848l-41 -223h-1108zM25 0zM506 1501l264 277h221l168 -277h-203l-90 148l-133 -148h-227zM1063 1702l213 271h256l2 -6l-264 -265h-207z" />
<glyph unicode="&#x1ebf;" horiz-adv-x="1138" d="M37 0zM37 389q0 193 60.5 354.5t190.5 260t330 98.5q438 0 439 -391q0 -82 -17 -158l-12 -74h-735q-6 -33 -6 -88q0 -113 54 -167t171 -54q104 0 171 51t85 156h242q-31 -199 -163 -300.5t-327 -101.5q-244 0 -363.5 101.5t-119.5 312.5zM312 1204l264 277h221l168 -277 h-203l-90 148l-133 -148h-227zM328 653h477q6 37 6 72q0 94 -49 138t-137 44q-227 0 -297 -254zM868 1405l213 271h256l2 -6l-264 -265h-207z" />
<glyph unicode="&#x1ec0;" horiz-adv-x="1366" d="M25 0l247 1405h1096l-39 -223h-835l-62 -353h746l-39 -223h-746l-67 -383h848l-41 -223h-1108zM25 0zM506 1501l264 277h221l168 -277h-203l-90 148l-133 -148h-227zM981 1967l2 6h240l119 -271h-187z" />
<glyph unicode="&#x1ec1;" horiz-adv-x="1138" d="M37 0zM37 389q0 193 60.5 354.5t190.5 260t330 98.5q438 0 439 -391q0 -82 -17 -158l-12 -74h-735q-6 -33 -6 -88q0 -113 54 -167t171 -54q104 0 171 51t85 156h242q-31 -199 -163 -300.5t-327 -101.5q-244 0 -363.5 101.5t-119.5 312.5zM312 1204l264 277h221l168 -277 h-203l-90 148l-133 -148h-227zM328 653h477q6 37 6 72q0 94 -49 138t-137 44q-227 0 -297 -254zM786 1670l2 6h240l119 -271h-187z" />
<glyph unicode="&#x1ec2;" horiz-adv-x="1366" d="M25 0l247 1405h1096l-39 -223h-835l-62 -353h746l-39 -223h-746l-67 -383h848l-41 -223h-1108zM25 0zM506 1501l264 277h221l168 -277h-203l-90 148l-133 -148h-227zM1038 1895l14 86q78 16 166 16q80 0 140.5 -23.5t60.5 -80.5q0 -63 -51 -97t-125 -40l-10 -54h-131 l20 115h29q37 0 53 11.5t16 35.5q0 18 -15 24.5t-48 6.5h-119z" />
<glyph unicode="&#x1ec3;" horiz-adv-x="1138" d="M37 0zM37 389q0 193 60.5 354.5t190.5 260t330 98.5q438 0 439 -391q0 -82 -17 -158l-12 -74h-735q-6 -33 -6 -88q0 -113 54 -167t171 -54q104 0 171 51t85 156h242q-31 -199 -163 -300.5t-327 -101.5q-244 0 -363.5 101.5t-119.5 312.5zM312 1204l264 277h221l168 -277 h-203l-90 148l-133 -148h-227zM328 653h477q6 37 6 72q0 94 -49 138t-137 44q-227 0 -297 -254zM844 1598l14 86q78 16 166 16q80 0 140.5 -23.5t60.5 -80.5q0 -63 -51 -97t-125 -40l-10 -54h-131l20 115h29q37 0 53 11.5t16 35.5q0 18 -15 24.5t-48 6.5h-119z" />
<glyph unicode="&#x1ec4;" horiz-adv-x="1366" d="M25 0l247 1405h1096l-39 -223h-835l-62 -353h746l-39 -223h-746l-67 -383h848l-41 -223h-1108zM25 0zM506 1501l264 277h221l168 -277h-203l-90 148l-133 -148h-227zM562 1868q16 103 73.5 170.5t149.5 67.5q59 0 145 -37q82 -35 133 -35q57 0 80 72h139 q-18 -104 -75.5 -171t-151.5 -67q-37 0 -69.5 9.5t-73.5 27.5q-41 16 -71 25.5t-62 9.5q-57 0 -80 -72h-137z" />
<glyph unicode="&#x1ec5;" horiz-adv-x="1138" d="M37 0zM37 389q0 193 60.5 354.5t190.5 260t330 98.5q438 0 439 -391q0 -82 -17 -158l-12 -74h-735q-6 -33 -6 -88q0 -113 54 -167t171 -54q104 0 171 51t85 156h242q-31 -199 -163 -300.5t-327 -101.5q-244 0 -363.5 101.5t-119.5 312.5zM312 1204l264 277h221l168 -277 h-203l-90 148l-133 -148h-227zM328 653h477q6 37 6 72q0 94 -49 138t-137 44q-227 0 -297 -254zM367 1571q16 103 73.5 170.5t149.5 67.5q59 0 145 -37q82 -35 133 -35q57 0 80 72h139q-18 -104 -75.5 -171t-151.5 -67q-37 0 -69.5 9.5t-73.5 27.5q-41 16 -71 25.5t-62 9.5 q-57 0 -80 -72h-137z" />
<glyph unicode="&#x1ec6;" horiz-adv-x="1366" d="M25 0l247 1405h1096l-39 -223h-835l-62 -353h746l-39 -223h-746l-67 -383h848l-41 -223h-1108zM25 0zM405 -354l43 241h242l-43 -241h-242zM506 1501l264 277h221l168 -277h-203l-90 148l-133 -148h-227z" />
<glyph unicode="&#x1ec7;" horiz-adv-x="1138" d="M37 0zM37 389q0 193 60.5 354.5t190.5 260t330 98.5q438 0 439 -391q0 -82 -17 -158l-12 -74h-735q-6 -33 -6 -88q0 -113 54 -167t171 -54q104 0 171 51t85 156h242q-31 -199 -163 -300.5t-327 -101.5q-244 0 -363.5 101.5t-119.5 312.5zM291 -354l43 241h242l-43 -241 h-242zM312 1204l264 277h221l168 -277h-203l-90 148l-133 -148h-227zM328 653h477q6 37 6 72q0 94 -49 138t-137 44q-227 0 -297 -254z" />
<glyph unicode="&#x1ec8;" horiz-adv-x="569" d="M35 0l248 1405h260l-248 -1405h-260zM35 0zM303 1700l14 86q78 16 166 16q80 0 140.5 -23.5t60.5 -80.5q0 -63 -51 -97t-125 -40l-10 -54h-131l20 115h29q37 0 53 11.5t16 35.5q0 18 -15 24.5t-48 6.5h-119z" />
<glyph unicode="&#x1ec9;" horiz-adv-x="569" d="M43 0l190 1077h246l-190 -1077h-246zM43 0zM252 1403l14 86q78 16 166 16q80 0 140.5 -23.5t60.5 -80.5q0 -63 -51 -97t-125 -40l-10 -54h-131l20 115h29q37 0 53 11.5t16 35.5q0 18 -15 24.5t-48 6.5h-119z" />
<glyph unicode="&#x1eca;" horiz-adv-x="569" d="M-18 -354l43 241h242l-43 -241h-242zM0 0zM35 0l248 1405h260l-248 -1405h-260z" />
<glyph unicode="&#x1ecb;" horiz-adv-x="530" d="M-35 -354l43 241h242l-43 -241h-242zM0 0zM27 0l190 1077h246l-191 -1077h-245zM246 1245l41 236h245l-40 -236h-246z" />
<glyph unicode="&#x1ecc;" horiz-adv-x="1593" d="M72 0zM72 526q0 100 14 187q53 340 263 528.5t544 188.5q301 0 467 -140.5t166 -406.5q0 -78 -15 -183q-51 -342 -263 -533.5t-548 -189.5q-301 -2 -464.5 138.5t-163.5 410.5zM340 541q0 -164 92 -253t266 -89q224 0 360 126t177 363q20 111 20 180q0 162 -93 251 t-267 89q-223 0 -358.5 -126t-176.5 -363q-20 -125 -20 -178zM518 -354l43 241h242l-43 -241h-242z" />
<glyph unicode="&#x1ecd;" d="M47 0zM47 416q0 90 14 168q41 254 185.5 386t398.5 132q139 0 245.5 -54.5t166 -154.5t61.5 -229q0 -84 -12 -170q-86 -518 -588 -519q-137 0 -243.5 55.5t-166 155t-61.5 230.5zM289 410q2 -109 65.5 -170.5t180.5 -61.5q147 0 228 86t105 273q10 59 11 131 q-2 111 -68 172t-184 61q-145 0 -225 -87t-105 -273q-8 -63 -8 -131zM328 -354l43 241h242l-43 -241h-242z" />
<glyph unicode="&#x1ece;" horiz-adv-x="1593" d="M72 0zM72 526q0 100 14 187q53 340 263 528.5t544 188.5q301 0 467 -140.5t166 -406.5q0 -78 -15 -183q-51 -342 -263 -533.5t-548 -189.5q-301 -2 -464.5 138.5t-163.5 410.5zM340 541q0 -164 92 -253t266 -89q224 0 360 126t177 363q20 111 20 180q0 162 -93 251 t-267 89q-223 0 -358.5 -126t-176.5 -363q-20 -125 -20 -178zM770 1700l14 86q78 16 166 16q80 0 140.5 -23.5t60.5 -80.5q0 -63 -51 -97t-125 -40l-10 -54h-131l20 115h29q37 0 53 11.5t16 35.5q0 18 -15 24.5t-48 6.5h-119z" />
<glyph unicode="&#x1ecf;" d="M47 0zM47 416q0 90 14 168q41 254 185.5 386t398.5 132q139 0 245.5 -54.5t166 -154.5t61.5 -229q0 -84 -12 -170q-86 -518 -588 -519q-137 0 -243.5 55.5t-166 155t-61.5 230.5zM289 410q2 -109 65.5 -170.5t180.5 -61.5q147 0 228 86t105 273q10 59 11 131 q-2 111 -68 172t-184 61q-145 0 -225 -87t-105 -273q-8 -63 -8 -131zM539 1403l14 86q78 16 166 16q80 0 140.5 -23.5t60.5 -80.5q0 -63 -51 -97t-125 -40l-10 -54h-131l20 115h29q37 0 53 11.5t16 35.5q0 18 -15 24.5t-48 6.5h-119z" />
<glyph unicode="&#x1ed0;" horiz-adv-x="1593" d="M72 0zM72 526q0 100 14 187q53 340 263 528.5t544 188.5q301 0 467 -140.5t166 -406.5q0 -78 -15 -183q-51 -342 -263 -533.5t-548 -189.5q-301 -2 -464.5 138.5t-163.5 410.5zM340 541q0 -164 92 -253t266 -89q224 0 360 126t177 363q20 111 20 180q0 162 -93 251 t-267 89q-223 0 -358.5 -126t-176.5 -363q-20 -125 -20 -178zM557 1501l264 277h221l168 -277h-203l-90 148l-133 -148h-227zM1114 1702l213 271h256l2 -6l-264 -265h-207z" />
<glyph unicode="&#x1ed1;" d="M47 0zM47 416q0 90 14 168q41 254 185.5 386t398.5 132q139 0 245.5 -54.5t166 -154.5t61.5 -229q0 -84 -12 -170q-86 -518 -588 -519q-137 0 -243.5 55.5t-166 155t-61.5 230.5zM289 410q2 -109 65.5 -170.5t180.5 -61.5q147 0 228 86t105 273q10 59 11 131 q-2 111 -68 172t-184 61q-145 0 -225 -87t-105 -273q-8 -63 -8 -131zM326 1204l264 277h221l168 -277h-203l-90 148l-133 -148h-227zM883 1405l213 271h256l2 -6l-264 -265h-207z" />
<glyph unicode="&#x1ed2;" horiz-adv-x="1593" d="M72 0zM72 526q0 100 14 187q53 340 263 528.5t544 188.5q301 0 467 -140.5t166 -406.5q0 -78 -15 -183q-51 -342 -263 -533.5t-548 -189.5q-301 -2 -464.5 138.5t-163.5 410.5zM340 541q0 -164 92 -253t266 -89q224 0 360 126t177 363q20 111 20 180q0 162 -93 251 t-267 89q-223 0 -358.5 -126t-176.5 -363q-20 -125 -20 -178zM557 1501l264 277h221l168 -277h-203l-90 148l-133 -148h-227zM1032 1967l2 6h240l119 -271h-187z" />
<glyph unicode="&#x1ed3;" d="M47 0zM47 416q0 90 14 168q41 254 185.5 386t398.5 132q139 0 245.5 -54.5t166 -154.5t61.5 -229q0 -84 -12 -170q-86 -518 -588 -519q-137 0 -243.5 55.5t-166 155t-61.5 230.5zM289 410q2 -109 65.5 -170.5t180.5 -61.5q147 0 228 86t105 273q10 59 11 131 q-2 111 -68 172t-184 61q-145 0 -225 -87t-105 -273q-8 -63 -8 -131zM326 1204l264 277h221l168 -277h-203l-90 148l-133 -148h-227zM801 1670l2 6h240l119 -271h-187z" />
<glyph unicode="&#x1ed4;" horiz-adv-x="1593" d="M72 0zM72 526q0 100 14 187q53 340 263 528.5t544 188.5q301 0 467 -140.5t166 -406.5q0 -78 -15 -183q-51 -342 -263 -533.5t-548 -189.5q-301 -2 -464.5 138.5t-163.5 410.5zM340 541q0 -164 92 -253t266 -89q224 0 360 126t177 363q20 111 20 180q0 162 -93 251 t-267 89q-223 0 -358.5 -126t-176.5 -363q-20 -125 -20 -178zM557 1501l264 277h221l168 -277h-203l-90 148l-133 -148h-227zM1089 1895l14 86q78 16 166 16q80 0 140.5 -23.5t60.5 -80.5q0 -63 -51 -97t-125 -40l-10 -54h-131l20 115h29q37 0 53 11.5t16 35.5 q0 18 -15 24.5t-48 6.5h-119z" />
<glyph unicode="&#x1ed5;" d="M47 0zM47 416q0 90 14 168q41 254 185.5 386t398.5 132q139 0 245.5 -54.5t166 -154.5t61.5 -229q0 -84 -12 -170q-86 -518 -588 -519q-137 0 -243.5 55.5t-166 155t-61.5 230.5zM289 410q2 -109 65.5 -170.5t180.5 -61.5q147 0 228 86t105 273q10 59 11 131 q-2 111 -68 172t-184 61q-145 0 -225 -87t-105 -273q-8 -63 -8 -131zM326 1204l264 277h221l168 -277h-203l-90 148l-133 -148h-227zM858 1598l14 86q78 16 166 16q80 0 140.5 -23.5t60.5 -80.5q0 -63 -51 -97t-125 -40l-10 -54h-131l20 115h29q37 0 53 11.5t16 35.5 q0 18 -15 24.5t-48 6.5h-119z" />
<glyph unicode="&#x1ed6;" horiz-adv-x="1593" d="M72 0zM72 526q0 100 14 187q53 340 263 528.5t544 188.5q301 0 467 -140.5t166 -406.5q0 -78 -15 -183q-51 -342 -263 -533.5t-548 -189.5q-301 -2 -464.5 138.5t-163.5 410.5zM340 541q0 -164 92 -253t266 -89q224 0 360 126t177 363q20 111 20 180q0 162 -93 251 t-267 89q-223 0 -358.5 -126t-176.5 -363q-20 -125 -20 -178zM557 1501l264 277h221l168 -277h-203l-90 148l-133 -148h-227zM613 1868q16 103 73.5 170.5t149.5 67.5q59 0 145 -37q82 -35 133 -35q57 0 80 72h139q-18 -104 -75.5 -171t-151.5 -67q-37 0 -69.5 9.5 t-73.5 27.5q-41 16 -71 25.5t-62 9.5q-57 0 -80 -72h-137z" />
<glyph unicode="&#x1ed7;" d="M47 0zM47 416q0 90 14 168q41 254 185.5 386t398.5 132q139 0 245.5 -54.5t166 -154.5t61.5 -229q0 -84 -12 -170q-86 -518 -588 -519q-137 0 -243.5 55.5t-166 155t-61.5 230.5zM289 410q2 -109 65.5 -170.5t180.5 -61.5q147 0 228 86t105 273q10 59 11 131 q-2 111 -68 172t-184 61q-145 0 -225 -87t-105 -273q-8 -63 -8 -131zM326 1204l264 277h221l168 -277h-203l-90 148l-133 -148h-227zM381 1571q16 103 73.5 170.5t149.5 67.5q59 0 145 -37q82 -35 133 -35q57 0 80 72h139q-18 -104 -75.5 -171t-151.5 -67q-37 0 -69.5 9.5 t-73.5 27.5q-41 16 -71 25.5t-62 9.5q-57 0 -80 -72h-137z" />
<glyph unicode="&#x1ed8;" horiz-adv-x="1593" d="M72 0zM72 526q0 100 14 187q53 340 263 528.5t544 188.5q301 0 467 -140.5t166 -406.5q0 -78 -15 -183q-51 -342 -263 -533.5t-548 -189.5q-301 -2 -464.5 138.5t-163.5 410.5zM340 541q0 -164 92 -253t266 -89q224 0 360 126t177 363q20 111 20 180q0 162 -93 251 t-267 89q-223 0 -358.5 -126t-176.5 -363q-20 -125 -20 -178zM518 -354l43 241h242l-43 -241h-242zM557 1501l264 277h221l168 -277h-203l-90 148l-133 -148h-227z" />
<glyph unicode="&#x1ed9;" d="M47 0zM47 416q0 90 14 168q41 254 185.5 386t398.5 132q139 0 245.5 -54.5t166 -154.5t61.5 -229q0 -84 -12 -170q-86 -518 -588 -519q-137 0 -243.5 55.5t-166 155t-61.5 230.5zM289 410q2 -109 65.5 -170.5t180.5 -61.5q147 0 228 86t105 273q10 59 11 131 q-2 111 -68 172t-184 61q-145 0 -225 -87t-105 -273q-8 -63 -8 -131zM326 1204l264 277h221l168 -277h-203l-90 148l-133 -148h-227zM328 -354l43 241h242l-43 -241h-242z" />
<glyph unicode="&#x1eda;" horiz-adv-x="1593" d="M72 0zM72 526q0 100 14 187q53 340 263 528.5t544 188.5q303 0 469 -142q76 20 125 56t78 92h-111l47 260h277l-21 -111q-27 -158 -101.5 -256t-205.5 -145q76 -127 76 -301q0 -78 -15 -183q-51 -342 -263 -533.5t-548 -189.5q-301 -2 -464.5 138.5t-163.5 410.5z M340 541q0 -164 92 -253t266 -89q223 0 359.5 126t177.5 363q20 110 20 180q0 162 -93 251t-267 89q-223 0 -358.5 -126t-176.5 -363q-20 -125 -20 -178zM793 1507l213 271h256l2 -6l-264 -265h-207z" />
<glyph unicode="&#x1edb;" d="M47 0zM47 416q0 90 14 168q41 254 184.5 386t395.5 132q195 0 324 -103q143 41 196 146h-110l47 260h276l-20 -111q-27 -156 -99.5 -253t-199.5 -146q59 -94 63 -231q0 -84 -12 -170q-86 -518 -588 -519q-137 0 -243.5 55.5t-166 155t-61.5 230.5zM289 410 q2 -109 65.5 -170.5t180.5 -61.5q147 0 228 86t105 273q11 59 11 131q-2 111 -68 172t-184 61q-145 0 -225 -87t-105 -273q-8 -63 -8 -131zM561 1210l213 271h256l2 -6l-264 -265h-207z" />
<glyph unicode="&#x1edc;" horiz-adv-x="1593" d="M72 0zM72 526q0 100 14 187q53 340 263 528.5t544 188.5q303 0 469 -142q76 20 125 56t78 92h-111l47 260h277l-21 -111q-27 -158 -101.5 -256t-205.5 -145q76 -127 76 -301q0 -78 -15 -183q-51 -342 -263 -533.5t-548 -189.5q-301 -2 -464.5 138.5t-163.5 410.5z M340 541q0 -164 92 -253t266 -89q223 0 359.5 126t177.5 363q20 110 20 180q0 162 -93 251t-267 89q-223 0 -358.5 -126t-176.5 -363q-20 -125 -20 -178zM631 1772l2 6h240l119 -271h-187z" />
<glyph unicode="&#x1edd;" d="M47 0zM47 416q0 90 14 168q41 254 184.5 386t395.5 132q195 0 324 -103q143 41 196 146h-110l47 260h276l-20 -111q-27 -156 -99.5 -253t-199.5 -146q59 -94 63 -231q0 -84 -12 -170q-86 -518 -588 -519q-137 0 -243.5 55.5t-166 155t-61.5 230.5zM289 410 q2 -109 65.5 -170.5t180.5 -61.5q147 0 228 86t105 273q11 59 11 131q-2 111 -68 172t-184 61q-145 0 -225 -87t-105 -273q-8 -63 -8 -131zM399 1475l2 6h240l119 -271h-187z" />
<glyph unicode="&#x1ede;" horiz-adv-x="1593" d="M72 0zM72 526q0 100 14 187q53 340 263 528.5t544 188.5q303 0 469 -142q76 20 125 56t78 92h-111l47 260h277l-21 -111q-27 -158 -101.5 -256t-205.5 -145q76 -127 76 -301q0 -78 -15 -183q-51 -342 -263 -533.5t-548 -189.5q-301 -2 -464.5 138.5t-163.5 410.5z M340 541q0 -164 92 -253t266 -89q223 0 359.5 126t177.5 363q20 110 20 180q0 162 -93 251t-267 89q-223 0 -358.5 -126t-176.5 -363q-20 -125 -20 -178zM770 1700l14 86q78 16 166 16q80 0 140.5 -23.5t60.5 -80.5q0 -63 -51 -97t-125 -40l-10 -54h-131l20 115h29 q37 0 53 11.5t16 35.5q0 18 -15 24.5t-48 6.5h-119z" />
<glyph unicode="&#x1edf;" d="M47 0zM47 416q0 90 14 168q41 254 184.5 386t395.5 132q195 0 324 -103q143 41 196 146h-110l47 260h276l-20 -111q-27 -156 -99.5 -253t-199.5 -146q59 -94 63 -231q0 -84 -12 -170q-86 -518 -588 -519q-137 0 -243.5 55.5t-166 155t-61.5 230.5zM289 410 q2 -109 65.5 -170.5t180.5 -61.5q147 0 228 86t105 273q11 59 11 131q-2 111 -68 172t-184 61q-145 0 -225 -87t-105 -273q-8 -63 -8 -131zM539 1403l14 86q78 16 166 16q80 0 140.5 -23.5t60.5 -80.5q0 -63 -51 -97t-125 -40l-10 -54h-131l20 115h29q37 0 53 11.5t16 35.5 q0 18 -15 24.5t-48 6.5h-119z" />
<glyph unicode="&#x1ee0;" horiz-adv-x="1593" d="M72 0zM72 526q0 100 14 187q53 340 263 528.5t544 188.5q303 0 469 -142q76 20 125 56t78 92h-111l47 260h277l-21 -111q-27 -158 -101.5 -256t-205.5 -145q76 -127 76 -301q0 -78 -15 -183q-51 -342 -263 -533.5t-548 -189.5q-301 -2 -464.5 138.5t-163.5 410.5z M340 541q0 -164 92 -253t266 -89q223 0 359.5 126t177.5 363q20 110 20 180q0 162 -93 251t-267 89q-223 0 -358.5 -126t-176.5 -363q-20 -125 -20 -178zM566 1540q16 103 73.5 170.5t149.5 67.5q59 0 145 -37q82 -35 133 -35q57 0 80 72h139q-18 -104 -75.5 -171 t-151.5 -67q-37 0 -69.5 9.5t-73.5 27.5q-41 16 -71 25.5t-62 9.5q-57 0 -80 -72h-137z" />
<glyph unicode="&#x1ee1;" d="M47 0zM47 416q0 90 14 168q41 254 184.5 386t395.5 132q195 0 324 -103q143 41 196 146h-110l47 260h276l-20 -111q-27 -156 -99.5 -253t-199.5 -146q59 -94 63 -231q0 -84 -12 -170q-86 -518 -588 -519q-137 0 -243.5 55.5t-166 155t-61.5 230.5zM289 410 q2 -109 65.5 -170.5t180.5 -61.5q147 0 228 86t105 273q11 59 11 131q-2 111 -68 172t-184 61q-145 0 -225 -87t-105 -273q-8 -63 -8 -131zM334 1243q16 103 73.5 170.5t149.5 67.5q59 0 145 -37q82 -35 133 -35q57 0 80 72h139q-18 -104 -75.5 -171t-151.5 -67 q-37 0 -69.5 9.5t-73.5 27.5q-41 16 -71 25.5t-62 9.5q-57 0 -80 -72h-137z" />
<glyph unicode="&#x1ee2;" horiz-adv-x="1593" d="M72 0zM72 526q0 100 14 187q53 340 263 528.5t544 188.5q303 0 469 -142q76 20 125 56t78 92h-111l47 260h277l-21 -111q-27 -158 -101.5 -256t-205.5 -145q76 -127 76 -301q0 -78 -15 -183q-51 -342 -263 -533.5t-548 -189.5q-301 -2 -464.5 138.5t-163.5 410.5z M340 541q0 -164 92 -253t266 -89q223 0 359.5 126t177.5 363q20 110 20 180q0 162 -93 251t-267 89q-223 0 -358.5 -126t-176.5 -363q-20 -125 -20 -178zM518 -354l43 241h242l-43 -241h-242z" />
<glyph unicode="&#x1ee3;" d="M47 0zM47 416q0 90 14 168q41 254 184.5 386t395.5 132q195 0 324 -103q143 41 196 146h-110l47 260h276l-20 -111q-27 -156 -99.5 -253t-199.5 -146q59 -94 63 -231q0 -84 -12 -170q-86 -518 -588 -519q-137 0 -243.5 55.5t-166 155t-61.5 230.5zM289 410 q2 -109 65.5 -170.5t180.5 -61.5q147 0 228 86t105 273q11 59 11 131q-2 111 -68 172t-184 61q-145 0 -225 -87t-105 -273q-8 -63 -8 -131zM328 -354l43 241h242l-43 -241h-242z" />
<glyph unicode="&#x1ee4;" horiz-adv-x="1478" d="M115 0zM115 408q0 61 12 129l152 868h262l-154 -873q-10 -51 -10 -88q0 -121 71.5 -184t210.5 -63q158 0 259.5 84t130.5 245l155 879h262l-155 -885q-98 -545 -652 -545q-262 0 -403 111t-141 322zM461 -354l43 241h242l-43 -241h-242z" />
<glyph unicode="&#x1ee5;" d="M72 0zM72 250q0 45 9 99t11 63l119 665h246l-115 -651q-12 -74 -12 -100q0 -74 38 -106t107 -32q117 0 206 82t114 228l102 579h246l-191 -1077h-198v145h-15q-61 -74 -156.5 -122t-197.5 -48q-141 0 -227 67t-86 208zM328 -354l43 241h242l-43 -241h-242z" />
<glyph unicode="&#x1ee6;" horiz-adv-x="1478" d="M115 0zM115 408q0 61 12 129l152 868h262l-154 -873q-10 -51 -10 -88q0 -121 71.5 -184t210.5 -63q158 0 259.5 84t130.5 245l155 879h262l-155 -885q-98 -545 -652 -545q-262 0 -403 111t-141 322zM776 1700l14 86q78 16 166 16q80 0 140.5 -23.5t60.5 -80.5 q0 -63 -51 -97t-125 -40l-10 -54h-131l20 115h29q37 0 53 11.5t16 35.5q0 18 -15 24.5t-48 6.5h-119z" />
<glyph unicode="&#x1ee7;" d="M72 0zM72 250q0 45 9 99t11 63l119 665h246l-115 -651q-12 -74 -12 -100q0 -74 38 -106t107 -32q117 0 206 82t114 228l102 579h246l-191 -1077h-198v145h-15q-61 -74 -156.5 -122t-197.5 -48q-141 0 -227 67t-86 208zM573 1403l14 86q78 16 166 16q80 0 140.5 -23.5 t60.5 -80.5q0 -63 -51 -97t-125 -40l-10 -54h-131l20 115h29q37 0 53 11.5t16 35.5q0 18 -15 24.5t-48 6.5h-119z" />
<glyph unicode="&#x1ee8;" horiz-adv-x="1478" d="M115 0zM115 408q0 61 12 129l152 868h262l-154 -873q-10 -51 -10 -88q0 -121 71.5 -184t210.5 -63q158 0 259.5 84t130.5 245l155 879h230q76 39 112 113h-110l47 260h276l-20 -111q-27 -156 -98.5 -252t-198.5 -145l-131 -750q-98 -545 -652 -545q-262 0 -403 111 t-141 322zM799 1507l213 271h256l2 -6l-264 -265h-207z" />
<glyph unicode="&#x1ee9;" d="M72 0zM72 250q0 45 9 99t11 63l119 665h246l-115 -651q-12 -74 -12 -100q0 -74 38 -106t107 -32q117 0 206 82t114 228l102 579h150q137 37 192 144h-111l48 260h276l-20 -111q-27 -158 -102 -256t-206 -145l-172 -969h-198v145h-15q-61 -74 -156.5 -122t-197.5 -48 q-141 0 -227 67t-86 208zM596 1210l213 271h256l2 -6l-264 -265h-207z" />
<glyph unicode="&#x1eea;" horiz-adv-x="1478" d="M115 0zM115 408q0 61 12 129l152 868h262l-154 -873q-10 -51 -10 -88q0 -121 71.5 -184t210.5 -63q158 0 259.5 84t130.5 245l155 879h230q76 39 112 113h-110l47 260h276l-20 -111q-27 -156 -98.5 -252t-198.5 -145l-131 -750q-98 -545 -652 -545q-262 0 -403 111 t-141 322zM637 1772l2 6h240l119 -271h-187z" />
<glyph unicode="&#x1eeb;" d="M72 0zM72 250q0 45 9 99t11 63l119 665h246l-115 -651q-12 -74 -12 -100q0 -74 38 -106t107 -32q117 0 206 82t114 228l102 579h150q137 37 192 144h-111l48 260h276l-20 -111q-27 -158 -102 -256t-206 -145l-172 -969h-198v145h-15q-61 -74 -156.5 -122t-197.5 -48 q-141 0 -227 67t-86 208zM434 1475l2 6h240l119 -271h-187z" />
<glyph unicode="&#x1eec;" horiz-adv-x="1478" d="M115 0zM115 408q0 61 12 129l152 868h262l-154 -873q-10 -51 -10 -88q0 -121 71.5 -184t210.5 -63q158 0 259.5 84t130.5 245l155 879h230q76 39 112 113h-110l47 260h276l-20 -111q-27 -156 -98.5 -252t-198.5 -145l-131 -750q-98 -545 -652 -545q-262 0 -403 111 t-141 322zM776 1700l14 86q78 16 166 16q80 0 140.5 -23.5t60.5 -80.5q0 -63 -51 -97t-125 -40l-10 -54h-131l20 115h29q37 0 53 11.5t16 35.5q0 18 -15 24.5t-48 6.5h-119z" />
<glyph unicode="&#x1eed;" d="M72 0zM72 250q0 45 9 99t11 63l119 665h246l-115 -651q-12 -74 -12 -100q0 -74 38 -106t107 -32q117 0 206 82t114 228l102 579h150q137 37 192 144h-111l48 260h276l-20 -111q-27 -158 -102 -256t-206 -145l-172 -969h-198v145h-15q-61 -74 -156.5 -122t-197.5 -48 q-141 0 -227 67t-86 208zM573 1403l14 86q78 16 166 16q80 0 140.5 -23.5t60.5 -80.5q0 -63 -51 -97t-125 -40l-10 -54h-131l20 115h29q37 0 53 11.5t16 35.5q0 18 -15 24.5t-48 6.5h-119z" />
<glyph unicode="&#x1eee;" horiz-adv-x="1478" d="M115 0zM115 408q0 61 12 129l152 868h262l-154 -873q-10 -51 -10 -88q0 -121 71.5 -184t210.5 -63q158 0 259.5 84t130.5 245l155 879h230q76 39 112 113h-110l47 260h276l-20 -111q-27 -156 -98.5 -252t-198.5 -145l-131 -750q-98 -545 -652 -545q-262 0 -403 111 t-141 322zM572 1540q16 103 73.5 170.5t149.5 67.5q59 0 145 -37q82 -35 133 -35q57 0 80 72h139q-18 -104 -75.5 -171t-151.5 -67q-37 0 -69.5 9.5t-73.5 27.5q-41 16 -71 25.5t-62 9.5q-57 0 -80 -72h-137z" />
<glyph unicode="&#x1eef;" d="M72 0zM72 250q0 45 9 99t11 63l119 665h246l-115 -651q-12 -74 -12 -100q0 -74 38 -106t107 -32q117 0 206 82t114 228l102 579h150q137 37 192 144h-111l48 260h276l-20 -111q-27 -158 -102 -256t-206 -145l-172 -969h-198v145h-15q-61 -74 -156.5 -122t-197.5 -48 q-141 0 -227 67t-86 208zM369 1243q16 103 73.5 170.5t149.5 67.5q59 0 145 -37q82 -35 133 -35q57 0 80 72h139q-18 -104 -75.5 -171t-151.5 -67q-37 0 -69.5 9.5t-73.5 27.5q-41 16 -71 25.5t-62 9.5q-57 0 -80 -72h-137z" />
<glyph unicode="&#x1ef0;" horiz-adv-x="1478" d="M115 0zM115 408q0 61 12 129l152 868h262l-154 -873q-10 -51 -10 -88q0 -121 71.5 -184t210.5 -63q158 0 259.5 84t130.5 245l155 879h230q76 39 112 113h-110l47 260h276l-20 -111q-27 -156 -98.5 -252t-198.5 -145l-131 -750q-98 -545 -652 -545q-262 0 -403 111 t-141 322zM461 -354l43 241h242l-43 -241h-242z" />
<glyph unicode="&#x1ef1;" d="M72 0zM72 250q0 45 9 99t11 63l119 665h246l-115 -651q-12 -74 -12 -100q0 -74 38 -106t107 -32q117 0 206 82t114 228l102 579h150q137 37 192 144h-111l48 260h276l-20 -111q-27 -158 -102 -256t-206 -145l-172 -969h-198v145h-15q-61 -74 -156.5 -122t-197.5 -48 q-141 0 -227 67t-86 208zM328 -354l43 241h242l-43 -241h-242z" />
<glyph unicode="&#x1ef2;" horiz-adv-x="1366" d="M137 0zM137 1405h273l284 -600h11l485 600h291l-686 -834l-101 -571h-262l100 571zM579 1772l2 6h240l119 -271h-187z" />
<glyph unicode="&#x1ef3;" horiz-adv-x="1099" d="M-66 -350l31 170h111q80 0 141.5 42t110.5 138l-230 1077h244l111 -518q12 -59 27.5 -162.5t19.5 -136.5h10q12 31 54 131.5t77 167.5l256 518h256l-530 -1022q-106 -203 -225 -315.5t-285 -112.5q-88 0 -131 11.5t-48 11.5zM0 0zM377 1475l2 6h240l119 -271h-187z" />
<glyph unicode="&#x1ef4;" horiz-adv-x="1366" d="M137 0zM137 1405h273l284 -600h11l485 600h291l-686 -834l-101 -571h-262l100 571zM379 -354l43 241h242l-43 -241h-242z" />
<glyph unicode="&#x1ef5;" horiz-adv-x="1099" d="M-66 -350l31 170h111q80 0 141.5 42t110.5 138l-230 1077h244l111 -518q12 -59 27.5 -162.5t19.5 -136.5h10q12 31 54 131.5t77 167.5l256 518h256l-530 -1022q-106 -203 -225 -315.5t-285 -112.5q-88 0 -131 11.5t-48 11.5zM0 0zM575 -354l43 241h242l-43 -241h-242z " />
<glyph unicode="&#x1ef6;" horiz-adv-x="1366" d="M137 0zM137 1405h273l284 -600h11l485 600h291l-686 -834l-101 -571h-262l100 571zM719 1700l14 86q78 16 166 16q80 0 140.5 -23.5t60.5 -80.5q0 -63 -51 -97t-125 -40l-10 -54h-131l20 115h29q37 0 53 11.5t16 35.5q0 18 -15 24.5t-48 6.5h-119z" />
<glyph unicode="&#x1ef7;" horiz-adv-x="1099" d="M-66 -350l31 170h111q80 0 141.5 42t110.5 138l-230 1077h244l111 -518q12 -59 27.5 -162.5t19.5 -136.5h10q12 31 54 131.5t77 167.5l256 518h256l-530 -1022q-106 -203 -225 -315.5t-285 -112.5q-88 0 -131 11.5t-48 11.5zM0 0zM516 1403l14 86q78 16 166 16 q80 0 140.5 -23.5t60.5 -80.5q0 -63 -51 -97t-125 -40l-10 -54h-131l20 115h29q37 0 53 11.5t16 35.5q0 18 -15 24.5t-48 6.5h-119z" />
<glyph unicode="&#x1ef8;" horiz-adv-x="1366" d="M137 0zM137 1405h273l284 -600h11l485 600h291l-686 -834l-101 -571h-262l100 571zM514 1540q16 103 73.5 170.5t149.5 67.5q59 0 145 -37q82 -35 133 -35q57 0 80 72h139q-18 -104 -75.5 -171t-151.5 -67q-37 0 -69.5 9.5t-73.5 27.5q-41 16 -71 25.5t-62 9.5 q-57 0 -80 -72h-137z" />
<glyph unicode="&#x1ef9;" horiz-adv-x="1099" d="M-66 -350l31 170h111q80 0 141.5 42t110.5 138l-230 1077h244l111 -518q12 -59 27.5 -162.5t19.5 -136.5h10q12 31 54 131.5t77 167.5l256 518h256l-530 -1022q-106 -203 -225 -315.5t-285 -112.5q-88 0 -131 11.5t-48 11.5zM0 0zM312 1243q16 103 73.5 170.5t149.5 67.5 q59 0 145 -37q82 -35 133 -35q57 0 80 72h139q-18 -104 -75.5 -171t-151.5 -67q-37 0 -69.5 9.5t-73.5 27.5q-41 16 -71 25.5t-62 9.5q-57 0 -80 -72h-137z" />
<glyph unicode="&#x2000;" horiz-adv-x="1053" />
<glyph unicode="&#x2001;" horiz-adv-x="2106" />
<glyph unicode="&#x2002;" horiz-adv-x="1053" />
<glyph unicode="&#x2003;" horiz-adv-x="2106" />
<glyph unicode="&#x2004;" horiz-adv-x="702" />
<glyph unicode="&#x2005;" horiz-adv-x="526" />
<glyph unicode="&#x2006;" horiz-adv-x="351" />
<glyph unicode="&#x2007;" horiz-adv-x="351" />
<glyph unicode="&#x2008;" horiz-adv-x="263" />
<glyph unicode="&#x2009;" horiz-adv-x="421" />
<glyph unicode="&#x200a;" horiz-adv-x="117" />
<glyph unicode="&#x2010;" horiz-adv-x="681" d="M51 438l39 230h514l-39 -230h-514z" />
<glyph unicode="&#x2011;" horiz-adv-x="681" d="M51 438l39 230h514l-39 -230h-514z" />
<glyph unicode="&#x2012;" horiz-adv-x="681" d="M51 438l39 230h514l-39 -230h-514z" />
<glyph unicode="&#x2013;" horiz-adv-x="1138" d="M-25 461l31 184h1139l-33 -184h-1137z" />
<glyph unicode="&#x2014;" horiz-adv-x="2048" d="M-25 461l31 184h2048l-33 -184h-2046z" />
<glyph unicode="&#x2018;" horiz-adv-x="530" d="M170 842l41 237l180 326h133l-153 -303h100l-45 -260h-256z" />
<glyph unicode="&#x2019;" horiz-adv-x="530" d="M150 842l155 303h-102l47 260h256l-41 -238l-182 -325h-133z" />
<glyph unicode="&#x201a;" horiz-adv-x="530" d="M-8 -303l153 303h-100l47 260h254l-41 -237l-180 -326h-133z" />
<glyph unicode="&#x201c;" horiz-adv-x="905" d="M141 842l41 237l180 326h134l-156 -303h102l-47 -260h-254zM547 842l41 237l182 326h133l-155 -303h102l-47 -260h-256z" />
<glyph unicode="&#x201d;" horiz-adv-x="905" d="M150 842l155 303h-102l47 260h256l-41 -238l-182 -325h-133zM557 842l156 303h-103l47 260h254l-41 -238l-180 -325h-133z" />
<glyph unicode="&#x201e;" horiz-adv-x="905" d="M-8 -303l153 303h-100l47 260h254l-41 -237l-180 -326h-133zM397 -303l156 303h-102l47 260h256l-41 -237l-183 -326h-133z" />
<glyph unicode="&#x2026;" horiz-adv-x="2048" d="M111 0l49 260h254l-47 -260h-256zM793 0l49 260h254l-47 -260h-256zM1475 0l47 260h256l-47 -260h-256z" />
<glyph unicode="&#x202f;" horiz-adv-x="421" />
<glyph unicode="&#x2039;" horiz-adv-x="681" d="M119 668l346 409h201l-308 -409l162 -410h-182z" />
<glyph unicode="&#x203a;" horiz-adv-x="681" d="M18 258l310 410l-164 409h182l221 -409l-348 -410h-201z" />
<glyph unicode="&#x205f;" horiz-adv-x="526" />
<glyph unicode="&#x20ac;" horiz-adv-x="1138" d="M-12 483l24 156h127q6 68 21 143h-121l27 154h139q98 258 304 376t445 118q111 0 170.5 -14.5t65.5 -16.5l-35 -199q-45 12 -81 20.5t-87 8.5q-164 0 -299 -73t-209 -220h482l-27 -154h-514q-16 -61 -25 -143h512l-26 -156h-486q18 -168 135 -237.5t250 -69.5 q82 0 138.5 14.5t60.5 14.5l-35 -199q-4 0 -62.5 -15.5t-166.5 -15.5q-142 0 -269 51.5t-213 165t-96 291.5h-149z" />
<glyph unicode="&#x2122;" horiz-adv-x="2048" d="M225 1264l25 141h721l-25 -141h-284l-121 -689h-150l121 689h-287zM922 573l145 832h217l96 -627h9l319 627h231l-145 -832h-152l113 637h-4l-330 -637h-141l-104 635h-7l-110 -635h-137z" />
<glyph unicode="&#x25fc;" horiz-adv-x="1075" d="M0 0v1075h1075v-1075h-1075z" />
</font>
</defs>
</svg>
